G04*
G04 #@! TF.GenerationSoftware,Altium Limited,Altium Designer,23.6.0 (18)*
G04*
G04 Layer_Color=8421504*
%FSLAX44Y44*%
%MOMM*%
G71*
G04*
G04 #@! TF.SameCoordinates,4061A6F7-F738-458C-8749-E02376798AA4*
G04*
G04*
G04 #@! TF.FilePolarity,Positive*
G04*
G01*
G75*
%ADD10R,2.4000X2.0000*%
%ADD11R,1.0000X0.2000*%
%ADD12R,1.2000X2.4000*%
%ADD13O,1.5000X0.3000*%
%ADD14O,0.3000X1.5000*%
G04:AMPARAMS|DCode=15|XSize=0.93mm|YSize=1.31mm|CornerRadius=0.0698mm|HoleSize=0mm|Usage=FLASHONLY|Rotation=360.000|XOffset=0mm|YOffset=0mm|HoleType=Round|Shape=RoundedRectangle|*
%AMROUNDEDRECTD15*
21,1,0.9300,1.1705,0,0,360.0*
21,1,0.7905,1.3100,0,0,360.0*
1,1,0.1395,0.3953,-0.5853*
1,1,0.1395,-0.3953,-0.5853*
1,1,0.1395,-0.3953,0.5853*
1,1,0.1395,0.3953,0.5853*
%
%ADD15ROUNDEDRECTD15*%
G04:AMPARAMS|DCode=16|XSize=3.24mm|YSize=1.31mm|CornerRadius=0.0983mm|HoleSize=0mm|Usage=FLASHONLY|Rotation=360.000|XOffset=0mm|YOffset=0mm|HoleType=Round|Shape=RoundedRectangle|*
%AMROUNDEDRECTD16*
21,1,3.2400,1.1135,0,0,360.0*
21,1,3.0435,1.3100,0,0,360.0*
1,1,0.1965,1.5218,-0.5568*
1,1,0.1965,-1.5218,-0.5568*
1,1,0.1965,-1.5218,0.5568*
1,1,0.1965,1.5218,0.5568*
%
%ADD16ROUNDEDRECTD16*%
%ADD17R,1.2000X1.6000*%
%ADD18R,1.6000X1.2000*%
%ADD19R,1.0000X1.1000*%
%ADD20R,1.1000X1.0000*%
%ADD21P,1.5556X4X107.0*%
%ADD22P,1.5556X4X327.0*%
%ADD23P,1.5556X4X65.0*%
%ADD24P,1.5556X4X364.0*%
%ADD25P,1.5556X4X283.0*%
%ADD26P,1.5556X4X200.0*%
%ADD27P,1.5556X4X260.0*%
%ADD28P,1.5556X4X270.0*%
%ADD29R,1.4000X1.0000*%
%ADD30R,0.2000X1.7000*%
D10*
X1677500Y1785000D02*
D03*
Y1825000D02*
D03*
X1074500Y1785000D02*
D03*
Y1825000D02*
D03*
X479250Y1785000D02*
D03*
Y1825000D02*
D03*
D11*
X1233000Y2013750D02*
D03*
Y2008750D02*
D03*
Y2003750D02*
D03*
Y1998750D02*
D03*
Y1993750D02*
D03*
Y1988750D02*
D03*
Y1983750D02*
D03*
Y1978750D02*
D03*
Y1973750D02*
D03*
Y1968750D02*
D03*
Y1963750D02*
D03*
Y1958750D02*
D03*
Y1953750D02*
D03*
Y1948750D02*
D03*
X630000Y2013750D02*
D03*
Y2008750D02*
D03*
Y2003750D02*
D03*
Y1998750D02*
D03*
Y1993750D02*
D03*
Y1988750D02*
D03*
Y1983750D02*
D03*
Y1978750D02*
D03*
Y1973750D02*
D03*
Y1968750D02*
D03*
Y1963750D02*
D03*
Y1958750D02*
D03*
Y1953750D02*
D03*
Y1948750D02*
D03*
X34750Y2013750D02*
D03*
Y2008750D02*
D03*
Y2003750D02*
D03*
Y1998750D02*
D03*
Y1993750D02*
D03*
Y1988750D02*
D03*
Y1983750D02*
D03*
Y1978750D02*
D03*
Y1973750D02*
D03*
Y1968750D02*
D03*
Y1963750D02*
D03*
Y1958750D02*
D03*
Y1953750D02*
D03*
Y1948750D02*
D03*
D12*
X1258000Y2033750D02*
D03*
Y1928750D02*
D03*
X655000Y2033750D02*
D03*
Y1928750D02*
D03*
X59750Y2033750D02*
D03*
Y1928750D02*
D03*
D13*
X1578500Y1916750D02*
D03*
Y1921750D02*
D03*
Y1926750D02*
D03*
Y1931750D02*
D03*
Y1936750D02*
D03*
Y1941750D02*
D03*
Y1946750D02*
D03*
Y1951750D02*
D03*
Y1956750D02*
D03*
Y1961750D02*
D03*
Y1966750D02*
D03*
Y1971750D02*
D03*
Y1976750D02*
D03*
Y1981750D02*
D03*
Y1986750D02*
D03*
Y1991750D02*
D03*
X1693500D02*
D03*
Y1986750D02*
D03*
Y1971750D02*
D03*
Y1966750D02*
D03*
Y1961750D02*
D03*
Y1956750D02*
D03*
Y1951750D02*
D03*
Y1941750D02*
D03*
Y1936750D02*
D03*
Y1931750D02*
D03*
Y1926750D02*
D03*
Y1921750D02*
D03*
Y1916750D02*
D03*
Y1946750D02*
D03*
Y1976750D02*
D03*
Y1981750D02*
D03*
X975500Y1916750D02*
D03*
Y1921750D02*
D03*
Y1926750D02*
D03*
Y1931750D02*
D03*
Y1936750D02*
D03*
Y1941750D02*
D03*
Y1946750D02*
D03*
Y1951750D02*
D03*
Y1956750D02*
D03*
Y1961750D02*
D03*
Y1966750D02*
D03*
Y1971750D02*
D03*
Y1976750D02*
D03*
Y1981750D02*
D03*
Y1986750D02*
D03*
Y1991750D02*
D03*
X1090500D02*
D03*
Y1986750D02*
D03*
Y1971750D02*
D03*
Y1966750D02*
D03*
Y1961750D02*
D03*
Y1956750D02*
D03*
Y1951750D02*
D03*
Y1941750D02*
D03*
Y1936750D02*
D03*
Y1931750D02*
D03*
Y1926750D02*
D03*
Y1921750D02*
D03*
Y1916750D02*
D03*
Y1946750D02*
D03*
Y1976750D02*
D03*
Y1981750D02*
D03*
X380250Y1916750D02*
D03*
Y1921750D02*
D03*
Y1926750D02*
D03*
Y1931750D02*
D03*
Y1936750D02*
D03*
Y1941750D02*
D03*
Y1946750D02*
D03*
Y1951750D02*
D03*
Y1956750D02*
D03*
Y1961750D02*
D03*
Y1966750D02*
D03*
Y1971750D02*
D03*
Y1976750D02*
D03*
Y1981750D02*
D03*
Y1986750D02*
D03*
Y1991750D02*
D03*
X495250D02*
D03*
Y1986750D02*
D03*
Y1971750D02*
D03*
Y1966750D02*
D03*
Y1961750D02*
D03*
Y1956750D02*
D03*
Y1951750D02*
D03*
Y1941750D02*
D03*
Y1936750D02*
D03*
Y1931750D02*
D03*
Y1926750D02*
D03*
Y1921750D02*
D03*
Y1916750D02*
D03*
Y1946750D02*
D03*
Y1976750D02*
D03*
Y1981750D02*
D03*
D14*
X1603500Y2011750D02*
D03*
X1613500D02*
D03*
X1618500D02*
D03*
X1623500D02*
D03*
X1628500D02*
D03*
X1633500D02*
D03*
X1638500D02*
D03*
X1643500D02*
D03*
X1648500D02*
D03*
X1653500D02*
D03*
X1673500Y1896750D02*
D03*
X1668500D02*
D03*
X1663500D02*
D03*
X1658500D02*
D03*
X1653500D02*
D03*
X1648500D02*
D03*
X1643500D02*
D03*
X1638500D02*
D03*
X1633500D02*
D03*
X1628500D02*
D03*
X1623500D02*
D03*
X1618500D02*
D03*
X1613500D02*
D03*
X1608500D02*
D03*
X1603500D02*
D03*
X1598500D02*
D03*
X1608500Y2011750D02*
D03*
X1658500D02*
D03*
X1668500D02*
D03*
X1598500D02*
D03*
X1663500D02*
D03*
X1673500D02*
D03*
X1000500Y2011750D02*
D03*
X1010500D02*
D03*
X1015500D02*
D03*
X1020500D02*
D03*
X1025500D02*
D03*
X1030500D02*
D03*
X1035500D02*
D03*
X1040500D02*
D03*
X1045500D02*
D03*
X1050500D02*
D03*
X1070500Y1896750D02*
D03*
X1065500D02*
D03*
X1060500D02*
D03*
X1055500D02*
D03*
X1050500D02*
D03*
X1045500D02*
D03*
X1040500D02*
D03*
X1035500D02*
D03*
X1030500D02*
D03*
X1025500D02*
D03*
X1020500D02*
D03*
X1015500D02*
D03*
X1010500D02*
D03*
X1005500D02*
D03*
X1000500D02*
D03*
X995500D02*
D03*
X1005500Y2011750D02*
D03*
X1055500D02*
D03*
X1065500D02*
D03*
X995500D02*
D03*
X1060500D02*
D03*
X1070500D02*
D03*
X405250Y2011750D02*
D03*
X415250D02*
D03*
X420250D02*
D03*
X425250D02*
D03*
X430250D02*
D03*
X435250D02*
D03*
X440250D02*
D03*
X445250D02*
D03*
X450250D02*
D03*
X455250D02*
D03*
X475250Y1896750D02*
D03*
X470250D02*
D03*
X465250D02*
D03*
X460250D02*
D03*
X455250D02*
D03*
X450250D02*
D03*
X445250D02*
D03*
X440250D02*
D03*
X435250D02*
D03*
X430250D02*
D03*
X425250D02*
D03*
X420250D02*
D03*
X415250D02*
D03*
X410250D02*
D03*
X405250D02*
D03*
X400250D02*
D03*
X410250Y2011750D02*
D03*
X460250D02*
D03*
X470250D02*
D03*
X400250D02*
D03*
X465250D02*
D03*
X475250D02*
D03*
D15*
X1673850Y1386850D02*
D03*
X1696750D02*
D03*
X1719650D02*
D03*
X1080850Y1386850D02*
D03*
X1103750D02*
D03*
X1126650D02*
D03*
X475600Y1386850D02*
D03*
X498500D02*
D03*
X521400D02*
D03*
D16*
X1696750Y1453750D02*
D03*
X1103750Y1453750D02*
D03*
X498500Y1453750D02*
D03*
D17*
X1711750Y1473750D02*
D03*
X1691750D02*
D03*
X1098750Y1473750D02*
D03*
X1118750D02*
D03*
X513500Y1473750D02*
D03*
X493500D02*
D03*
D18*
X1716750Y1363750D02*
D03*
Y1343750D02*
D03*
X1123750Y1363750D02*
D03*
Y1343750D02*
D03*
X518500Y1363750D02*
D03*
Y1343750D02*
D03*
D19*
X1718750Y1948250D02*
D03*
Y1931250D02*
D03*
X1721750Y1780250D02*
D03*
Y1797250D02*
D03*
X1558000Y1309250D02*
D03*
X1414000Y1323000D02*
D03*
Y1306000D02*
D03*
X1399250D02*
D03*
Y1323000D02*
D03*
X1543250Y1309250D02*
D03*
Y1326250D02*
D03*
X1558000Y1326250D02*
D03*
X1600750Y1854500D02*
D03*
Y1871500D02*
D03*
X1115750Y1948250D02*
D03*
Y1931250D02*
D03*
X1118750Y1780250D02*
D03*
Y1797250D02*
D03*
X955000Y1309250D02*
D03*
X811000Y1323000D02*
D03*
Y1306000D02*
D03*
X796250D02*
D03*
Y1323000D02*
D03*
X940250Y1309250D02*
D03*
Y1326250D02*
D03*
X955000Y1326250D02*
D03*
X997750Y1854500D02*
D03*
Y1871500D02*
D03*
X520500Y1948250D02*
D03*
Y1931250D02*
D03*
X523500Y1780250D02*
D03*
Y1797250D02*
D03*
X359750Y1309250D02*
D03*
X215750Y1323000D02*
D03*
Y1306000D02*
D03*
X201000D02*
D03*
Y1323000D02*
D03*
X345000Y1309250D02*
D03*
Y1326250D02*
D03*
X359750Y1326250D02*
D03*
X402500Y1854500D02*
D03*
Y1871500D02*
D03*
D20*
X1678500Y1858500D02*
D03*
X1695500D02*
D03*
X1559500Y1914500D02*
D03*
X1542500D02*
D03*
X1718750Y2027000D02*
D03*
X1701750D02*
D03*
X1075500Y1858500D02*
D03*
X1092500D02*
D03*
X956500Y1914500D02*
D03*
X939500D02*
D03*
X1115750Y2027000D02*
D03*
X1098750D02*
D03*
X480250Y1858500D02*
D03*
X497250D02*
D03*
X361250Y1914500D02*
D03*
X344250D02*
D03*
X520500Y2027000D02*
D03*
X503500D02*
D03*
D21*
X1620164Y1757212D02*
D03*
X1609836Y1737788D02*
D03*
X1017164Y1757213D02*
D03*
X1006836Y1737788D02*
D03*
X421914Y1757212D02*
D03*
X411586Y1737788D02*
D03*
D22*
X1507787Y1782740D02*
D03*
X1503213Y1804260D02*
D03*
X1476037Y1798990D02*
D03*
X1471463Y1820510D02*
D03*
X904787Y1782740D02*
D03*
X900213Y1804260D02*
D03*
X873037Y1798990D02*
D03*
X868463Y1820510D02*
D03*
X309537Y1782740D02*
D03*
X304963Y1804260D02*
D03*
X277787Y1798990D02*
D03*
X273213Y1820510D02*
D03*
D23*
X1407587Y1740512D02*
D03*
X1386913Y1732988D02*
D03*
X804587Y1740512D02*
D03*
X783913Y1732988D02*
D03*
X209337Y1740512D02*
D03*
X188663Y1732988D02*
D03*
D24*
X1250250Y1630000D02*
D03*
X1233646Y1644433D02*
D03*
X647250Y1630000D02*
D03*
X630647Y1644433D02*
D03*
X52000Y1630000D02*
D03*
X35396Y1644433D02*
D03*
D25*
X1314421Y1470172D02*
D03*
X1326079Y1488828D02*
D03*
X711421Y1470172D02*
D03*
X723079Y1488829D02*
D03*
X116171Y1470172D02*
D03*
X127829Y1488828D02*
D03*
D26*
X1373781Y1466899D02*
D03*
X1393719Y1457601D02*
D03*
X770781Y1466899D02*
D03*
X790719Y1457601D02*
D03*
X175531Y1466899D02*
D03*
X195469Y1457601D02*
D03*
D27*
X1677479Y1527631D02*
D03*
X1695500Y1540250D02*
D03*
X1074479Y1527631D02*
D03*
X1092500Y1540250D02*
D03*
X479229Y1527631D02*
D03*
X497250Y1540250D02*
D03*
D28*
X1640722Y1564472D02*
D03*
X1656278Y1580028D02*
D03*
X1705472Y1598472D02*
D03*
X1721028Y1614028D02*
D03*
X1037722Y1564472D02*
D03*
X1053278Y1580028D02*
D03*
X1102472Y1598472D02*
D03*
X1118028Y1614028D02*
D03*
X442472Y1564472D02*
D03*
X458028Y1580028D02*
D03*
X507222Y1598472D02*
D03*
X522778Y1614028D02*
D03*
D29*
X1471000Y2008250D02*
D03*
X1470500Y1962750D02*
D03*
Y1981750D02*
D03*
X1492500Y1972250D02*
D03*
X1471000Y2027250D02*
D03*
X1493000Y2017750D02*
D03*
X868000Y2008250D02*
D03*
X867500Y1962750D02*
D03*
Y1981750D02*
D03*
X889500Y1972250D02*
D03*
X868000Y2027250D02*
D03*
X890000Y2017750D02*
D03*
X272750Y2008250D02*
D03*
X272250Y1962750D02*
D03*
Y1981750D02*
D03*
X294250Y1972250D02*
D03*
X272750Y2027250D02*
D03*
X294750Y2017750D02*
D03*
D30*
X1451250Y1328500D02*
D03*
X1456250D02*
D03*
X1466250D02*
D03*
X1461250D02*
D03*
X1471250D02*
D03*
X1476250D02*
D03*
X1486250D02*
D03*
X1481250D02*
D03*
X1491250D02*
D03*
X1496250D02*
D03*
X1506250D02*
D03*
X1501250D02*
D03*
X848250Y1328500D02*
D03*
X853250D02*
D03*
X863250D02*
D03*
X858250D02*
D03*
X868250D02*
D03*
X873250D02*
D03*
X883250D02*
D03*
X878250D02*
D03*
X888250D02*
D03*
X893250D02*
D03*
X903250D02*
D03*
X898250D02*
D03*
X253000Y1328500D02*
D03*
X258000D02*
D03*
X268000D02*
D03*
X263000D02*
D03*
X273000D02*
D03*
X278000D02*
D03*
X288000D02*
D03*
X283000D02*
D03*
X293000D02*
D03*
X298000D02*
D03*
X308000D02*
D03*
X303000D02*
D03*
M02*
