G04*
G04 #@! TF.GenerationSoftware,Altium Limited,Altium Designer,23.6.0 (18)*
G04*
G04 Layer_Physical_Order=2*
G04 Layer_Color=16711680*
%FSLAX44Y44*%
%MOMM*%
G71*
G04*
G04 #@! TF.SameCoordinates,4061A6F7-F738-458C-8749-E02376798AA4*
G04*
G04*
G04 #@! TF.FilePolarity,Positive*
G04*
G01*
G75*
%ADD30R,0.2000X1.7000*%
%ADD33C,0.2540*%
%ADD34C,0.4000*%
%ADD35C,1.0000*%
%ADD36R,1.5000X9.0000*%
%ADD37R,9.0000X2.0000*%
%ADD38R,9.0000X1.0000*%
%ADD39R,1.0000X3.0000*%
%ADD40O,1.0000X9.0000*%
%ADD41C,1.5000*%
%ADD42R,1.5000X1.5000*%
%ADD43O,9.0000X1.0000*%
%ADD44R,0.5700X2.0000*%
%ADD45R,9.0000X9.0000*%
%ADD46C,0.6000*%
%ADD47R,1.5000X1.0000*%
G36*
X1148750Y2058750D02*
Y1243750D01*
X923819D01*
Y1302500D01*
X923750Y1303024D01*
Y1304226D01*
X923819Y1304750D01*
X923750Y1305274D01*
Y1312750D01*
X916274D01*
X915750Y1312819D01*
X893423D01*
X892824Y1313939D01*
X892960Y1314142D01*
X893348Y1316093D01*
Y1317000D01*
X902250D01*
Y1340000D01*
X887604D01*
Y1352262D01*
X887272Y1353928D01*
X886329Y1355341D01*
X884841Y1356828D01*
X883428Y1357772D01*
X881762Y1358104D01*
X797988D01*
X796322Y1357772D01*
X794909Y1356828D01*
X793421Y1355341D01*
X792478Y1353928D01*
X792146Y1352262D01*
Y1339119D01*
X791541Y1338514D01*
X790627Y1336308D01*
Y1333921D01*
X791541Y1331716D01*
X793228Y1330028D01*
X795434Y1329115D01*
X797821D01*
X800026Y1330028D01*
X801714Y1331716D01*
X802627Y1333921D01*
Y1336308D01*
X801714Y1338514D01*
X800854Y1339374D01*
Y1349396D01*
X878896D01*
Y1340000D01*
X872604D01*
Y1341512D01*
X872272Y1343178D01*
X871329Y1344591D01*
X869841Y1346078D01*
X868428Y1347022D01*
X866762Y1347354D01*
X812738D01*
X811072Y1347022D01*
X809659Y1346078D01*
X808171Y1344591D01*
X807228Y1343178D01*
X806896Y1341512D01*
Y1339632D01*
X806163Y1338899D01*
X805250Y1336694D01*
Y1334307D01*
X806163Y1332101D01*
X807851Y1330414D01*
X810057Y1329500D01*
X812443D01*
X814649Y1330414D01*
X816337Y1332101D01*
X817250Y1334307D01*
Y1336694D01*
X816879Y1337590D01*
X817584Y1338646D01*
X849250D01*
Y1317000D01*
X858152D01*
Y1316093D01*
X858540Y1314142D01*
X858676Y1313939D01*
X858077Y1312819D01*
X835750D01*
X835226Y1312750D01*
X827750D01*
Y1305274D01*
X827681Y1304750D01*
X827698Y1304625D01*
X827681Y1304500D01*
Y1243750D01*
X598750D01*
Y2058750D01*
X618750Y2078750D01*
X1128750D01*
X1148750Y2058750D01*
D02*
G37*
G36*
X1751750Y2058750D02*
Y1243750D01*
X1526819D01*
Y1302500D01*
X1526750Y1303024D01*
Y1304226D01*
X1526819Y1304750D01*
X1526750Y1305274D01*
Y1312750D01*
X1519274D01*
X1518750Y1312819D01*
X1496423D01*
X1495824Y1313939D01*
X1495960Y1314142D01*
X1496348Y1316093D01*
Y1317000D01*
X1505250D01*
Y1340000D01*
X1490604D01*
Y1352262D01*
X1490272Y1353928D01*
X1489328Y1355341D01*
X1487841Y1356828D01*
X1486428Y1357772D01*
X1484762Y1358104D01*
X1400988D01*
X1399322Y1357772D01*
X1397909Y1356828D01*
X1396422Y1355341D01*
X1395478Y1353928D01*
X1395146Y1352262D01*
Y1339119D01*
X1394541Y1338514D01*
X1393627Y1336308D01*
Y1333921D01*
X1394541Y1331716D01*
X1396228Y1330028D01*
X1398434Y1329115D01*
X1400821D01*
X1403026Y1330028D01*
X1404714Y1331716D01*
X1405627Y1333921D01*
Y1336308D01*
X1404714Y1338514D01*
X1403854Y1339374D01*
Y1349396D01*
X1481896D01*
Y1340000D01*
X1475604D01*
Y1341512D01*
X1475273Y1343178D01*
X1474329Y1344591D01*
X1472841Y1346078D01*
X1471428Y1347022D01*
X1469762Y1347354D01*
X1415738D01*
X1414072Y1347022D01*
X1412659Y1346078D01*
X1411172Y1344591D01*
X1410228Y1343178D01*
X1409896Y1341512D01*
Y1339632D01*
X1409164Y1338899D01*
X1408250Y1336693D01*
Y1334306D01*
X1409164Y1332101D01*
X1410851Y1330413D01*
X1413056Y1329500D01*
X1415444D01*
X1417649Y1330413D01*
X1419337Y1332101D01*
X1420250Y1334306D01*
Y1336693D01*
X1419879Y1337590D01*
X1420584Y1338646D01*
X1452250D01*
Y1317000D01*
X1461152D01*
Y1316093D01*
X1461540Y1314142D01*
X1461676Y1313939D01*
X1461077Y1312819D01*
X1438750D01*
X1438226Y1312750D01*
X1430750D01*
Y1305274D01*
X1430681Y1304750D01*
X1430697Y1304625D01*
X1430681Y1304500D01*
Y1243750D01*
X1201750D01*
Y2058750D01*
X1201750D01*
X1221750Y2078750D01*
X1731750D01*
X1751750Y2058750D01*
D02*
G37*
G36*
X553500D02*
Y1243750D01*
X328569D01*
Y1302500D01*
X328500Y1303024D01*
Y1304226D01*
X328569Y1304750D01*
X328500Y1305274D01*
Y1312750D01*
X321024D01*
X320500Y1312819D01*
X298173D01*
X297574Y1313939D01*
X297710Y1314142D01*
X298098Y1316093D01*
Y1317000D01*
X307000D01*
Y1340000D01*
X292354D01*
Y1352262D01*
X292022Y1353928D01*
X291078Y1355341D01*
X289591Y1356828D01*
X288178Y1357772D01*
X286512Y1358104D01*
X202738D01*
X201072Y1357772D01*
X199659Y1356828D01*
X198172Y1355341D01*
X197228Y1353928D01*
X196896Y1352262D01*
Y1339119D01*
X196291Y1338514D01*
X195377Y1336308D01*
Y1333921D01*
X196291Y1331716D01*
X197978Y1330028D01*
X200184Y1329115D01*
X202571D01*
X204776Y1330028D01*
X206464Y1331716D01*
X207377Y1333921D01*
Y1336308D01*
X206464Y1338514D01*
X205604Y1339374D01*
Y1349396D01*
X283646D01*
Y1340000D01*
X277354D01*
Y1341512D01*
X277022Y1343178D01*
X276079Y1344591D01*
X274591Y1346078D01*
X273178Y1347022D01*
X271512Y1347354D01*
X217488D01*
X215822Y1347022D01*
X214409Y1346078D01*
X212922Y1344591D01*
X211978Y1343178D01*
X211646Y1341512D01*
Y1339632D01*
X210913Y1338899D01*
X210000Y1336693D01*
Y1334306D01*
X210913Y1332101D01*
X212601Y1330413D01*
X214806Y1329500D01*
X217194D01*
X219399Y1330413D01*
X221087Y1332101D01*
X222000Y1334306D01*
Y1336693D01*
X221628Y1337590D01*
X222334Y1338646D01*
X254000D01*
Y1317000D01*
X262902D01*
Y1316093D01*
X263290Y1314142D01*
X263426Y1313939D01*
X262827Y1312819D01*
X240500D01*
X239976Y1312750D01*
X232500D01*
Y1305274D01*
X232431Y1304750D01*
X232447Y1304625D01*
X232431Y1304500D01*
Y1243750D01*
X3500D01*
Y2058750D01*
X23500Y2078750D01*
X533500D01*
X553500Y2058750D01*
D02*
G37*
%LPC*%
G36*
X1097012Y1946354D02*
X1063500D01*
X1061834Y1946022D01*
X1060422Y1945078D01*
X1057922Y1942578D01*
X1056978Y1941166D01*
X1056646Y1939500D01*
Y1813463D01*
X879819D01*
X879087Y1814196D01*
X876881Y1815110D01*
X874494D01*
X872289Y1814196D01*
X870601Y1812509D01*
X869688Y1810303D01*
Y1807916D01*
X870601Y1805711D01*
X872289Y1804023D01*
X874494Y1803110D01*
X876881D01*
X879087Y1804023D01*
X879819Y1804756D01*
X1056646D01*
Y1797968D01*
X912009D01*
X911276Y1798701D01*
X909071Y1799615D01*
X906684D01*
X904478Y1798701D01*
X902791Y1797014D01*
X901877Y1794808D01*
Y1792421D01*
X902791Y1790216D01*
X904478Y1788528D01*
X906684Y1787615D01*
X909071D01*
X911276Y1788528D01*
X912009Y1789261D01*
X1056646D01*
Y1748468D01*
X1021017D01*
X1019649Y1749837D01*
X1017443Y1750750D01*
X1015057D01*
X1012851Y1749837D01*
X1011163Y1748149D01*
X1010250Y1745943D01*
Y1743557D01*
X1011163Y1741351D01*
X1012851Y1739664D01*
X1015057Y1738750D01*
X1017443D01*
X1019649Y1739664D01*
X1019746Y1739761D01*
X1056646D01*
Y1736219D01*
X800767D01*
X799899Y1737087D01*
X797693Y1738000D01*
X795306D01*
X793101Y1737087D01*
X791413Y1735399D01*
X790500Y1733194D01*
Y1730806D01*
X791413Y1728601D01*
X793101Y1726913D01*
X795306Y1726000D01*
X797693D01*
X799899Y1726913D01*
X800497Y1727511D01*
X1056646D01*
Y1690854D01*
X1015500D01*
X1013834Y1690522D01*
X1012421Y1689579D01*
X967562Y1644719D01*
X646509D01*
X645776Y1645452D01*
X643571Y1646365D01*
X641184D01*
X638978Y1645452D01*
X637291Y1643764D01*
X636377Y1641558D01*
Y1639171D01*
X637291Y1636966D01*
X638978Y1635278D01*
X641184Y1634365D01*
X643571D01*
X645776Y1635278D01*
X646509Y1636011D01*
X969365D01*
X971031Y1636343D01*
X972443Y1637286D01*
X1017303Y1682146D01*
X1056646D01*
Y1649303D01*
X1051547Y1644204D01*
X1051546Y1644203D01*
X1035671Y1628329D01*
X1006546Y1599203D01*
X950549Y1543206D01*
X949605Y1541793D01*
X949274Y1540127D01*
Y1503854D01*
X732988D01*
X731322Y1503522D01*
X729909Y1502578D01*
X728421Y1501091D01*
X727478Y1499678D01*
X727146Y1498012D01*
Y1488041D01*
X721220Y1482115D01*
X720184D01*
X717978Y1481201D01*
X716291Y1479514D01*
X715377Y1477308D01*
Y1474921D01*
X716291Y1472716D01*
X717978Y1471028D01*
X720184Y1470115D01*
X722571D01*
X724776Y1471028D01*
X726464Y1472716D01*
X727377Y1474921D01*
Y1475958D01*
X734578Y1483159D01*
X735522Y1484572D01*
X735854Y1486238D01*
Y1495146D01*
X949274D01*
Y1471354D01*
X787632D01*
X786899Y1472087D01*
X784694Y1473000D01*
X782307D01*
X780101Y1472087D01*
X778413Y1470399D01*
X777500Y1468194D01*
Y1465807D01*
X778413Y1463601D01*
X780101Y1461913D01*
X782307Y1461000D01*
X784694D01*
X786899Y1461913D01*
X787632Y1462646D01*
X951274D01*
X952940Y1462978D01*
X954353Y1463922D01*
X955218Y1464786D01*
X955962Y1465530D01*
X955962Y1465530D01*
X955962Y1465531D01*
X956706Y1466274D01*
X957175Y1466977D01*
X957649Y1467687D01*
X957649Y1467687D01*
X957649Y1467687D01*
X957801Y1468449D01*
X957981Y1469353D01*
Y1538324D01*
X1009625Y1589968D01*
X1027557Y1572036D01*
X1028969Y1571093D01*
X1030635Y1570761D01*
X1037495D01*
X1038228Y1570028D01*
X1040434Y1569115D01*
X1042821D01*
X1045026Y1570028D01*
X1046714Y1571716D01*
X1047627Y1573921D01*
Y1576308D01*
X1046714Y1578514D01*
X1045026Y1580202D01*
X1042821Y1581115D01*
X1040434D01*
X1038228Y1580202D01*
X1037495Y1579469D01*
X1032438D01*
X1015782Y1596125D01*
X1038750Y1619093D01*
X1075524Y1582320D01*
Y1540497D01*
X1074791Y1539764D01*
X1073877Y1537558D01*
Y1535172D01*
X1074791Y1532966D01*
X1076478Y1531278D01*
X1078684Y1530365D01*
X1081071D01*
X1083276Y1531278D01*
X1084964Y1532966D01*
X1085877Y1535172D01*
Y1537558D01*
X1084964Y1539764D01*
X1084231Y1540497D01*
Y1584123D01*
X1083899Y1585789D01*
X1082956Y1587201D01*
X1044907Y1625250D01*
X1054625Y1634968D01*
X1082807Y1606786D01*
X1084219Y1605843D01*
X1085885Y1605511D01*
X1102495D01*
X1103228Y1604778D01*
X1105434Y1603865D01*
X1107821D01*
X1110026Y1604778D01*
X1111714Y1606466D01*
X1112627Y1608671D01*
Y1611058D01*
X1111714Y1613264D01*
X1110026Y1614951D01*
X1107821Y1615865D01*
X1105434D01*
X1103228Y1614951D01*
X1102495Y1614218D01*
X1087689D01*
X1060782Y1641125D01*
X1064079Y1644422D01*
X1065022Y1645834D01*
X1065354Y1647500D01*
Y1873654D01*
X1065602Y1873749D01*
X1066624Y1873866D01*
X1067421Y1872672D01*
X1114646Y1825447D01*
Y1594803D01*
X1107672Y1587829D01*
X1106728Y1586416D01*
X1106396Y1584750D01*
Y1380604D01*
X1085250D01*
X1083993Y1380354D01*
X779238D01*
X777572Y1380022D01*
X776159Y1379079D01*
X774671Y1377591D01*
X773728Y1376178D01*
X773396Y1374512D01*
Y1326750D01*
X767250D01*
Y1323104D01*
X643250D01*
Y1326750D01*
X622250D01*
Y1310750D01*
X643250D01*
Y1314396D01*
X767250D01*
Y1310750D01*
X788250D01*
Y1326750D01*
X782104D01*
Y1371646D01*
X1085000D01*
X1086257Y1371896D01*
X1109262D01*
X1110928Y1372228D01*
X1112341Y1373172D01*
X1113829Y1374659D01*
X1114772Y1376072D01*
X1115104Y1377738D01*
Y1582947D01*
X1122078Y1589922D01*
X1122876Y1591116D01*
X1123898Y1590999D01*
X1124146Y1590904D01*
Y1585803D01*
X1118421Y1580078D01*
X1117478Y1578666D01*
X1117146Y1577000D01*
Y1328303D01*
X1116901Y1328058D01*
X1116027Y1326750D01*
X1103250D01*
Y1323104D01*
X979250D01*
Y1326750D01*
X958250D01*
Y1310750D01*
X979250D01*
Y1314396D01*
X1103250D01*
Y1310750D01*
X1124250D01*
Y1322059D01*
X1124334Y1322480D01*
Y1323177D01*
X1124578Y1323422D01*
X1125522Y1324834D01*
X1125854Y1326500D01*
Y1575197D01*
X1131579Y1580921D01*
X1132522Y1582334D01*
X1132854Y1584000D01*
Y1839750D01*
X1132522Y1841416D01*
X1131579Y1842829D01*
X1093104Y1881303D01*
Y1898957D01*
X1093276Y1899028D01*
X1094964Y1900716D01*
X1095877Y1902921D01*
Y1905308D01*
X1094964Y1907514D01*
X1093276Y1909202D01*
X1091071Y1910115D01*
X1088684D01*
X1086478Y1909202D01*
X1084791Y1907514D01*
X1083877Y1905308D01*
Y1902921D01*
X1084396Y1901668D01*
Y1879500D01*
X1084728Y1877834D01*
X1085671Y1876422D01*
X1124146Y1837947D01*
Y1829346D01*
X1123898Y1829251D01*
X1122876Y1829134D01*
X1122078Y1830329D01*
X1074854Y1877553D01*
Y1926868D01*
X1076087Y1928101D01*
X1077000Y1930307D01*
Y1932693D01*
X1076087Y1934899D01*
X1074609Y1936376D01*
X1074841Y1937369D01*
X1074998Y1937646D01*
X1094146D01*
Y1919480D01*
X1094478Y1917814D01*
X1095422Y1916401D01*
X1097286Y1914536D01*
X1098699Y1913593D01*
X1100365Y1913261D01*
X1111245D01*
X1111978Y1912528D01*
X1114184Y1911615D01*
X1116571D01*
X1118776Y1912528D01*
X1120464Y1914216D01*
X1121377Y1916421D01*
Y1918808D01*
X1120464Y1921014D01*
X1118776Y1922702D01*
X1116571Y1923615D01*
X1114184D01*
X1111978Y1922702D01*
X1111245Y1921969D01*
X1102854D01*
Y1940512D01*
X1102522Y1942178D01*
X1101579Y1943591D01*
X1100091Y1945078D01*
X1098678Y1946022D01*
X1097012Y1946354D01*
D02*
G37*
G36*
X1111500Y2077098D02*
X711593D01*
X709642Y2076710D01*
X707988Y2075605D01*
X706883Y2073951D01*
X706495Y2072000D01*
Y2070000D01*
X698450D01*
Y2049000D01*
X719450D01*
Y2066902D01*
X725265D01*
X725766Y2065632D01*
X724566Y2063553D01*
X723850Y2060882D01*
Y2058118D01*
X724566Y2055447D01*
X725948Y2053053D01*
X727903Y2051098D01*
X729996Y2049889D01*
Y1944380D01*
X730328Y1942714D01*
X731272Y1941301D01*
X737401Y1935172D01*
X738814Y1934228D01*
X740480Y1933896D01*
X986725D01*
X987978Y1932643D01*
X990184Y1931730D01*
X992571D01*
X994776Y1932643D01*
X996464Y1934331D01*
X997377Y1936537D01*
Y1938923D01*
X997337Y1939020D01*
X997448Y1939228D01*
X998861Y1940172D01*
X1000439Y1941750D01*
X1001944D01*
X1004149Y1942664D01*
X1005837Y1944351D01*
X1006067Y1944906D01*
X1007562Y1945199D01*
X1008469Y1944593D01*
X1010135Y1944261D01*
X1021496D01*
X1022228Y1943528D01*
X1024434Y1942615D01*
X1026821D01*
X1029026Y1943528D01*
X1030714Y1945216D01*
X1031627Y1947421D01*
Y1947511D01*
X1038245D01*
X1038978Y1946778D01*
X1041184Y1945865D01*
X1043571D01*
X1045776Y1946778D01*
X1047464Y1948466D01*
X1048377Y1950671D01*
Y1953058D01*
X1047464Y1955264D01*
X1047389Y1955338D01*
X1047875Y1956511D01*
X1050745D01*
X1051478Y1955778D01*
X1053684Y1954865D01*
X1056071D01*
X1058276Y1955778D01*
X1059964Y1957466D01*
X1060877Y1959671D01*
Y1962058D01*
X1059964Y1964264D01*
X1058276Y1965952D01*
X1057875Y1966118D01*
X1057845Y1966801D01*
X1058001Y1967440D01*
X1060026Y1968278D01*
X1061714Y1969966D01*
X1062627Y1972171D01*
Y1974558D01*
X1061714Y1976764D01*
X1060026Y1978452D01*
X1057821Y1979365D01*
X1055434D01*
X1053228Y1978452D01*
X1052495Y1977719D01*
X1049934D01*
X1049408Y1978988D01*
X1051784Y1981365D01*
X1052821D01*
X1055026Y1982278D01*
X1056714Y1983966D01*
X1057627Y1986171D01*
Y1988558D01*
X1056714Y1990764D01*
X1055026Y1992451D01*
X1052821Y1993365D01*
X1050434D01*
X1048228Y1992451D01*
X1046541Y1990764D01*
X1045627Y1988558D01*
Y1987522D01*
X1043709Y1985604D01*
X1004555D01*
X1004303Y1986874D01*
X1004399Y1986913D01*
X1006087Y1988601D01*
X1007000Y1990807D01*
Y1993194D01*
X1006087Y1995399D01*
X1004399Y1997087D01*
X1002194Y1998000D01*
X999807D01*
X999761Y1997981D01*
X999087Y1999609D01*
X997399Y2001297D01*
X995193Y2002210D01*
X992806D01*
X990601Y2001297D01*
X989868Y2000564D01*
X944354D01*
Y2046400D01*
X944022Y2048066D01*
X943079Y2049478D01*
X941404Y2051154D01*
X939991Y2052097D01*
X938325Y2052429D01*
X899628D01*
X896274Y2055783D01*
X896900Y2058118D01*
Y2060882D01*
X896184Y2063553D01*
X894984Y2065632D01*
X895485Y2066902D01*
X951600D01*
Y2049000D01*
X972600D01*
Y2066902D01*
X978415D01*
X978916Y2065632D01*
X977716Y2063553D01*
X977000Y2060882D01*
Y2058118D01*
X977716Y2055447D01*
X979098Y2053053D01*
X981053Y2051098D01*
X983146Y2049889D01*
Y2039660D01*
X979671Y2036186D01*
X978728Y2034773D01*
X978396Y2033107D01*
Y2026132D01*
X977663Y2025399D01*
X976750Y2023194D01*
Y2020807D01*
X976357Y2020219D01*
X970509D01*
X969776Y2020952D01*
X967571Y2021865D01*
X965184D01*
X962978Y2020952D01*
X961291Y2019264D01*
X960377Y2017058D01*
Y2014671D01*
X961291Y2012466D01*
X962978Y2010778D01*
X965184Y2009865D01*
X967571D01*
X969776Y2010778D01*
X970509Y2011511D01*
X992365D01*
X994031Y2011843D01*
X995443Y2012786D01*
X1015978Y2033322D01*
X1016922Y2034734D01*
X1017254Y2036400D01*
Y2049889D01*
X1019347Y2051098D01*
X1021302Y2053053D01*
X1022684Y2055447D01*
X1023400Y2058118D01*
Y2060882D01*
X1022684Y2063553D01*
X1021484Y2065632D01*
X1021985Y2066902D01*
X1109388D01*
X1133779Y2042511D01*
Y1874486D01*
X1132877Y1872308D01*
Y1869921D01*
X1133791Y1867716D01*
X1135478Y1866028D01*
X1137684Y1865115D01*
X1140071D01*
X1142276Y1866028D01*
X1143964Y1867716D01*
X1144877Y1869921D01*
Y1872308D01*
X1143975Y1874486D01*
Y2044623D01*
X1143587Y2046574D01*
X1142482Y2048228D01*
X1115105Y2075605D01*
X1113451Y2076710D01*
X1111500Y2077098D01*
D02*
G37*
%LPD*%
G36*
X852416Y2065632D02*
X851216Y2063553D01*
X850500Y2060882D01*
Y2058118D01*
X851216Y2055447D01*
X852598Y2053053D01*
X854553Y2051098D01*
X856947Y2049716D01*
X859618Y2049000D01*
X862382D01*
X864717Y2049626D01*
X874671Y2039671D01*
X876084Y2038728D01*
X877750Y2038396D01*
X929447D01*
X930396Y2037447D01*
Y1993488D01*
X930728Y1991822D01*
X931672Y1990410D01*
X934469Y1987612D01*
X935574Y1986874D01*
X935217Y1985604D01*
X856053D01*
X853150Y1988506D01*
Y1989041D01*
X852237Y1991247D01*
X850549Y1992934D01*
X848344Y1993848D01*
X845957D01*
X843752Y1992934D01*
X842064Y1991247D01*
X841151Y1989041D01*
Y1986654D01*
X842064Y1984449D01*
X843752Y1982761D01*
X844164Y1982590D01*
X844412Y1981345D01*
X843564Y1980497D01*
X842651Y1978291D01*
Y1975904D01*
X843564Y1973699D01*
X845252Y1972011D01*
X846372Y1971548D01*
X845500Y1969444D01*
Y1967057D01*
X846413Y1964851D01*
X848101Y1963163D01*
X848571Y1962969D01*
X848250Y1962193D01*
Y1959807D01*
X849164Y1957601D01*
X850851Y1955914D01*
X851077Y1954690D01*
X850250Y1952693D01*
Y1950307D01*
X850844Y1948874D01*
X850002Y1947604D01*
X834250D01*
Y2039250D01*
X813250D01*
Y1947604D01*
X747553D01*
X745854Y1949303D01*
Y2043896D01*
X757457D01*
X758084Y2043478D01*
X759750Y2043146D01*
X761416Y2043478D01*
X762829Y2044422D01*
X763772Y2045834D01*
X764104Y2047500D01*
Y2049889D01*
X766197Y2051098D01*
X768152Y2053053D01*
X769534Y2055447D01*
X770250Y2058118D01*
Y2060882D01*
X769534Y2063553D01*
X768334Y2065632D01*
X768835Y2066902D01*
X825100D01*
Y2049000D01*
X846100D01*
Y2066902D01*
X851915D01*
X852416Y2065632D01*
D02*
G37*
%LPC*%
G36*
X1700012Y1946354D02*
X1666500D01*
X1664834Y1946022D01*
X1663421Y1945078D01*
X1660921Y1942578D01*
X1659978Y1941166D01*
X1659646Y1939500D01*
Y1813463D01*
X1482820D01*
X1482086Y1814196D01*
X1479881Y1815110D01*
X1477494D01*
X1475289Y1814196D01*
X1473601Y1812509D01*
X1472688Y1810303D01*
Y1807916D01*
X1473601Y1805711D01*
X1475289Y1804023D01*
X1477494Y1803110D01*
X1479881D01*
X1482086Y1804023D01*
X1482820Y1804756D01*
X1659646D01*
Y1797968D01*
X1515009D01*
X1514276Y1798701D01*
X1512071Y1799615D01*
X1509684D01*
X1507478Y1798701D01*
X1505791Y1797014D01*
X1504877Y1794808D01*
Y1792421D01*
X1505791Y1790216D01*
X1507478Y1788528D01*
X1509684Y1787615D01*
X1512071D01*
X1514276Y1788528D01*
X1515009Y1789261D01*
X1659646D01*
Y1748468D01*
X1623017D01*
X1621900Y1749585D01*
X1619695Y1750498D01*
X1617308D01*
X1615103Y1749585D01*
X1613415Y1747897D01*
X1612502Y1745692D01*
Y1743305D01*
X1613415Y1741100D01*
X1615103Y1739412D01*
X1617308Y1738499D01*
X1619695D01*
X1621900Y1739412D01*
X1622250Y1739761D01*
X1659646D01*
Y1736219D01*
X1403767D01*
X1402555Y1737431D01*
X1400349Y1738344D01*
X1397962D01*
X1395757Y1737431D01*
X1394069Y1735743D01*
X1393156Y1733538D01*
Y1731151D01*
X1394069Y1728945D01*
X1395757Y1727258D01*
X1397962Y1726344D01*
X1400349D01*
X1402555Y1727258D01*
X1402808Y1727511D01*
X1659646D01*
Y1690854D01*
X1618500D01*
X1616834Y1690522D01*
X1615421Y1689579D01*
X1570562Y1644718D01*
X1249509D01*
X1248776Y1645451D01*
X1246571Y1646365D01*
X1244184D01*
X1241978Y1645451D01*
X1240291Y1643764D01*
X1239377Y1641558D01*
Y1639171D01*
X1240291Y1636966D01*
X1241978Y1635278D01*
X1244184Y1634365D01*
X1246571D01*
X1248776Y1635278D01*
X1249509Y1636011D01*
X1572365D01*
X1574031Y1636343D01*
X1575443Y1637286D01*
X1620303Y1682146D01*
X1659646D01*
Y1649303D01*
X1654547Y1644203D01*
X1654547Y1644203D01*
X1638672Y1628329D01*
X1609547Y1599203D01*
X1553549Y1543206D01*
X1552605Y1541793D01*
X1552274Y1540127D01*
Y1503854D01*
X1335988D01*
X1334322Y1503522D01*
X1332909Y1502578D01*
X1331422Y1501091D01*
X1330478Y1499678D01*
X1330146Y1498012D01*
Y1488041D01*
X1324220Y1482115D01*
X1323184D01*
X1320978Y1481201D01*
X1319291Y1479514D01*
X1318377Y1477308D01*
Y1474921D01*
X1319291Y1472716D01*
X1320978Y1471028D01*
X1323184Y1470115D01*
X1325571D01*
X1327776Y1471028D01*
X1329464Y1472716D01*
X1330377Y1474921D01*
Y1475958D01*
X1337578Y1483159D01*
X1338522Y1484572D01*
X1338854Y1486238D01*
Y1495146D01*
X1552274D01*
Y1472068D01*
X1390596D01*
X1389863Y1472801D01*
X1387658Y1473715D01*
X1385271D01*
X1383066Y1472801D01*
X1381378Y1471113D01*
X1380465Y1468908D01*
Y1466521D01*
X1381378Y1464316D01*
X1383066Y1462628D01*
X1385271Y1461715D01*
X1387658D01*
X1389863Y1462628D01*
X1390596Y1463361D01*
X1554989D01*
X1556655Y1463692D01*
X1558067Y1464636D01*
X1559706Y1466274D01*
X1560649Y1467687D01*
X1560981Y1469353D01*
Y1538324D01*
X1612625Y1589968D01*
X1630557Y1572036D01*
X1631969Y1571093D01*
X1633635Y1570761D01*
X1640495D01*
X1641228Y1570028D01*
X1643434Y1569115D01*
X1645821D01*
X1648026Y1570028D01*
X1649714Y1571716D01*
X1650627Y1573921D01*
Y1576308D01*
X1649714Y1578514D01*
X1648026Y1580201D01*
X1645821Y1581115D01*
X1643434D01*
X1641228Y1580201D01*
X1640495Y1579469D01*
X1635438D01*
X1618782Y1596125D01*
X1641750Y1619093D01*
X1678524Y1582319D01*
Y1540497D01*
X1677791Y1539764D01*
X1676877Y1537558D01*
Y1535171D01*
X1677791Y1532966D01*
X1679478Y1531278D01*
X1681684Y1530365D01*
X1684071D01*
X1686276Y1531278D01*
X1687964Y1532966D01*
X1688877Y1535171D01*
Y1537558D01*
X1687964Y1539764D01*
X1687231Y1540497D01*
Y1584123D01*
X1686899Y1585789D01*
X1685956Y1587201D01*
X1647907Y1625250D01*
X1657625Y1634968D01*
X1685807Y1606786D01*
X1687219Y1605843D01*
X1688885Y1605511D01*
X1705495D01*
X1706228Y1604778D01*
X1708434Y1603865D01*
X1710821D01*
X1713026Y1604778D01*
X1714714Y1606466D01*
X1715627Y1608671D01*
Y1611058D01*
X1714714Y1613264D01*
X1713026Y1614951D01*
X1710821Y1615865D01*
X1708434D01*
X1706228Y1614951D01*
X1705495Y1614218D01*
X1690688D01*
X1663782Y1641125D01*
X1667079Y1644422D01*
X1668022Y1645834D01*
X1668354Y1647500D01*
Y1873654D01*
X1668602Y1873749D01*
X1669624Y1873866D01*
X1670421Y1872672D01*
X1717646Y1825447D01*
Y1594803D01*
X1710672Y1587828D01*
X1709728Y1586416D01*
X1709396Y1584750D01*
Y1380604D01*
X1688250D01*
X1686993Y1380354D01*
X1382238D01*
X1380572Y1380022D01*
X1379159Y1379078D01*
X1377672Y1377590D01*
X1376728Y1376178D01*
X1376396Y1374512D01*
Y1326750D01*
X1370250D01*
Y1323104D01*
X1246250D01*
Y1326750D01*
X1225250D01*
Y1310750D01*
X1246250D01*
Y1314396D01*
X1370250D01*
Y1310750D01*
X1391250D01*
Y1326750D01*
X1385104D01*
Y1371646D01*
X1688000D01*
X1689257Y1371896D01*
X1712262D01*
X1713928Y1372228D01*
X1715341Y1373172D01*
X1716828Y1374659D01*
X1717772Y1376072D01*
X1718104Y1377738D01*
Y1582947D01*
X1725078Y1589922D01*
X1725876Y1591116D01*
X1726898Y1590999D01*
X1727146Y1590904D01*
Y1585803D01*
X1721422Y1580078D01*
X1720478Y1578666D01*
X1720146Y1577000D01*
Y1328303D01*
X1719901Y1328058D01*
X1719027Y1326750D01*
X1706250D01*
Y1323104D01*
X1582250D01*
Y1326750D01*
X1561250D01*
Y1310750D01*
X1582250D01*
Y1314396D01*
X1706250D01*
Y1310750D01*
X1727250D01*
Y1322059D01*
X1727334Y1322480D01*
Y1323177D01*
X1727578Y1323421D01*
X1728522Y1324834D01*
X1728854Y1326500D01*
Y1575197D01*
X1734579Y1580921D01*
X1735522Y1582334D01*
X1735854Y1584000D01*
Y1839750D01*
X1735522Y1841416D01*
X1734579Y1842829D01*
X1696104Y1881303D01*
Y1898957D01*
X1696276Y1899028D01*
X1697964Y1900716D01*
X1698877Y1902921D01*
Y1905308D01*
X1697964Y1907514D01*
X1696276Y1909201D01*
X1694071Y1910115D01*
X1691684D01*
X1689478Y1909201D01*
X1687791Y1907514D01*
X1686877Y1905308D01*
Y1902921D01*
X1687396Y1901668D01*
Y1879500D01*
X1687728Y1877834D01*
X1688672Y1876422D01*
X1727146Y1837947D01*
Y1829346D01*
X1726898Y1829251D01*
X1725876Y1829134D01*
X1725078Y1830329D01*
X1677854Y1877553D01*
Y1926868D01*
X1679087Y1928101D01*
X1680000Y1930307D01*
Y1932693D01*
X1679087Y1934899D01*
X1677609Y1936376D01*
X1677841Y1937369D01*
X1677998Y1937646D01*
X1697146D01*
Y1919480D01*
X1697478Y1917814D01*
X1698421Y1916401D01*
X1700286Y1914536D01*
X1701699Y1913593D01*
X1703365Y1913261D01*
X1714245D01*
X1714978Y1912528D01*
X1717184Y1911615D01*
X1719571D01*
X1721776Y1912528D01*
X1723464Y1914216D01*
X1724377Y1916421D01*
Y1918808D01*
X1723464Y1921014D01*
X1721776Y1922701D01*
X1719571Y1923615D01*
X1717184D01*
X1714978Y1922701D01*
X1714245Y1921969D01*
X1705854D01*
Y1940512D01*
X1705522Y1942178D01*
X1704579Y1943591D01*
X1703091Y1945078D01*
X1701678Y1946022D01*
X1700012Y1946354D01*
D02*
G37*
G36*
X1714500Y2077098D02*
X1314593D01*
X1312642Y2076710D01*
X1310988Y2075605D01*
X1309883Y2073951D01*
X1309495Y2072000D01*
Y2070000D01*
X1301450D01*
Y2049000D01*
X1322450D01*
Y2066902D01*
X1328265D01*
X1328766Y2065632D01*
X1327566Y2063553D01*
X1326850Y2060882D01*
Y2058118D01*
X1327566Y2055447D01*
X1328948Y2053053D01*
X1330903Y2051098D01*
X1332996Y2049889D01*
Y1944380D01*
X1333328Y1942714D01*
X1334272Y1941301D01*
X1340401Y1935172D01*
X1341814Y1934228D01*
X1343480Y1933896D01*
X1589725D01*
X1590978Y1932643D01*
X1593184Y1931730D01*
X1595571D01*
X1597776Y1932643D01*
X1599464Y1934331D01*
X1600377Y1936537D01*
Y1938923D01*
X1600337Y1939020D01*
X1600448Y1939228D01*
X1601861Y1940172D01*
X1603439Y1941750D01*
X1604944D01*
X1607149Y1942663D01*
X1608837Y1944351D01*
X1609066Y1944906D01*
X1610562Y1945199D01*
X1611469Y1944593D01*
X1613135Y1944261D01*
X1624496D01*
X1625228Y1943528D01*
X1627434Y1942615D01*
X1629821D01*
X1632026Y1943528D01*
X1633714Y1945216D01*
X1634627Y1947421D01*
Y1947511D01*
X1641246D01*
X1641978Y1946778D01*
X1644184Y1945865D01*
X1646571D01*
X1648776Y1946778D01*
X1650464Y1948466D01*
X1651377Y1950671D01*
Y1953058D01*
X1650464Y1955264D01*
X1650389Y1955338D01*
X1650875Y1956511D01*
X1653746D01*
X1654478Y1955778D01*
X1656684Y1954865D01*
X1659071D01*
X1661276Y1955778D01*
X1662964Y1957466D01*
X1663877Y1959671D01*
Y1962058D01*
X1662964Y1964264D01*
X1661276Y1965951D01*
X1660875Y1966117D01*
X1660845Y1966801D01*
X1661001Y1967440D01*
X1663026Y1968278D01*
X1664714Y1969966D01*
X1665627Y1972171D01*
Y1974558D01*
X1664714Y1976764D01*
X1663026Y1978451D01*
X1660821Y1979365D01*
X1658434D01*
X1656228Y1978451D01*
X1655495Y1977719D01*
X1652934D01*
X1652408Y1978988D01*
X1654784Y1981365D01*
X1655821D01*
X1658026Y1982278D01*
X1659714Y1983966D01*
X1660627Y1986171D01*
Y1988558D01*
X1659714Y1990764D01*
X1658026Y1992451D01*
X1655821Y1993365D01*
X1653434D01*
X1651228Y1992451D01*
X1649541Y1990764D01*
X1648627Y1988558D01*
Y1987522D01*
X1646709Y1985604D01*
X1607555D01*
X1607303Y1986874D01*
X1607399Y1986913D01*
X1609086Y1988601D01*
X1610000Y1990806D01*
Y1993193D01*
X1609086Y1995399D01*
X1607399Y1997086D01*
X1605193Y1998000D01*
X1602807D01*
X1602761Y1997981D01*
X1602087Y1999609D01*
X1600399Y2001297D01*
X1598194Y2002210D01*
X1595806D01*
X1593601Y2001297D01*
X1592868Y2000564D01*
X1547354D01*
Y2046400D01*
X1547022Y2048066D01*
X1546078Y2049478D01*
X1544403Y2051153D01*
X1542991Y2052097D01*
X1541325Y2052429D01*
X1502628D01*
X1499274Y2055783D01*
X1499900Y2058118D01*
Y2060882D01*
X1499184Y2063553D01*
X1497984Y2065632D01*
X1498485Y2066902D01*
X1554600D01*
Y2049000D01*
X1575600D01*
Y2066902D01*
X1581415D01*
X1581916Y2065632D01*
X1580716Y2063553D01*
X1580000Y2060882D01*
Y2058118D01*
X1580716Y2055447D01*
X1582098Y2053053D01*
X1584053Y2051098D01*
X1586146Y2049889D01*
Y2039660D01*
X1582672Y2036186D01*
X1581728Y2034773D01*
X1581396Y2033107D01*
Y2026132D01*
X1580663Y2025399D01*
X1579750Y2023193D01*
Y2020806D01*
X1579357Y2020219D01*
X1573509D01*
X1572776Y2020951D01*
X1570571Y2021865D01*
X1568184D01*
X1565978Y2020951D01*
X1564291Y2019264D01*
X1563377Y2017058D01*
Y2014671D01*
X1564291Y2012466D01*
X1565978Y2010778D01*
X1568184Y2009865D01*
X1570571D01*
X1572776Y2010778D01*
X1573509Y2011511D01*
X1595365D01*
X1597031Y2011843D01*
X1598443Y2012786D01*
X1618978Y2033321D01*
X1619922Y2034734D01*
X1620254Y2036400D01*
Y2049889D01*
X1622347Y2051098D01*
X1624302Y2053053D01*
X1625684Y2055447D01*
X1626400Y2058118D01*
Y2060882D01*
X1625684Y2063553D01*
X1624484Y2065632D01*
X1624985Y2066902D01*
X1712388D01*
X1736779Y2042511D01*
Y1874486D01*
X1735877Y1872308D01*
Y1869921D01*
X1736791Y1867716D01*
X1738478Y1866028D01*
X1740684Y1865115D01*
X1743071D01*
X1745276Y1866028D01*
X1746964Y1867716D01*
X1747877Y1869921D01*
Y1872308D01*
X1746975Y1874486D01*
Y2044623D01*
X1746587Y2046574D01*
X1745482Y2048228D01*
X1718105Y2075605D01*
X1716451Y2076710D01*
X1714500Y2077098D01*
D02*
G37*
%LPD*%
G36*
X1455416Y2065632D02*
X1454216Y2063553D01*
X1453500Y2060882D01*
Y2058118D01*
X1454216Y2055447D01*
X1455598Y2053053D01*
X1457553Y2051098D01*
X1459947Y2049716D01*
X1462618Y2049000D01*
X1465382D01*
X1467717Y2049626D01*
X1477672Y2039671D01*
X1479084Y2038728D01*
X1480750Y2038396D01*
X1532447D01*
X1533396Y2037447D01*
Y1993488D01*
X1533728Y1991822D01*
X1534671Y1990409D01*
X1537469Y1987612D01*
X1538574Y1986874D01*
X1538217Y1985604D01*
X1459053D01*
X1456151Y1988506D01*
Y1989041D01*
X1455237Y1991246D01*
X1453549Y1992934D01*
X1451344Y1993848D01*
X1448957D01*
X1446752Y1992934D01*
X1445064Y1991246D01*
X1444151Y1989041D01*
Y1986654D01*
X1445064Y1984449D01*
X1446752Y1982761D01*
X1447164Y1982590D01*
X1447412Y1981345D01*
X1446564Y1980497D01*
X1445650Y1978291D01*
Y1975904D01*
X1446564Y1973699D01*
X1448252Y1972011D01*
X1449371Y1971548D01*
X1448500Y1969444D01*
Y1967056D01*
X1449413Y1964851D01*
X1451101Y1963163D01*
X1451571Y1962969D01*
X1451250Y1962193D01*
Y1959807D01*
X1452163Y1957601D01*
X1453851Y1955913D01*
X1454077Y1954690D01*
X1453250Y1952693D01*
Y1950307D01*
X1453844Y1948874D01*
X1453002Y1947604D01*
X1437250D01*
Y2039250D01*
X1416250D01*
Y1947604D01*
X1350553D01*
X1348854Y1949303D01*
Y2043896D01*
X1360457D01*
X1361084Y2043478D01*
X1362750Y2043146D01*
X1364416Y2043478D01*
X1365829Y2044422D01*
X1366772Y2045834D01*
X1367104Y2047500D01*
Y2049889D01*
X1369197Y2051098D01*
X1371152Y2053053D01*
X1372534Y2055447D01*
X1373250Y2058118D01*
Y2060882D01*
X1372534Y2063553D01*
X1371334Y2065632D01*
X1371835Y2066902D01*
X1428100D01*
Y2049000D01*
X1449100D01*
Y2066902D01*
X1454915D01*
X1455416Y2065632D01*
D02*
G37*
%LPC*%
G36*
X501762Y1946354D02*
X468250D01*
X466584Y1946022D01*
X465172Y1945078D01*
X462672Y1942578D01*
X461728Y1941166D01*
X461396Y1939500D01*
Y1813463D01*
X284569D01*
X283836Y1814196D01*
X281631Y1815110D01*
X279244D01*
X277039Y1814196D01*
X275351Y1812509D01*
X274438Y1810303D01*
Y1807916D01*
X275351Y1805711D01*
X277039Y1804023D01*
X279244Y1803110D01*
X281631D01*
X283836Y1804023D01*
X284569Y1804756D01*
X461396D01*
Y1797968D01*
X316759D01*
X316026Y1798701D01*
X313821Y1799615D01*
X311434D01*
X309228Y1798701D01*
X307541Y1797014D01*
X306627Y1794808D01*
Y1792421D01*
X307541Y1790216D01*
X309228Y1788528D01*
X311434Y1787615D01*
X313821D01*
X316026Y1788528D01*
X316759Y1789261D01*
X461396D01*
Y1748468D01*
X425517D01*
X424649Y1749337D01*
X422444Y1750250D01*
X420056D01*
X417851Y1749337D01*
X416163Y1747649D01*
X415250Y1745443D01*
Y1743056D01*
X416163Y1740851D01*
X417851Y1739163D01*
X420056Y1738250D01*
X422444D01*
X424649Y1739163D01*
X425247Y1739761D01*
X461396D01*
Y1736219D01*
X205767D01*
X204899Y1737086D01*
X202694Y1738000D01*
X200306D01*
X198101Y1737086D01*
X196413Y1735399D01*
X195500Y1733193D01*
Y1730806D01*
X196413Y1728601D01*
X198101Y1726913D01*
X200306Y1726000D01*
X202694D01*
X204899Y1726913D01*
X205497Y1727511D01*
X461396D01*
Y1690854D01*
X420250D01*
X418584Y1690522D01*
X417172Y1689579D01*
X372312Y1644718D01*
X51259D01*
X50526Y1645451D01*
X48321Y1646365D01*
X45934D01*
X43728Y1645451D01*
X42041Y1643764D01*
X41127Y1641558D01*
Y1639171D01*
X42041Y1636966D01*
X43728Y1635278D01*
X45934Y1634365D01*
X48321D01*
X50526Y1635278D01*
X51259Y1636011D01*
X374115D01*
X375781Y1636343D01*
X377193Y1637286D01*
X422053Y1682146D01*
X461396D01*
Y1649303D01*
X456297Y1644203D01*
X456297Y1644203D01*
X440421Y1628329D01*
X411297Y1599203D01*
X355299Y1543206D01*
X354355Y1541793D01*
X354024Y1540127D01*
Y1503854D01*
X137738D01*
X136072Y1503522D01*
X134659Y1502578D01*
X133172Y1501091D01*
X132228Y1499678D01*
X131896Y1498012D01*
Y1488041D01*
X125970Y1482115D01*
X124934D01*
X122728Y1481201D01*
X121041Y1479514D01*
X120127Y1477308D01*
Y1474921D01*
X121041Y1472716D01*
X122728Y1471028D01*
X124934Y1470115D01*
X127321D01*
X129526Y1471028D01*
X131214Y1472716D01*
X132127Y1474921D01*
Y1475958D01*
X139328Y1483159D01*
X140272Y1484572D01*
X140604Y1486238D01*
Y1495146D01*
X354024D01*
Y1471854D01*
X191882D01*
X191149Y1472587D01*
X188944Y1473500D01*
X186556D01*
X184351Y1472587D01*
X182663Y1470899D01*
X181750Y1468694D01*
Y1466306D01*
X182663Y1464101D01*
X184351Y1462413D01*
X186556Y1461500D01*
X188944D01*
X191149Y1462413D01*
X191882Y1463146D01*
X356524D01*
X358190Y1463478D01*
X359603Y1464422D01*
X361456Y1466274D01*
X362399Y1467687D01*
X362731Y1469353D01*
Y1538324D01*
X414375Y1589968D01*
X432307Y1572036D01*
X433719Y1571093D01*
X435385Y1570761D01*
X442245D01*
X442978Y1570028D01*
X445184Y1569115D01*
X447571D01*
X449776Y1570028D01*
X451464Y1571716D01*
X452377Y1573921D01*
Y1576308D01*
X451464Y1578514D01*
X449776Y1580201D01*
X447571Y1581115D01*
X445184D01*
X442978Y1580201D01*
X442245Y1579469D01*
X437188D01*
X420532Y1596125D01*
X443500Y1619093D01*
X480274Y1582319D01*
Y1540497D01*
X479541Y1539764D01*
X478627Y1537558D01*
Y1535171D01*
X479541Y1532966D01*
X481228Y1531278D01*
X483434Y1530365D01*
X485821D01*
X488026Y1531278D01*
X489714Y1532966D01*
X490627Y1535171D01*
Y1537558D01*
X489714Y1539764D01*
X488981Y1540497D01*
Y1584123D01*
X488649Y1585789D01*
X487706Y1587201D01*
X449657Y1625250D01*
X459375Y1634968D01*
X487557Y1606786D01*
X488969Y1605843D01*
X490635Y1605511D01*
X507245D01*
X507978Y1604778D01*
X510184Y1603865D01*
X512571D01*
X514776Y1604778D01*
X516464Y1606466D01*
X517377Y1608671D01*
Y1611058D01*
X516464Y1613264D01*
X514776Y1614951D01*
X512571Y1615865D01*
X510184D01*
X507978Y1614951D01*
X507245Y1614218D01*
X492439D01*
X465532Y1641125D01*
X468829Y1644422D01*
X469772Y1645834D01*
X470104Y1647500D01*
Y1873654D01*
X470352Y1873749D01*
X471374Y1873866D01*
X472172Y1872672D01*
X519396Y1825447D01*
Y1594803D01*
X512421Y1587828D01*
X511478Y1586416D01*
X511146Y1584750D01*
Y1380604D01*
X490000D01*
X488743Y1380354D01*
X183988D01*
X182322Y1380022D01*
X180909Y1379078D01*
X179422Y1377590D01*
X178478Y1376178D01*
X178146Y1374512D01*
Y1326750D01*
X172000D01*
Y1323104D01*
X48000D01*
Y1326750D01*
X27000D01*
Y1310750D01*
X48000D01*
Y1314396D01*
X172000D01*
Y1310750D01*
X193000D01*
Y1326750D01*
X186854D01*
Y1371646D01*
X489750D01*
X491007Y1371896D01*
X514012D01*
X515678Y1372228D01*
X517091Y1373172D01*
X518578Y1374659D01*
X519522Y1376072D01*
X519854Y1377738D01*
Y1582947D01*
X526828Y1589922D01*
X527626Y1591116D01*
X528648Y1590999D01*
X528896Y1590904D01*
Y1585803D01*
X523172Y1580078D01*
X522228Y1578666D01*
X521896Y1577000D01*
Y1328303D01*
X521651Y1328058D01*
X520777Y1326750D01*
X508000D01*
Y1323104D01*
X384000D01*
Y1326750D01*
X363000D01*
Y1310750D01*
X384000D01*
Y1314396D01*
X508000D01*
Y1310750D01*
X529000D01*
Y1322059D01*
X529084Y1322480D01*
Y1323177D01*
X529328Y1323421D01*
X530272Y1324834D01*
X530604Y1326500D01*
Y1575197D01*
X536329Y1580921D01*
X537272Y1582334D01*
X537604Y1584000D01*
Y1839750D01*
X537272Y1841416D01*
X536329Y1842829D01*
X497854Y1881303D01*
Y1898957D01*
X498026Y1899028D01*
X499714Y1900716D01*
X500627Y1902921D01*
Y1905308D01*
X499714Y1907514D01*
X498026Y1909201D01*
X495821Y1910115D01*
X493434D01*
X491228Y1909201D01*
X489541Y1907514D01*
X488627Y1905308D01*
Y1902921D01*
X489146Y1901668D01*
Y1879500D01*
X489478Y1877834D01*
X490421Y1876422D01*
X528896Y1837947D01*
Y1829346D01*
X528648Y1829251D01*
X527626Y1829134D01*
X526828Y1830329D01*
X479604Y1877553D01*
Y1926868D01*
X480837Y1928101D01*
X481750Y1930307D01*
Y1932693D01*
X480837Y1934899D01*
X479359Y1936376D01*
X479591Y1937369D01*
X479748Y1937646D01*
X498896D01*
Y1919480D01*
X499228Y1917814D01*
X500172Y1916401D01*
X502036Y1914536D01*
X503449Y1913593D01*
X505115Y1913261D01*
X515995D01*
X516728Y1912528D01*
X518934Y1911615D01*
X521321D01*
X523526Y1912528D01*
X525214Y1914216D01*
X526127Y1916421D01*
Y1918808D01*
X525214Y1921014D01*
X523526Y1922701D01*
X521321Y1923615D01*
X518934D01*
X516728Y1922701D01*
X515995Y1921969D01*
X507604D01*
Y1940512D01*
X507272Y1942178D01*
X506329Y1943591D01*
X504841Y1945078D01*
X503428Y1946022D01*
X501762Y1946354D01*
D02*
G37*
G36*
X516250Y2077098D02*
X116343D01*
X114392Y2076710D01*
X112738Y2075605D01*
X111633Y2073951D01*
X111245Y2072000D01*
Y2070000D01*
X103200D01*
Y2049000D01*
X124200D01*
Y2066902D01*
X130015D01*
X130516Y2065632D01*
X129316Y2063553D01*
X128600Y2060882D01*
Y2058118D01*
X129316Y2055447D01*
X130698Y2053053D01*
X132653Y2051098D01*
X134746Y2049889D01*
Y1944380D01*
X135078Y1942714D01*
X136021Y1941301D01*
X142151Y1935172D01*
X143564Y1934228D01*
X145230Y1933896D01*
X391475D01*
X392728Y1932643D01*
X394934Y1931730D01*
X397321D01*
X399526Y1932643D01*
X401214Y1934331D01*
X402127Y1936537D01*
Y1938923D01*
X402087Y1939020D01*
X402198Y1939228D01*
X403611Y1940172D01*
X405189Y1941750D01*
X406693D01*
X408899Y1942663D01*
X410587Y1944351D01*
X410816Y1944906D01*
X412312Y1945199D01*
X413219Y1944593D01*
X414885Y1944261D01*
X426245D01*
X426978Y1943528D01*
X429184Y1942615D01*
X431571D01*
X433776Y1943528D01*
X435464Y1945216D01*
X436377Y1947421D01*
Y1947511D01*
X442995D01*
X443728Y1946778D01*
X445934Y1945865D01*
X448321D01*
X450526Y1946778D01*
X452214Y1948466D01*
X453127Y1950671D01*
Y1953058D01*
X452214Y1955264D01*
X452139Y1955338D01*
X452625Y1956511D01*
X455495D01*
X456228Y1955778D01*
X458434Y1954865D01*
X460821D01*
X463026Y1955778D01*
X464714Y1957466D01*
X465627Y1959671D01*
Y1962058D01*
X464714Y1964264D01*
X463026Y1965951D01*
X462625Y1966117D01*
X462595Y1966801D01*
X462751Y1967440D01*
X464776Y1968278D01*
X466464Y1969966D01*
X467377Y1972171D01*
Y1974558D01*
X466464Y1976764D01*
X464776Y1978451D01*
X462571Y1979365D01*
X460184D01*
X457978Y1978451D01*
X457245Y1977719D01*
X454684D01*
X454158Y1978988D01*
X456534Y1981365D01*
X457571D01*
X459776Y1982278D01*
X461464Y1983966D01*
X462377Y1986171D01*
Y1988558D01*
X461464Y1990764D01*
X459776Y1992451D01*
X457571Y1993365D01*
X455184D01*
X452978Y1992451D01*
X451291Y1990764D01*
X450377Y1988558D01*
Y1987522D01*
X448459Y1985604D01*
X409305D01*
X409053Y1986874D01*
X409149Y1986913D01*
X410836Y1988601D01*
X411750Y1990806D01*
Y1993193D01*
X410836Y1995399D01*
X409149Y1997086D01*
X406944Y1998000D01*
X404557D01*
X404511Y1997981D01*
X403837Y1999609D01*
X402149Y2001297D01*
X399944Y2002210D01*
X397556D01*
X395351Y2001297D01*
X394618Y2000564D01*
X349104D01*
Y2046400D01*
X348772Y2048066D01*
X347828Y2049478D01*
X346153Y2051153D01*
X344741Y2052097D01*
X343075Y2052429D01*
X304378D01*
X301024Y2055783D01*
X301650Y2058118D01*
Y2060882D01*
X300934Y2063553D01*
X299734Y2065632D01*
X300235Y2066902D01*
X356350D01*
Y2049000D01*
X377350D01*
Y2066902D01*
X383165D01*
X383666Y2065632D01*
X382466Y2063553D01*
X381750Y2060882D01*
Y2058118D01*
X382466Y2055447D01*
X383848Y2053053D01*
X385803Y2051098D01*
X387896Y2049889D01*
Y2039660D01*
X384422Y2036186D01*
X383478Y2034773D01*
X383146Y2033107D01*
Y2026132D01*
X382413Y2025399D01*
X381500Y2023193D01*
Y2020806D01*
X381107Y2020219D01*
X375259D01*
X374526Y2020951D01*
X372321Y2021865D01*
X369934D01*
X367728Y2020951D01*
X366041Y2019264D01*
X365127Y2017058D01*
Y2014671D01*
X366041Y2012466D01*
X367728Y2010778D01*
X369934Y2009865D01*
X372321D01*
X374526Y2010778D01*
X375259Y2011511D01*
X397115D01*
X398781Y2011843D01*
X400193Y2012786D01*
X420728Y2033321D01*
X421672Y2034734D01*
X422004Y2036400D01*
Y2049889D01*
X424097Y2051098D01*
X426052Y2053053D01*
X427434Y2055447D01*
X428150Y2058118D01*
Y2060882D01*
X427434Y2063553D01*
X426234Y2065632D01*
X426735Y2066902D01*
X514138D01*
X538529Y2042511D01*
Y1874486D01*
X537627Y1872308D01*
Y1869921D01*
X538541Y1867716D01*
X540228Y1866028D01*
X542434Y1865115D01*
X544821D01*
X547026Y1866028D01*
X548714Y1867716D01*
X549627Y1869921D01*
Y1872308D01*
X548725Y1874486D01*
Y2044623D01*
X548337Y2046574D01*
X547232Y2048228D01*
X519855Y2075605D01*
X518201Y2076710D01*
X516250Y2077098D01*
D02*
G37*
%LPD*%
G36*
X257166Y2065632D02*
X255966Y2063553D01*
X255250Y2060882D01*
Y2058118D01*
X255966Y2055447D01*
X257348Y2053053D01*
X259303Y2051098D01*
X261697Y2049716D01*
X264368Y2049000D01*
X267132D01*
X269467Y2049626D01*
X279422Y2039671D01*
X280834Y2038728D01*
X282500Y2038396D01*
X334197D01*
X335146Y2037447D01*
Y1993488D01*
X335478Y1991822D01*
X336422Y1990409D01*
X339219Y1987612D01*
X340324Y1986874D01*
X339967Y1985604D01*
X260803D01*
X257901Y1988506D01*
Y1989041D01*
X256987Y1991246D01*
X255299Y1992934D01*
X253094Y1993848D01*
X250707D01*
X248502Y1992934D01*
X246814Y1991246D01*
X245900Y1989041D01*
Y1986654D01*
X246814Y1984449D01*
X248502Y1982761D01*
X248914Y1982590D01*
X249162Y1981345D01*
X248314Y1980497D01*
X247400Y1978291D01*
Y1975904D01*
X248314Y1973699D01*
X250002Y1972011D01*
X251122Y1971548D01*
X250250Y1969444D01*
Y1967056D01*
X251163Y1964851D01*
X252851Y1963163D01*
X253321Y1962969D01*
X253000Y1962193D01*
Y1959807D01*
X253913Y1957601D01*
X255601Y1955913D01*
X255827Y1954690D01*
X255000Y1952693D01*
Y1950307D01*
X255593Y1948874D01*
X254752Y1947604D01*
X239000D01*
Y2039250D01*
X218000D01*
Y1947604D01*
X152303D01*
X150604Y1949303D01*
Y2043896D01*
X162207D01*
X162834Y2043478D01*
X164500Y2043146D01*
X166166Y2043478D01*
X167579Y2044422D01*
X168522Y2045834D01*
X168854Y2047500D01*
Y2049889D01*
X170947Y2051098D01*
X172902Y2053053D01*
X174284Y2055447D01*
X175000Y2058118D01*
Y2060882D01*
X174284Y2063553D01*
X173084Y2065632D01*
X173585Y2066902D01*
X229850D01*
Y2049000D01*
X250850D01*
Y2066902D01*
X256665D01*
X257166Y2065632D01*
D02*
G37*
D30*
X1481250Y1328500D02*
D03*
X1466250D02*
D03*
X1476250D02*
D03*
X1471250D02*
D03*
X1451250D02*
D03*
X1486250D02*
D03*
X1496250D02*
D03*
X1491250D02*
D03*
X1501250D02*
D03*
X1506250D02*
D03*
X1456250D02*
D03*
X1461250D02*
D03*
X878250Y1328500D02*
D03*
X863250D02*
D03*
X873250D02*
D03*
X868250D02*
D03*
X848250D02*
D03*
X883250D02*
D03*
X893250D02*
D03*
X888250D02*
D03*
X898250D02*
D03*
X903250D02*
D03*
X853250D02*
D03*
X858250D02*
D03*
X283000Y1328500D02*
D03*
X268000D02*
D03*
X278000D02*
D03*
X273000D02*
D03*
X253000D02*
D03*
X288000D02*
D03*
X298000D02*
D03*
X293000D02*
D03*
X303000D02*
D03*
X308000D02*
D03*
X258000D02*
D03*
X263000D02*
D03*
D33*
X1600510Y1991426D02*
G03*
X1599679Y1991083I0J-1177D01*
G01*
X1664000Y1744115D02*
X1618885D01*
X1618501Y1744498D01*
X1663262Y1731865D02*
X1399635D01*
X1399156Y1732344D01*
X1664000Y1731865D02*
Y1744115D01*
Y1686500D02*
Y1731865D01*
X1554989Y1467715D02*
X1386465D01*
X1554989D02*
X1556627Y1469353D01*
Y1499250D01*
X1457250Y1981250D02*
X1450750Y1987750D01*
X1536928Y1968250D02*
X1454500D01*
X1536928D02*
X1540718Y1972040D01*
X1622210D02*
X1540718D01*
X1633385Y1960865D02*
X1622210Y1972040D01*
X1538742Y1960500D02*
X1457750D01*
X1457250Y1961000D01*
X1538742Y1960500D02*
X1540742Y1962500D01*
X1527468Y1951500D02*
X1531218Y1955250D01*
X1527468Y1951500D02*
X1459250D01*
X1622549Y1962500D02*
X1540742D01*
X1633184Y1951865D02*
X1622549Y1962500D01*
X1606500Y1955250D02*
X1531218D01*
X1348750Y1943250D02*
X1344500Y1947500D01*
X1593857Y1938250D02*
X1343480D01*
X1594377Y1937730D02*
X1593857Y1938250D01*
X1598782Y1943250D02*
X1603282Y1947750D01*
X1598782Y1943250D02*
X1348750D01*
X1603750Y1947750D02*
X1603282D01*
X1344500Y1947500D02*
Y2046762D01*
X1343480Y1938250D02*
X1337350Y1944380D01*
X1642790Y1976460D02*
X1452250D01*
X1648512Y1981250D02*
X1457250D01*
X1648512D02*
X1654627Y1987365D01*
X1645885Y1973365D02*
X1642790Y1976460D01*
X1603426Y1991426D02*
X1600510D01*
X1599286Y1990690D02*
X1599679Y1991083D01*
X1540548Y1990690D02*
X1537750Y1993488D01*
X1603426Y1991426D02*
X1604000Y1992000D01*
X1599286Y1990690D02*
X1540548D01*
X1613135Y1948615D02*
X1606500Y1955250D01*
X1537750Y1993488D02*
Y2039250D01*
X1544488Y1996210D02*
X1543000Y1997698D01*
Y2046400D01*
X1597000Y1996210D02*
X1544488D01*
X1659627Y1973365D02*
X1645885D01*
X1657877Y1960865D02*
X1633385D01*
X1645377Y1951865D02*
X1633184D01*
X1628627Y1948615D02*
X1613135D01*
X1362750Y2047500D02*
Y2059500D01*
X1344500Y2046762D02*
X1345988Y2048250D01*
X1362000D02*
X1345988D01*
X1362750Y2047500D02*
X1362000Y2048250D01*
X1615900Y2036400D02*
Y2059500D01*
X1595365Y2015865D02*
X1569377D01*
X1595365D02*
X1615900Y2036400D01*
X1585750Y2022000D02*
Y2033107D01*
X1590500Y2037857D01*
Y2059500D01*
X1480750Y2042750D02*
X1464000Y2059500D01*
X1537750Y2039250D02*
X1534250Y2042750D01*
X1480750D01*
X1500825Y2048075D02*
X1489400Y2059500D01*
X1543000Y2046400D02*
X1541325Y2048075D01*
X1500825D01*
X1337350Y1944380D02*
Y2059500D01*
X1664000Y1647500D02*
Y1686500D01*
X1618500D01*
X1572365Y1640365D02*
X1245377D01*
X1572365D02*
X1618500Y1686500D01*
X1556627Y1499250D02*
Y1540127D01*
X1334500Y1486238D02*
Y1498012D01*
X1335988Y1499500D01*
X1556377D02*
X1335988D01*
X1556627Y1499250D02*
X1556377Y1499500D01*
X1324377Y1476115D02*
X1334500Y1486238D01*
X1657625Y1641125D02*
X1664000Y1647500D01*
X1641750Y1625250D02*
X1657625Y1641125D01*
X1709627Y1609865D02*
X1688885D01*
X1657625Y1641125D01*
X1612625Y1596125D02*
X1641750Y1625250D01*
X1682877Y1536365D02*
Y1584123D01*
X1641750Y1625250D01*
X1556627Y1540127D02*
X1612625Y1596125D01*
X1644627Y1575115D02*
X1633635D01*
X1612625Y1596125D01*
X1664000Y1744115D02*
Y1793750D01*
Y1809000D02*
Y1939500D01*
Y1793750D02*
Y1809000D01*
X1663890Y1809110D02*
X1478688D01*
X1664000Y1809000D02*
X1663890Y1809110D01*
X1663865Y1793615D02*
X1510877D01*
X1663865D02*
X1664000Y1793750D01*
X1701500Y1919480D02*
Y1940512D01*
X1700012Y1942000D01*
X1666500D01*
X1664000Y1939500D02*
X1666500Y1942000D01*
X1703365Y1917615D02*
X1701500Y1919480D01*
X1718377Y1917615D02*
X1703365D01*
X1691750Y1879500D02*
Y1903000D01*
X1692750Y1904000D01*
X1731500Y1839750D02*
X1691750Y1879500D01*
X1724500Y1577000D02*
X1731500Y1584000D01*
Y1839750D01*
X1724500Y1326500D02*
Y1577000D01*
X1719250Y1318750D02*
X1716750D01*
X1719250D02*
X1722980Y1322480D01*
Y1324980D01*
X1724500Y1326500D01*
X1673500Y1875750D02*
Y1931000D01*
X1674000Y1931500D01*
X1722000Y1593000D02*
Y1827250D01*
X1673500Y1875750D01*
X1713750Y1584750D02*
X1722000Y1593000D01*
X1712262Y1376250D02*
X1688250D01*
X1712262D02*
X1713750Y1377738D01*
Y1584750D01*
X1688000Y1376000D02*
X1688250Y1376250D01*
X1688000Y1376000D02*
X1382238D01*
X1380750Y1374512D02*
X1382238Y1376000D01*
X1380750Y1318750D02*
Y1374512D01*
Y1318750D02*
X1235750D01*
X1716750D02*
X1571750D01*
X1399500Y1335000D02*
Y1352262D01*
X1484762Y1353750D02*
X1400988D01*
X1399500Y1352262D02*
X1400988Y1353750D01*
X1486250Y1328500D02*
Y1352262D01*
X1484762Y1353750D01*
X1469762Y1343000D02*
X1415738D01*
X1414250Y1341512D02*
X1415738Y1343000D01*
X1414250Y1335500D02*
Y1341512D01*
X1471250Y1328500D02*
Y1341512D01*
X1469762Y1343000D01*
X997510Y1991426D02*
G03*
X996679Y1991083I0J-1177D01*
G01*
X951274Y1467000D02*
X952139Y1467865D01*
X951274Y1467000D02*
X783500D01*
X952139Y1467865D02*
X952883Y1468609D01*
X952883Y1468609D02*
X953627Y1469353D01*
X796635Y1731865D02*
X796500Y1732000D01*
X1060262Y1731865D02*
X796635D01*
X1016885Y1744115D02*
X1016250Y1744750D01*
X1061000Y1744115D02*
X1016885D01*
X1061000Y1686500D02*
Y1731865D01*
Y1744115D01*
X953627Y1469353D02*
Y1499250D01*
X854250Y1981250D02*
X847750Y1987750D01*
X933928Y1968250D02*
X851500D01*
X933928D02*
X937718Y1972040D01*
X1019210D02*
X937718D01*
X1030385Y1960865D02*
X1019210Y1972040D01*
X935742Y1960500D02*
X854750D01*
X854250Y1961000D01*
X935742Y1960500D02*
X937742Y1962500D01*
X924468Y1951500D02*
X928218Y1955250D01*
X924468Y1951500D02*
X856250D01*
X1019548Y1962500D02*
X937742D01*
X1030184Y1951865D02*
X1019548Y1962500D01*
X1003500Y1955250D02*
X928218D01*
X745750Y1943250D02*
X741500Y1947500D01*
X990857Y1938250D02*
X740480D01*
X991377Y1937730D02*
X990857Y1938250D01*
X995782Y1943250D02*
X1000282Y1947750D01*
X995782Y1943250D02*
X745750D01*
X1000750Y1947750D02*
X1000282D01*
X741500Y1947500D02*
Y2046762D01*
X740480Y1938250D02*
X734350Y1944380D01*
X1039790Y1976460D02*
X849250D01*
X1045512Y1981250D02*
X854250D01*
X1045512D02*
X1051627Y1987365D01*
X1042885Y1973365D02*
X1039790Y1976460D01*
X1000426Y1991426D02*
X997510D01*
X996286Y1990690D02*
X996679Y1991083D01*
X937548Y1990690D02*
X934750Y1993488D01*
X1000426Y1991426D02*
X1001000Y1992000D01*
X996286Y1990690D02*
X937548D01*
X1010135Y1948615D02*
X1003500Y1955250D01*
X934750Y1993488D02*
Y2039250D01*
X941488Y1996210D02*
X940000Y1997698D01*
Y2046400D01*
X994000Y1996210D02*
X941488D01*
X1056627Y1973365D02*
X1042885D01*
X1054877Y1960865D02*
X1030385D01*
X1042377Y1951865D02*
X1030184D01*
X1025627Y1948615D02*
X1010135D01*
X759750Y2047500D02*
Y2059500D01*
X741500Y2046762D02*
X742988Y2048250D01*
X759000D02*
X742988D01*
X759750Y2047500D02*
X759000Y2048250D01*
X1012900Y2036400D02*
Y2059500D01*
X992365Y2015865D02*
X966377D01*
X992365D02*
X1012900Y2036400D01*
X982750Y2022000D02*
Y2033107D01*
X987500Y2037857D01*
Y2059500D01*
X877750Y2042750D02*
X861000Y2059500D01*
X934750Y2039250D02*
X931250Y2042750D01*
X877750D01*
X897825Y2048075D02*
X886400Y2059500D01*
X940000Y2046400D02*
X938325Y2048075D01*
X897825D01*
X734350Y1944380D02*
Y2059500D01*
X1061000Y1647500D02*
Y1686500D01*
X1015500D01*
X969365Y1640365D02*
X642377D01*
X969365D02*
X1015500Y1686500D01*
X953627Y1499250D02*
Y1540127D01*
X731500Y1486238D02*
Y1498012D01*
X732988Y1499500D01*
X953377D02*
X732988D01*
X953627Y1499250D02*
X953377Y1499500D01*
X721377Y1476115D02*
X731500Y1486238D01*
X1054625Y1641125D02*
X1061000Y1647500D01*
X1038750Y1625250D02*
X1054625Y1641125D01*
X1106627Y1609865D02*
X1085885D01*
X1054625Y1641125D01*
X1009625Y1596125D02*
X1038750Y1625250D01*
X1079877Y1536365D02*
Y1584123D01*
X1038750Y1625250D01*
X953627Y1540127D02*
X1009625Y1596125D01*
X1041627Y1575115D02*
X1030635D01*
X1009625Y1596125D01*
X1061000Y1744115D02*
Y1793750D01*
Y1809000D02*
Y1939500D01*
Y1793750D02*
Y1809000D01*
X1060890Y1809110D02*
X875688D01*
X1061000Y1809000D02*
X1060890Y1809110D01*
X1060865Y1793615D02*
X907877D01*
X1060865D02*
X1061000Y1793750D01*
X1098500Y1919480D02*
Y1940512D01*
X1097012Y1942000D01*
X1063500D01*
X1061000Y1939500D02*
X1063500Y1942000D01*
X1100365Y1917615D02*
X1098500Y1919480D01*
X1115377Y1917615D02*
X1100365D01*
X1088750Y1879500D02*
Y1903000D01*
X1089750Y1904000D01*
X1128500Y1839750D02*
X1088750Y1879500D01*
X1121500Y1577000D02*
X1128500Y1584000D01*
Y1839750D01*
X1121500Y1326500D02*
Y1577000D01*
X1116250Y1318750D02*
X1113750D01*
X1116250D02*
X1119980Y1322480D01*
Y1324980D01*
X1121500Y1326500D01*
X1070500Y1875750D02*
Y1931000D01*
X1071000Y1931500D01*
X1119000Y1593000D02*
Y1827250D01*
X1070500Y1875750D01*
X1110750Y1584750D02*
X1119000Y1593000D01*
X1109262Y1376250D02*
X1085250D01*
X1109262D02*
X1110750Y1377738D01*
Y1584750D01*
X1085000Y1376000D02*
X1085250Y1376250D01*
X1085000Y1376000D02*
X779238D01*
X777750Y1374512D02*
X779238Y1376000D01*
X777750Y1318750D02*
Y1374512D01*
Y1318750D02*
X632750D01*
X1113750D02*
X968750D01*
X796500Y1335000D02*
Y1352262D01*
X881762Y1353750D02*
X797988D01*
X796500Y1352262D02*
X797988Y1353750D01*
X883250Y1328500D02*
Y1352262D01*
X881762Y1353750D01*
X866762Y1343000D02*
X812738D01*
X811250Y1341512D02*
X812738Y1343000D01*
X811250Y1335500D02*
Y1341512D01*
X868250Y1328500D02*
Y1341512D01*
X866762Y1343000D01*
X402260Y1991426D02*
G03*
X401429Y1991083I0J-1177D01*
G01*
X356524Y1467500D02*
X187750D01*
X356524D02*
X358377Y1469353D01*
X465012Y1731865D02*
X201635D01*
X201500Y1732000D01*
X523750Y1593000D02*
Y1827250D01*
X475250Y1875750D01*
X515500Y1584750D02*
X523750Y1593000D01*
X465750Y1686500D02*
Y1731865D01*
Y1744115D01*
X421385D01*
X421250Y1744250D01*
X358377Y1469353D02*
Y1499250D01*
X259000Y1981250D02*
X252500Y1987750D01*
X338678Y1968250D02*
X256250D01*
X338678D02*
X342468Y1972040D01*
X423960D02*
X342468D01*
X435135Y1960865D02*
X423960Y1972040D01*
X340492Y1960500D02*
X259500D01*
X259000Y1961000D01*
X340492Y1960500D02*
X342492Y1962500D01*
X329218Y1951500D02*
X332968Y1955250D01*
X329218Y1951500D02*
X261000D01*
X424299Y1962500D02*
X342492D01*
X434934Y1951865D02*
X424299Y1962500D01*
X408250Y1955250D02*
X332968D01*
X150500Y1943250D02*
X146250Y1947500D01*
X395607Y1938250D02*
X145230D01*
X396127Y1937730D02*
X395607Y1938250D01*
X400532Y1943250D02*
X405032Y1947750D01*
X400532Y1943250D02*
X150500D01*
X405500Y1947750D02*
X405032D01*
X146250Y1947500D02*
Y2046762D01*
X145230Y1938250D02*
X139100Y1944380D01*
X444540Y1976460D02*
X254000D01*
X450262Y1981250D02*
X259000D01*
X450262D02*
X456377Y1987365D01*
X447635Y1973365D02*
X444540Y1976460D01*
X405176Y1991426D02*
X402260D01*
X401036Y1990690D02*
X401429Y1991083D01*
X342298Y1990690D02*
X339500Y1993488D01*
X405176Y1991426D02*
X405750Y1992000D01*
X401036Y1990690D02*
X342298D01*
X414885Y1948615D02*
X408250Y1955250D01*
X339500Y1993488D02*
Y2039250D01*
X346238Y1996210D02*
X344750Y1997698D01*
Y2046400D01*
X398750Y1996210D02*
X346238D01*
X461377Y1973365D02*
X447635D01*
X459627Y1960865D02*
X435135D01*
X447127Y1951865D02*
X434934D01*
X430377Y1948615D02*
X414885D01*
X164500Y2047500D02*
Y2059500D01*
X146250Y2046762D02*
X147738Y2048250D01*
X163750D02*
X147738D01*
X164500Y2047500D02*
X163750Y2048250D01*
X417650Y2036400D02*
Y2059500D01*
X397115Y2015865D02*
X371127D01*
X397115D02*
X417650Y2036400D01*
X387500Y2022000D02*
Y2033107D01*
X392250Y2037857D01*
Y2059500D01*
X282500Y2042750D02*
X265750Y2059500D01*
X339500Y2039250D02*
X336000Y2042750D01*
X282500D01*
X302575Y2048075D02*
X291150Y2059500D01*
X344750Y2046400D02*
X343075Y2048075D01*
X302575D01*
X139100Y1944380D02*
Y2059500D01*
X465750Y1647500D02*
Y1686500D01*
X420250D01*
X374115Y1640365D02*
X47127D01*
X374115D02*
X420250Y1686500D01*
X358377Y1499250D02*
Y1540127D01*
X136250Y1486238D02*
Y1498012D01*
X137738Y1499500D01*
X358127D02*
X137738D01*
X358377Y1499250D02*
X358127Y1499500D01*
X126127Y1476115D02*
X136250Y1486238D01*
X459375Y1641125D02*
X465750Y1647500D01*
X443500Y1625250D02*
X459375Y1641125D01*
X511377Y1609865D02*
X490635D01*
X459375Y1641125D01*
X414375Y1596125D02*
X443500Y1625250D01*
X484627Y1536365D02*
Y1584123D01*
X443500Y1625250D01*
X358377Y1540127D02*
X414375Y1596125D01*
X446377Y1575115D02*
X435385D01*
X414375Y1596125D01*
X465750Y1744115D02*
Y1793750D01*
Y1809000D02*
Y1939500D01*
Y1793750D02*
Y1809000D01*
X465640Y1809110D02*
X280438D01*
X465750Y1809000D02*
X465640Y1809110D01*
X465615Y1793615D02*
X312627D01*
X465615D02*
X465750Y1793750D01*
X503250Y1919480D02*
Y1940512D01*
X501762Y1942000D01*
X468250D01*
X465750Y1939500D02*
X468250Y1942000D01*
X505115Y1917615D02*
X503250Y1919480D01*
X520127Y1917615D02*
X505115D01*
X493500Y1879500D02*
Y1903000D01*
X494500Y1904000D01*
X533250Y1839750D02*
X493500Y1879500D01*
X526250Y1577000D02*
X533250Y1584000D01*
Y1839750D01*
X526250Y1326500D02*
Y1577000D01*
X521000Y1318750D02*
X518500D01*
X521000D02*
X524730Y1322480D01*
Y1324980D01*
X526250Y1326500D01*
X475250Y1875750D02*
Y1931000D01*
X475750Y1931500D01*
X514012Y1376250D02*
X490000D01*
X514012D02*
X515500Y1377738D01*
Y1584750D01*
X489750Y1376000D02*
X490000Y1376250D01*
X489750Y1376000D02*
X183988D01*
X182500Y1374512D02*
X183988Y1376000D01*
X182500Y1318750D02*
Y1374512D01*
Y1318750D02*
X37500D01*
X518500D02*
X373500D01*
X201250Y1335000D02*
Y1352262D01*
X286512Y1353750D02*
X202738D01*
X201250Y1352262D02*
X202738Y1353750D01*
X288000Y1328500D02*
Y1352262D01*
X286512Y1353750D01*
X271512Y1343000D02*
X217488D01*
X216000Y1341512D02*
X217488Y1343000D01*
X216000Y1335500D02*
Y1341512D01*
X273000Y1328500D02*
Y1341512D01*
X271512Y1343000D01*
D34*
X1741877Y2044623D02*
X1714500Y2072000D01*
X1741877Y1871115D02*
Y2044623D01*
X1488907Y1313750D02*
X1479127D01*
X1478877Y1314000D01*
Y1313750D02*
X1468593D01*
X1488907D02*
X1491250Y1316093D01*
X1466250D02*
Y1328500D01*
X1491250Y1316093D02*
Y1328500D01*
X1468593Y1313750D02*
X1466250Y1316093D01*
Y1328500D02*
X1466250Y1328500D01*
X1714500Y2072000D02*
X1567443D01*
X1440943D02*
X1314593D01*
X1311950Y2059500D02*
X1314593Y2062143D01*
Y2072000D01*
X1567443D02*
X1440943D01*
X1438600Y2059500D02*
X1440943Y2061843D01*
Y2072000D01*
X1565100Y2059500D02*
X1567443Y2061843D01*
Y2072000D01*
X1138877Y2044623D02*
X1111500Y2072000D01*
X1138877Y1871115D02*
Y2044623D01*
X885907Y1313750D02*
X876127D01*
X875877Y1314000D01*
Y1313750D02*
X865593D01*
X885907D02*
X888250Y1316093D01*
X863250D02*
Y1328500D01*
X888250Y1316093D02*
Y1328500D01*
X865593Y1313750D02*
X863250Y1316093D01*
Y1328500D02*
X863250Y1328500D01*
X1111500Y2072000D02*
X964443D01*
X837943D02*
X711593D01*
X708950Y2059500D02*
X711593Y2062143D01*
Y2072000D01*
X964443D02*
X837943D01*
X835600Y2059500D02*
X837943Y2061843D01*
Y2072000D01*
X962100Y2059500D02*
X964443Y2061843D01*
Y2072000D01*
X543627Y2044623D02*
X516250Y2072000D01*
X543627Y1871115D02*
Y2044623D01*
X290657Y1313750D02*
X280877D01*
X280627Y1314000D01*
Y1313750D02*
X270343D01*
X290657D02*
X293000Y1316093D01*
X268000D02*
Y1328500D01*
X293000Y1316093D02*
Y1328500D01*
X270343Y1313750D02*
X268000Y1316093D01*
Y1328500D02*
X268000Y1328500D01*
X516250Y2072000D02*
X369193D01*
X242693D02*
X116343D01*
X113700Y2059500D02*
X116343Y2062143D01*
Y2072000D01*
X369193D02*
X242693D01*
X240350Y2059500D02*
X242693Y2061843D01*
Y2072000D01*
X366850Y2059500D02*
X369193Y2061843D01*
Y2072000D01*
D35*
X1712000Y1235000D02*
D03*
X1558500D02*
D03*
X1393250D02*
D03*
X1242250D02*
D03*
X1109000Y1235000D02*
D03*
X955500D02*
D03*
X790250D02*
D03*
X639250D02*
D03*
X513750Y1235000D02*
D03*
X360250D02*
D03*
X195000D02*
D03*
X44000D02*
D03*
D36*
X1426750Y1991250D02*
D03*
X823750Y1991250D02*
D03*
X228500Y1991250D02*
D03*
D37*
X1503750Y1208000D02*
D03*
X1448750D02*
D03*
X900750Y1208000D02*
D03*
X845750D02*
D03*
X305500Y1208000D02*
D03*
X250500D02*
D03*
D38*
X1478750Y1220750D02*
D03*
X1338750Y1214750D02*
D03*
X1494750D02*
D03*
X1656750D02*
D03*
X1613750D02*
D03*
X1297750D02*
D03*
X1457750D02*
D03*
X875750Y1220750D02*
D03*
X735750Y1214750D02*
D03*
X891750D02*
D03*
X1053750D02*
D03*
X1010750D02*
D03*
X694750D02*
D03*
X854750D02*
D03*
X280500Y1220750D02*
D03*
X140500Y1214750D02*
D03*
X296500D02*
D03*
X458500D02*
D03*
X415500D02*
D03*
X99500D02*
D03*
X259500D02*
D03*
D39*
X1696750Y1224750D02*
D03*
X1256750D02*
D03*
X1726750D02*
D03*
X1226750D02*
D03*
X1378750D02*
D03*
X1573750D02*
D03*
X1543750D02*
D03*
X1408750D02*
D03*
X1093750Y1224750D02*
D03*
X653750D02*
D03*
X1123750D02*
D03*
X623750D02*
D03*
X775750D02*
D03*
X970750D02*
D03*
X940750D02*
D03*
X805750D02*
D03*
X498500Y1224750D02*
D03*
X58500D02*
D03*
X528500D02*
D03*
X28500D02*
D03*
X180500D02*
D03*
X375500D02*
D03*
X345500D02*
D03*
X210500D02*
D03*
D40*
X1513250Y1262750D02*
D03*
X1518750Y1262500D02*
D03*
X1508250Y1263750D02*
D03*
X1504250Y1263250D02*
D03*
X1496000Y1262000D02*
D03*
X1489500Y1263250D02*
D03*
X1481250Y1264000D02*
D03*
X1477750Y1263750D02*
D03*
X1470000Y1263500D02*
D03*
X1461000Y1263750D02*
D03*
X1452500D02*
D03*
X1445500Y1264500D02*
D03*
X1438750D02*
D03*
X910250Y1262750D02*
D03*
X915750Y1262500D02*
D03*
X905250Y1263750D02*
D03*
X901250Y1263250D02*
D03*
X893000Y1262000D02*
D03*
X886500Y1263250D02*
D03*
X878250Y1264000D02*
D03*
X874750Y1263750D02*
D03*
X867000Y1263500D02*
D03*
X858000Y1263750D02*
D03*
X849500D02*
D03*
X842500Y1264500D02*
D03*
X835750D02*
D03*
X315000Y1262750D02*
D03*
X320500Y1262500D02*
D03*
X310000Y1263750D02*
D03*
X306000Y1263250D02*
D03*
X297750Y1262000D02*
D03*
X291250Y1263250D02*
D03*
X283000Y1264000D02*
D03*
X279500Y1263750D02*
D03*
X271750Y1263500D02*
D03*
X262750Y1263750D02*
D03*
X254250D02*
D03*
X247250Y1264500D02*
D03*
X240500D02*
D03*
D41*
X1590500Y2059500D02*
D03*
X1337350D02*
D03*
X1362750D02*
D03*
X1388150D02*
D03*
X1641300D02*
D03*
X1615900D02*
D03*
X1514800D02*
D03*
X1489400D02*
D03*
X1464000D02*
D03*
X987500Y2059500D02*
D03*
X734350D02*
D03*
X759750D02*
D03*
X785150D02*
D03*
X1038300D02*
D03*
X1012900D02*
D03*
X911800D02*
D03*
X886400D02*
D03*
X861000D02*
D03*
X392250Y2059500D02*
D03*
X139100D02*
D03*
X164500D02*
D03*
X189900D02*
D03*
X443050D02*
D03*
X417650D02*
D03*
X316550D02*
D03*
X291150D02*
D03*
X265750D02*
D03*
D42*
X1311950D02*
D03*
X1565100D02*
D03*
X1438600D02*
D03*
X708950Y2059500D02*
D03*
X962100D02*
D03*
X835600D02*
D03*
X113700Y2059500D02*
D03*
X366850D02*
D03*
X240350D02*
D03*
D43*
X1478750Y1304750D02*
D03*
X875750Y1304750D02*
D03*
X280500Y1304750D02*
D03*
D44*
X1435600Y1322500D02*
D03*
X1521900D02*
D03*
X832600Y1322500D02*
D03*
X918900D02*
D03*
X237350Y1322500D02*
D03*
X323650D02*
D03*
D45*
X1478750Y1264500D02*
D03*
X875750Y1264500D02*
D03*
X280500Y1264500D02*
D03*
D46*
X1716250Y1602000D02*
D03*
X1618501Y1744498D02*
D03*
X1399156Y1732344D02*
D03*
X1397371Y1739371D02*
D03*
X1386465Y1467715D02*
D03*
X1361750Y1993750D02*
D03*
X1521750Y2003750D02*
D03*
X1450150Y1987848D02*
D03*
X1451651Y1977098D02*
D03*
X1454500Y1968250D02*
D03*
X1457250Y1961000D02*
D03*
X1459250Y1951500D02*
D03*
X1594377Y1937730D02*
D03*
X1597000Y1996210D02*
D03*
X1604000Y1992000D02*
D03*
X1478877Y1314000D02*
D03*
X1654627Y1987365D02*
D03*
X1659627Y1973365D02*
D03*
X1603750Y1947750D02*
D03*
X1657877Y1960865D02*
D03*
X1645377Y1951865D02*
D03*
X1628627Y1948615D02*
D03*
X1569377Y2015865D02*
D03*
X1585750Y2022000D02*
D03*
X1741877Y1871115D02*
D03*
X1652127Y1568865D02*
D03*
X1644627Y1575115D02*
D03*
X1709627Y1609865D02*
D03*
X1690377Y1530865D02*
D03*
X1682877Y1536365D02*
D03*
X1383377Y1458365D02*
D03*
X1318127Y1481365D02*
D03*
X1324377Y1476115D02*
D03*
X1239877Y1634365D02*
D03*
X1245377Y1640365D02*
D03*
X1470377Y1808615D02*
D03*
X1478688Y1809110D02*
D03*
X1502377Y1792865D02*
D03*
X1510877Y1793615D02*
D03*
X1612627Y1748865D02*
D03*
X1718377Y1917615D02*
D03*
X1692877Y1904115D02*
D03*
X1674000Y1931500D02*
D03*
X1399627Y1335115D02*
D03*
X1414250Y1335500D02*
D03*
X783500Y1467000D02*
D03*
X796500Y1732000D02*
D03*
X1016250Y1744750D02*
D03*
X1113480Y1601234D02*
D03*
X758750Y1993750D02*
D03*
X918750Y2003750D02*
D03*
X847150Y1987848D02*
D03*
X848651Y1977098D02*
D03*
X851500Y1968250D02*
D03*
X854250Y1961000D02*
D03*
X856250Y1951500D02*
D03*
X991377Y1937730D02*
D03*
X994000Y1996210D02*
D03*
X1001000Y1992000D02*
D03*
X875877Y1314000D02*
D03*
X1051627Y1987365D02*
D03*
X1056627Y1973365D02*
D03*
X1000750Y1947750D02*
D03*
X1054877Y1960865D02*
D03*
X1042377Y1951865D02*
D03*
X1025627Y1948615D02*
D03*
X966377Y2015865D02*
D03*
X982750Y2022000D02*
D03*
X1138877Y1871115D02*
D03*
X1049127Y1568865D02*
D03*
X1041627Y1575115D02*
D03*
X1106627Y1609865D02*
D03*
X1087377Y1530865D02*
D03*
X1079877Y1536365D02*
D03*
X780377Y1458365D02*
D03*
X715127Y1481365D02*
D03*
X721377Y1476115D02*
D03*
X636877Y1634365D02*
D03*
X642377Y1640365D02*
D03*
X794377Y1739365D02*
D03*
X867377Y1808615D02*
D03*
X875688Y1809110D02*
D03*
X899377Y1792865D02*
D03*
X907877Y1793615D02*
D03*
X1009627Y1748865D02*
D03*
X1115377Y1917615D02*
D03*
X1089877Y1904115D02*
D03*
X1071000Y1931500D02*
D03*
X796627Y1335115D02*
D03*
X811250Y1335500D02*
D03*
X187750Y1467500D02*
D03*
X201500Y1732000D02*
D03*
X518000Y1602000D02*
D03*
X421250Y1744250D02*
D03*
X163500Y1993750D02*
D03*
X323500Y2003750D02*
D03*
X251901Y1987848D02*
D03*
X253400Y1977098D02*
D03*
X256250Y1968250D02*
D03*
X259000Y1961000D02*
D03*
X261000Y1951500D02*
D03*
X396127Y1937730D02*
D03*
X398750Y1996210D02*
D03*
X405750Y1992000D02*
D03*
X280627Y1314000D02*
D03*
X456377Y1987365D02*
D03*
X461377Y1973365D02*
D03*
X405500Y1947750D02*
D03*
X459627Y1960865D02*
D03*
X447127Y1951865D02*
D03*
X430377Y1948615D02*
D03*
X371127Y2015865D02*
D03*
X387500Y2022000D02*
D03*
X543627Y1871115D02*
D03*
X453877Y1568865D02*
D03*
X446377Y1575115D02*
D03*
X511377Y1609865D02*
D03*
X492127Y1530865D02*
D03*
X484627Y1536365D02*
D03*
X185127Y1458365D02*
D03*
X119877Y1481365D02*
D03*
X126127Y1476115D02*
D03*
X41627Y1634365D02*
D03*
X47127Y1640365D02*
D03*
X199127Y1739365D02*
D03*
X272127Y1808615D02*
D03*
X280438Y1809110D02*
D03*
X304127Y1792865D02*
D03*
X312627Y1793615D02*
D03*
X414377Y1748865D02*
D03*
X520127Y1917615D02*
D03*
X494627Y1904115D02*
D03*
X475750Y1931500D02*
D03*
X201377Y1335115D02*
D03*
X216000Y1335500D02*
D03*
D47*
X1380750Y1268750D02*
D03*
Y1318750D02*
D03*
X1235750D02*
D03*
Y1268750D02*
D03*
X1716750D02*
D03*
Y1318750D02*
D03*
X1571750D02*
D03*
Y1268750D02*
D03*
X777750Y1268750D02*
D03*
Y1318750D02*
D03*
X632750D02*
D03*
Y1268750D02*
D03*
X1113750D02*
D03*
Y1318750D02*
D03*
X968750D02*
D03*
Y1268750D02*
D03*
X182500Y1268750D02*
D03*
Y1318750D02*
D03*
X37500D02*
D03*
Y1268750D02*
D03*
X518500D02*
D03*
Y1318750D02*
D03*
X373500D02*
D03*
Y1268750D02*
D03*
M02*
