M48
;Layer_Color=9474304
;FILE_FORMAT=4:4
METRIC
;TYPE=PLATED
T4F00S00C1.0000
T5F00S00C1.5000
T6F00S00C2.0000
%
G90
G05
T04
G00X01653750Y01214750
M15
G01X01573750
M16
G00X01696750Y01214750
M15
G01X01616750
M16
G00X01696750Y01234750
M15
G01Y01214750
M16
G00X01726750Y01234750
M15
G01Y01214750
M16
G00X01573750Y01234750
M15
G01Y01214750
M16
G00X01543750Y01234750
M15
G01Y01214750
M16
G00X01454750Y01214750
M15
G01X01534750
M16
G00X01518750Y01220750
M15
G01X01438750
M16
G00X01497750Y01214750
M15
G01X01417750
M16
G00X01461000Y01303750
M15
G01Y01223750
M16
G00X01452500Y01303750
M15
G01Y01223750
M16
G00X01445500Y01304500
M15
G01Y01224500
M16
G00X01438750Y01304500
M15
G01Y01224500
M16
G00X01470000Y01303500
M15
G01Y01223500
M16
G00X01477750Y01303750
M15
G01Y01223750
M16
G00X01481250Y01304000
M15
G01Y01224000
M16
G00X01489500Y01303250
M15
G01Y01223250
M16
G00X01496000Y01302000
M15
G01Y01222000
M16
G00X01504250Y01303250
M15
G01Y01223250
M16
G00X01508250Y01303750
M15
G01Y01223750
M16
G00X01513250Y01302750
M15
G01Y01222750
M16
G00X01518750Y01302500
M15
G01Y01222500
M16
G00X01518750Y01304750
M15
G01X01438750
M16
G00X01408750Y01234750
M15
G01Y01214750
M16
G00X01378750Y01234750
M15
G01Y01214750
M16
G00X01378750Y01214750
M15
G01X01298750
M16
G00X01337750Y01214750
M15
G01X01257750
M16
G00X01256750Y01234750
M15
G01Y01214750
M16
G00X01226750Y01234750
M15
G01Y01214750
M16
G00X01123750Y01234750
M15
G01Y01214750
M16
G00X01093750Y01234750
M15
G01Y01214750
M16
G00X01093750Y01214750
M15
G01X01013750
M16
G00X01050750Y01214750
M15
G01X00970750
M16
G00X00970750Y01234750
M15
G01Y01214750
M16
G00X00940750Y01234750
M15
G01Y01214750
M16
G00X00851750Y01214750
M15
G01X00931750
M16
G00X00915750Y01220750
M15
G01X00835750
M16
G00X00894750Y01214750
M15
G01X00814750
M16
G00X00858000Y01303750
M15
G01Y01223750
M16
G00X00849500Y01303750
M15
G01Y01223750
M16
G00X00842500Y01304500
M15
G01Y01224500
M16
G00X00835750Y01304500
M15
G01Y01224500
M16
G00X00867000Y01303500
M15
G01Y01223500
M16
G00X00874750Y01303750
M15
G01Y01223750
M16
G00X00878250Y01304000
M15
G01Y01224000
M16
G00X00886500Y01303250
M15
G01Y01223250
M16
G00X00893000Y01302000
M15
G01Y01222000
M16
G00X00901250Y01303250
M15
G01Y01223250
M16
G00X00905250Y01303750
M15
G01Y01223750
M16
G00X00910250Y01302750
M15
G01Y01222750
M16
G00X00915750Y01302500
M15
G01Y01222500
M16
G00X00915750Y01304750
M15
G01X00835750
M16
G00X00805750Y01234750
M15
G01Y01214750
M16
G00X00775750Y01234750
M15
G01Y01214750
M16
G00X00775750Y01214750
M15
G01X00695750
M16
G00X00734750Y01214750
M15
G01X00654750
M16
G00X00653750Y01234750
M15
G01Y01214750
M16
G00X00623750Y01234750
M15
G01Y01214750
M16
G00X00528500Y01234750
M15
G01Y01214750
M16
G00X00498500Y01234750
M15
G01Y01214750
M16
G00X00498500Y01214750
M15
G01X00418500
M16
G00X00455500Y01214750
M15
G01X00375500
M16
G00X00375500Y01234750
M15
G01Y01214750
M16
G00X00345500Y01234750
M15
G01Y01214750
M16
G00X00256500Y01214750
M15
G01X00336500
M16
G00X00320500Y01220750
M15
G01X00240500
M16
G00X00299500Y01214750
M15
G01X00219500
M16
G00X00262750Y01303750
M15
G01Y01223750
M16
G00X00254250Y01303750
M15
G01Y01223750
M16
G00X00247250Y01304500
M15
G01Y01224500
M16
G00X00240500Y01304500
M15
G01Y01224500
M16
G00X00271750Y01303500
M15
G01Y01223500
M16
G00X00279500Y01303750
M15
G01Y01223750
M16
G00X00283000Y01304000
M15
G01Y01224000
M16
G00X00291250Y01303250
M15
G01Y01223250
M16
G00X00297750Y01302000
M15
G01Y01222000
M16
G00X00306000Y01303250
M15
G01Y01223250
M16
G00X00310000Y01303750
M15
G01Y01223750
M16
G00X00315000Y01302750
M15
G01Y01222750
M16
G00X00320500Y01302500
M15
G01Y01222500
M16
G00X00320500Y01304750
M15
G01X00240500
M16
G00X00210500Y01234750
M15
G01Y01214750
M16
G00X00180500Y01234750
M15
G01Y01214750
M16
G00X00180500Y01214750
M15
G01X00100500
M16
G00X00139500Y01214750
M15
G01X00059500
M16
G00X00058500Y01234750
M15
G01Y01214750
M16
G00X00028500Y01234750
M15
G01Y01214750
M16
T05
G00X01426750Y02028750
M15
G01Y01953750
M16
G00X00823750Y02028750
M15
G01Y01953750
M16
G00X00228500Y02028750
M15
G01Y01953750
M16
T06
G00X01483750Y01208000
M15
G01X01413750
M16
G00X01538750Y01208000
M15
G01X01468750
M16
G00X00935750Y01208000
M15
G01X00865750
M16
G00X00880750Y01208000
M15
G01X00810750
M16
G00X00340500Y01208000
M15
G01X00270500
M16
G00X00285500Y01208000
M15
G01X00215500
M16
M30
