M48
;Layer_Color=9474304
;FILE_FORMAT=4:4
METRIC
;TYPE=PLATED
T1F00S00C0.4000
T2F00S00C0.9000
T3F00S00C1.0000
%
T01
X01682877Y01536365
X01690377Y01530865
X01652127Y01568865
X01644627Y01575115
X01386465Y01467715
X01383377Y01458365
X01324377Y01476115
X01318127Y01481365
X01399627Y01335115
X01414250Y01335500
X01478877Y01314000
X00875877Y01314000
X00811250Y01335500
X00796627Y01335115
X01079877Y01536365
X01087377Y01530865
X01049127Y01568865
X01041627Y01575115
X00783500Y01467000
X00780377Y01458365
X00721377Y01476115
X00715127Y01481365
X00492127Y01530865
X00484627Y01536365
X00453877Y01568865
X00446377Y01575115
X00187750Y01467500
X00185127Y01458365
X00126127Y01476115
X00119877Y01481365
X00201377Y01335115
X00216000Y01335500
X00280627Y01314000
X00280438Y01809110
X00272127Y01808615
X00304127Y01792865
X00312627Y01793615
X00199127Y01739365
X00201500Y01732000
X00047127Y01640365
X00041627Y01634365
X00261000Y01951500
X00259000Y01961000
X00256250Y01968250
X00253400Y01977098
X00396127Y01937730
X00405500Y01947750
X00430377Y01948615
X00447127Y01951865
X00459627Y01960865
X00461377Y01973365
X00475750Y01931500
X00494627Y01904115
X00520127Y01917615
X00543627Y01871115
X00421250Y01744250
X00414377Y01748865
X00511377Y01609865
X00518000Y01602000
X00636877Y01634365
X00642377Y01640365
X00796500Y01732000
X00794377Y01739365
X00867377Y01808615
X00875688Y01809110
X00899377Y01792865
X00907877Y01793615
X01009627Y01748865
X01016250Y01744750
X01025627Y01948615
X01042377Y01951865
X01054877Y01960865
X01056627Y01973365
X01071000Y01931500
X01089877Y01904115
X01115377Y01917615
X01138877Y01871115
X00991377Y01937730
X01000750Y01947750
X00856250Y01951500
X00854250Y01961000
X00851500Y01968250
X00848651Y01977098
X01106627Y01609865
X01113480Y01601234
X01239877Y01634365
X01245377Y01640365
X01399156Y01732344
X01397371Y01739371
X01470377Y01808615
X01478688Y01809110
X01502377Y01792865
X01510877Y01793615
X01459250Y01951500
X01457250Y01961000
X01454500Y01968250
X01451651Y01977098
X01603750Y01947750
X01594377Y01937730
X01628627Y01948615
X01645377Y01951865
X01657877Y01960865
X01659627Y01973365
X01674000Y01931500
X01692877Y01904115
X01718377Y01917615
X01741877Y01871115
X01618501Y01744498
X01612627Y01748865
X01709627Y01609865
X01716250Y01602000
X01654627Y01987365
X01604000Y01992000
X01597000Y01996210
X01585750Y02022000
X01569377Y02015865
X01521750Y02003750
X01450150Y01987848
X01361750Y01993750
X01051627Y01987365
X01001000Y01992000
X00994000Y01996210
X00982750Y02022000
X00966377Y02015865
X00918750Y02003750
X00847150Y01987848
X00758750Y01993750
X00456377Y01987365
X00405750Y01992000
X00398750Y01996210
X00387500Y02022000
X00371127Y02015865
X00323500Y02003750
X00251901Y01987848
X00163500Y01993750
T02
X01590500Y02059500
X01615900
X01641300
X01565100
X01514800
X01489400
X01464000
X01438600
X01388150
X01362750
X01337350
X01311950
X01038300Y02059500
X01012900
X00987500
X00962100
X00911800
X00886400
X00861000
X00835600
X00785150
X00759750
X00734350
X00708950
X00443050Y02059500
X00417650
X00392250
X00366850
X00316550
X00291150
X00265750
X00240350
X00189900
X00164500
X00139100
X00113700
T03
X01712000Y01235000
X01558500
X01393250
X01242250
X01109000Y01235000
X00955500
X00790250
X00639250
X00513750Y01235000
X00360250
X00195000
X00044000
M30
