G04*
G04 #@! TF.GenerationSoftware,Altium Limited,Altium Designer,23.6.0 (18)*
G04*
G04 Layer_Color=16711935*
%FSLAX44Y44*%
%MOMM*%
G71*
G04*
G04 #@! TF.SameCoordinates,59697A40-66F3-49E2-9A90-2B25EFB93BE2*
G04*
G04*
G04 #@! TF.FilePolarity,Positive*
G04*
G01*
G75*
%ADD83C,0.2000*%
D83*
X2109905Y380999D02*
G03*
X2089905Y400999I-20000J0D01*
G01*
X1580001Y401155D02*
G03*
X1560001Y381155I0J-20000D01*
G01*
X1560095Y240001D02*
G03*
X1580095Y220001I20000J0D01*
G01*
X2089999Y220095D02*
G03*
X2109999Y240095I0J20000D01*
G01*
X1560000Y430000D02*
G03*
X1580000Y410000I20000J0D01*
G01*
X2090000Y410000D02*
G03*
X2110000Y430000I0J20000D01*
G01*
Y1250000D02*
G03*
X2090000Y1270000I-20000J0D01*
G01*
X1580000Y1270000D02*
G03*
X1560000Y1250000I0J-20000D01*
G01*
X2110000Y240096D02*
Y380904D01*
X1560000Y240096D02*
Y381155D01*
X2089904Y220000D02*
X1580096D01*
X2110000Y1245000D02*
Y1250000D01*
X2090000Y401000D02*
Y410000D01*
X1580000Y401000D02*
Y410000D01*
X2110000Y1245000D02*
X2110000Y1245000D01*
Y430000D02*
Y1245000D01*
X1580000Y1270000D02*
X2090000Y1270000D01*
X1560000Y430000D02*
X1560000Y1250000D01*
X1459904Y380999D02*
G03*
X1439905Y400999I-20000J0D01*
G01*
X930001Y401155D02*
G03*
X910001Y381155I0J-20000D01*
G01*
X910095Y240001D02*
G03*
X930095Y220001I20000J0D01*
G01*
X1439999Y220095D02*
G03*
X1459999Y240095I0J20000D01*
G01*
X910000Y430000D02*
G03*
X930000Y410000I20000J0D01*
G01*
X1440000Y410000D02*
G03*
X1460000Y430000I0J20000D01*
G01*
Y1250000D02*
G03*
X1440000Y1270000I-20000J0D01*
G01*
X930000Y1270000D02*
G03*
X910000Y1250000I0J-20000D01*
G01*
X1460000Y240096D02*
Y380904D01*
X910000Y240096D02*
Y381155D01*
X1439904Y220000D02*
X930096D01*
X1460000Y1245000D02*
Y1250000D01*
X1440000Y401000D02*
Y410000D01*
X930000Y401000D02*
Y410000D01*
X1460000Y1245000D02*
X1460000Y1245000D01*
Y430000D02*
Y1245000D01*
X930000Y1270000D02*
X1440000Y1270000D01*
X910000Y430000D02*
X910000Y1250000D01*
X809905Y380999D02*
G03*
X789905Y400999I-20000J0D01*
G01*
X280001Y401155D02*
G03*
X260001Y381155I0J-20000D01*
G01*
X260095Y240001D02*
G03*
X280095Y220001I20000J0D01*
G01*
X789999Y220095D02*
G03*
X809999Y240095I0J20000D01*
G01*
X260000Y430000D02*
G03*
X280000Y410000I20000J0D01*
G01*
X790000Y410000D02*
G03*
X810000Y430000I0J20000D01*
G01*
Y1250000D02*
G03*
X790000Y1270000I-20000J0D01*
G01*
X280000Y1270000D02*
G03*
X260000Y1250000I0J-20000D01*
G01*
X810000Y240096D02*
Y380904D01*
X260000Y240096D02*
Y381155D01*
X789904Y220000D02*
X280096D01*
X810000Y1245000D02*
Y1250000D01*
X790000Y401000D02*
Y410000D01*
X280000Y401000D02*
Y410000D01*
X810000Y1245000D02*
X810000Y1245000D01*
Y430000D02*
Y1245000D01*
X280000Y1270000D02*
X790000Y1270000D01*
X260000Y430000D02*
X260000Y1250000D01*
M02*
