G04*
G04 #@! TF.GenerationSoftware,Altium Limited,Altium Designer,23.6.0 (18)*
G04*
G04 Layer_Physical_Order=2*
G04 Layer_Color=16711680*
%FSLAX44Y44*%
%MOMM*%
G71*
G04*
G04 #@! TF.SameCoordinates,59697A40-66F3-49E2-9A90-2B25EFB93BE2*
G04*
G04*
G04 #@! TF.FilePolarity,Positive*
G04*
G01*
G75*
%ADD30R,0.2000X1.7000*%
%ADD31C,0.4000*%
%ADD33C,0.2540*%
%ADD35C,1.0000*%
%ADD36R,1.5000X9.0000*%
%ADD37R,9.0000X2.0000*%
%ADD38R,9.0000X1.0000*%
%ADD39R,1.0000X3.0000*%
%ADD40O,1.0000X9.0000*%
%ADD41C,1.5000*%
%ADD42R,1.5000X1.5000*%
%ADD43O,9.0000X1.0000*%
%ADD44R,0.5700X2.0000*%
%ADD45R,9.0000X9.0000*%
%ADD46C,0.6000*%
%ADD47R,1.5000X1.0000*%
G36*
X2110000Y1250000D02*
Y435000D01*
X1885069D01*
Y493750D01*
X1885000Y494274D01*
Y495476D01*
X1885069Y496000D01*
X1885000Y496524D01*
Y504000D01*
X1877524D01*
X1877000Y504069D01*
X1854673D01*
X1854074Y505189D01*
X1854210Y505392D01*
X1854598Y507343D01*
Y508250D01*
X1863500D01*
Y531250D01*
X1848854D01*
Y543512D01*
X1848522Y545178D01*
X1847578Y546591D01*
X1846091Y548078D01*
X1844678Y549022D01*
X1843012Y549354D01*
X1759238D01*
X1757572Y549022D01*
X1756159Y548078D01*
X1754671Y546591D01*
X1753728Y545178D01*
X1753396Y543512D01*
Y530369D01*
X1752791Y529764D01*
X1751877Y527558D01*
Y525171D01*
X1752791Y522966D01*
X1754478Y521278D01*
X1756684Y520365D01*
X1759071D01*
X1761276Y521278D01*
X1762964Y522966D01*
X1763877Y525171D01*
Y527558D01*
X1762964Y529764D01*
X1762104Y530624D01*
Y540646D01*
X1840146D01*
Y531250D01*
X1833854D01*
Y532762D01*
X1833522Y534428D01*
X1832579Y535841D01*
X1831091Y537328D01*
X1829678Y538272D01*
X1828012Y538604D01*
X1773988D01*
X1772322Y538272D01*
X1770909Y537328D01*
X1769422Y535841D01*
X1768478Y534428D01*
X1768146Y532762D01*
Y530882D01*
X1767413Y530149D01*
X1766500Y527943D01*
Y525556D01*
X1767413Y523351D01*
X1769101Y521663D01*
X1771306Y520750D01*
X1773694D01*
X1775899Y521663D01*
X1777587Y523351D01*
X1778500Y525556D01*
Y527943D01*
X1778129Y528840D01*
X1778834Y529896D01*
X1810500D01*
Y508250D01*
X1819402D01*
Y507343D01*
X1819790Y505392D01*
X1819926Y505189D01*
X1819327Y504069D01*
X1797000D01*
X1796476Y504000D01*
X1789000D01*
Y496524D01*
X1788931Y496000D01*
X1788947Y495875D01*
X1788931Y495750D01*
Y435000D01*
X1560000D01*
Y1250000D01*
X1580000Y1270000D01*
X2090000D01*
X2110000Y1250000D01*
D02*
G37*
G36*
X810000D02*
Y435000D01*
X585069D01*
Y493750D01*
X585000Y494274D01*
Y495476D01*
X585069Y496000D01*
X585000Y496524D01*
Y504000D01*
X577524D01*
X577000Y504069D01*
X554673D01*
X554074Y505189D01*
X554210Y505392D01*
X554598Y507343D01*
Y508250D01*
X563500D01*
Y531250D01*
X548854D01*
Y543512D01*
X548522Y545178D01*
X547579Y546591D01*
X546091Y548078D01*
X544678Y549022D01*
X543012Y549354D01*
X459238D01*
X457572Y549022D01*
X456159Y548078D01*
X454672Y546591D01*
X453728Y545178D01*
X453396Y543512D01*
Y530369D01*
X452791Y529764D01*
X451877Y527558D01*
Y525171D01*
X452791Y522966D01*
X454478Y521278D01*
X456684Y520365D01*
X459071D01*
X461276Y521278D01*
X462964Y522966D01*
X463877Y525171D01*
Y527558D01*
X462964Y529764D01*
X462104Y530624D01*
Y540646D01*
X540146D01*
Y531250D01*
X533854D01*
Y532762D01*
X533522Y534428D01*
X532579Y535841D01*
X531091Y537328D01*
X529678Y538272D01*
X528012Y538604D01*
X473988D01*
X472322Y538272D01*
X470909Y537328D01*
X469422Y535841D01*
X468478Y534428D01*
X468146Y532762D01*
Y530882D01*
X467413Y530149D01*
X466500Y527943D01*
Y525556D01*
X467413Y523351D01*
X469101Y521663D01*
X471306Y520750D01*
X473694D01*
X475899Y521663D01*
X477587Y523351D01*
X478500Y525556D01*
Y527943D01*
X478129Y528840D01*
X478834Y529896D01*
X510500D01*
Y508250D01*
X519402D01*
Y507343D01*
X519790Y505392D01*
X519926Y505189D01*
X519327Y504069D01*
X497000D01*
X496476Y504000D01*
X489000D01*
Y496524D01*
X488931Y496000D01*
X488947Y495875D01*
X488931Y495750D01*
Y435000D01*
X260000D01*
Y1250000D01*
X280000Y1270000D01*
X790000D01*
X810000Y1250000D01*
D02*
G37*
G36*
X1460000Y1250000D02*
Y435000D01*
X1235069D01*
Y493750D01*
X1235000Y494274D01*
Y495476D01*
X1235069Y496000D01*
X1235000Y496524D01*
Y504000D01*
X1227524D01*
X1227000Y504069D01*
X1204673D01*
X1204074Y505189D01*
X1204210Y505392D01*
X1204598Y507343D01*
Y508250D01*
X1213500D01*
Y531250D01*
X1198854D01*
Y543512D01*
X1198522Y545178D01*
X1197579Y546591D01*
X1196090Y548078D01*
X1194678Y549022D01*
X1193012Y549354D01*
X1109238D01*
X1107572Y549022D01*
X1106159Y548078D01*
X1104671Y546591D01*
X1103728Y545178D01*
X1103396Y543512D01*
Y530369D01*
X1102791Y529764D01*
X1101877Y527558D01*
Y525171D01*
X1102791Y522966D01*
X1104478Y521278D01*
X1106684Y520365D01*
X1109071D01*
X1111276Y521278D01*
X1112964Y522966D01*
X1113877Y525171D01*
Y527558D01*
X1112964Y529764D01*
X1112104Y530624D01*
Y540646D01*
X1190146D01*
Y531250D01*
X1183854D01*
Y532762D01*
X1183522Y534428D01*
X1182579Y535841D01*
X1181091Y537328D01*
X1179678Y538272D01*
X1178012Y538604D01*
X1123988D01*
X1122322Y538272D01*
X1120909Y537328D01*
X1119421Y535841D01*
X1118478Y534428D01*
X1118146Y532762D01*
Y530882D01*
X1117413Y530149D01*
X1116500Y527943D01*
Y525556D01*
X1117413Y523351D01*
X1119101Y521663D01*
X1121307Y520750D01*
X1123693D01*
X1125899Y521663D01*
X1127587Y523351D01*
X1128500Y525556D01*
Y527943D01*
X1128129Y528840D01*
X1128834Y529896D01*
X1160500D01*
Y508250D01*
X1169402D01*
Y507343D01*
X1169790Y505392D01*
X1169926Y505189D01*
X1169327Y504069D01*
X1147000D01*
X1146476Y504000D01*
X1139000D01*
Y496524D01*
X1138931Y496000D01*
X1138947Y495875D01*
X1138931Y495750D01*
Y435000D01*
X910000D01*
Y1250000D01*
X930000Y1270000D01*
X1440000D01*
X1460000Y1250000D01*
D02*
G37*
%LPC*%
G36*
X2058262Y1137604D02*
X2024750D01*
X2023084Y1137272D01*
X2021671Y1136329D01*
X2019171Y1133829D01*
X2018228Y1132416D01*
X2017896Y1130750D01*
Y1004713D01*
X1841069D01*
X1840337Y1005446D01*
X1838131Y1006360D01*
X1835744D01*
X1833539Y1005446D01*
X1831851Y1003758D01*
X1830938Y1001553D01*
Y999166D01*
X1831851Y996961D01*
X1833539Y995273D01*
X1835744Y994360D01*
X1838131D01*
X1840337Y995273D01*
X1841069Y996006D01*
X2017896D01*
Y989219D01*
X1873259D01*
X1872526Y989951D01*
X1870321Y990865D01*
X1867934D01*
X1865728Y989951D01*
X1864041Y988264D01*
X1863127Y986058D01*
Y983671D01*
X1864041Y981466D01*
X1865728Y979778D01*
X1867934Y978865D01*
X1870321D01*
X1872526Y979778D01*
X1873259Y980511D01*
X2017896D01*
Y939718D01*
X1982017D01*
X1981149Y940587D01*
X1978943Y941500D01*
X1976557D01*
X1974351Y940587D01*
X1972663Y938899D01*
X1971750Y936693D01*
Y934306D01*
X1972663Y932101D01*
X1974351Y930414D01*
X1976557Y929500D01*
X1978943D01*
X1981149Y930414D01*
X1981747Y931011D01*
X2017896D01*
Y927468D01*
X1762267D01*
X1761399Y928336D01*
X1759194Y929250D01*
X1756806D01*
X1754601Y928336D01*
X1752914Y926649D01*
X1752000Y924444D01*
Y922057D01*
X1752914Y919851D01*
X1754601Y918163D01*
X1756806Y917250D01*
X1759194D01*
X1761399Y918163D01*
X1761997Y918761D01*
X2017896D01*
Y882104D01*
X1976750D01*
X1975084Y881772D01*
X1973672Y880828D01*
X1928812Y835968D01*
X1607759D01*
X1607026Y836702D01*
X1604821Y837615D01*
X1602434D01*
X1600228Y836702D01*
X1598541Y835014D01*
X1597627Y832808D01*
Y830421D01*
X1598541Y828216D01*
X1600228Y826528D01*
X1602434Y825615D01*
X1604821D01*
X1607026Y826528D01*
X1607759Y827261D01*
X1930615D01*
X1932281Y827593D01*
X1933693Y828536D01*
X1978553Y873396D01*
X2017896D01*
Y840553D01*
X2012797Y835453D01*
X2012796Y835453D01*
X1996922Y819578D01*
X1967796Y790453D01*
X1911799Y734456D01*
X1910855Y733043D01*
X1910524Y731377D01*
Y695104D01*
X1694238D01*
X1692572Y694772D01*
X1691159Y693829D01*
X1689671Y692341D01*
X1688728Y690928D01*
X1688396Y689262D01*
Y679291D01*
X1682470Y673365D01*
X1681434D01*
X1679228Y672451D01*
X1677541Y670764D01*
X1676627Y668558D01*
Y666171D01*
X1677541Y663966D01*
X1679228Y662278D01*
X1681434Y661365D01*
X1683821D01*
X1686026Y662278D01*
X1687714Y663966D01*
X1688627Y666171D01*
Y667208D01*
X1695829Y674409D01*
X1696772Y675822D01*
X1697104Y677488D01*
Y686396D01*
X1910524D01*
Y663104D01*
X1748382D01*
X1747649Y663837D01*
X1745444Y664750D01*
X1743056D01*
X1740851Y663837D01*
X1739164Y662149D01*
X1738250Y659943D01*
Y657557D01*
X1739164Y655351D01*
X1740851Y653663D01*
X1743056Y652750D01*
X1745444D01*
X1747649Y653663D01*
X1748382Y654396D01*
X1913024D01*
X1914690Y654728D01*
X1916103Y655671D01*
X1917956Y657524D01*
X1918899Y658937D01*
X1919231Y660603D01*
Y729574D01*
X1970875Y781218D01*
X1988807Y763286D01*
X1990219Y762343D01*
X1991885Y762011D01*
X1998746D01*
X1999478Y761278D01*
X2001684Y760365D01*
X2004071D01*
X2006276Y761278D01*
X2007964Y762966D01*
X2008877Y765171D01*
Y767558D01*
X2007964Y769764D01*
X2006276Y771451D01*
X2004071Y772365D01*
X2001684D01*
X1999478Y771451D01*
X1998746Y770719D01*
X1993688D01*
X1977032Y787375D01*
X2000000Y810343D01*
X2036774Y773569D01*
Y731747D01*
X2036041Y731014D01*
X2035127Y728808D01*
Y726421D01*
X2036041Y724216D01*
X2037728Y722528D01*
X2039934Y721615D01*
X2042321D01*
X2044526Y722528D01*
X2046214Y724216D01*
X2047127Y726421D01*
Y728808D01*
X2046214Y731014D01*
X2045481Y731747D01*
Y775373D01*
X2045149Y777039D01*
X2044206Y778451D01*
X2006157Y816500D01*
X2015875Y826218D01*
X2044057Y798036D01*
X2045469Y797093D01*
X2047135Y796761D01*
X2063746D01*
X2064478Y796028D01*
X2066684Y795115D01*
X2069071D01*
X2071276Y796028D01*
X2072964Y797716D01*
X2073877Y799921D01*
Y802308D01*
X2072964Y804514D01*
X2071276Y806201D01*
X2069071Y807115D01*
X2066684D01*
X2064478Y806201D01*
X2063746Y805469D01*
X2048938D01*
X2022032Y832375D01*
X2025329Y835671D01*
X2026272Y837084D01*
X2026604Y838750D01*
Y1064904D01*
X2026852Y1064999D01*
X2027874Y1065116D01*
X2028672Y1063922D01*
X2075896Y1016697D01*
Y786053D01*
X2068922Y779079D01*
X2067978Y777666D01*
X2067646Y776000D01*
Y571854D01*
X2046500D01*
X2045243Y571604D01*
X1740488D01*
X1738822Y571272D01*
X1737409Y570328D01*
X1735921Y568841D01*
X1734978Y567428D01*
X1734646Y565762D01*
Y506750D01*
X1728250D01*
Y504354D01*
X1604250D01*
Y506750D01*
X1583250D01*
Y490750D01*
X1604250D01*
Y495646D01*
X1728250D01*
Y490750D01*
X1749250D01*
Y506750D01*
X1743354D01*
Y562896D01*
X2046250D01*
X2047507Y563146D01*
X2070512D01*
X2072178Y563478D01*
X2073591Y564422D01*
X2074376Y565207D01*
X2075646Y564681D01*
Y506750D01*
X2063250D01*
Y504354D01*
X1939250D01*
Y506750D01*
X1918250D01*
Y490750D01*
X1939250D01*
Y495646D01*
X2063250D01*
Y490750D01*
X2084250D01*
Y502059D01*
X2084334Y502480D01*
Y503867D01*
X2084354Y503968D01*
Y763697D01*
X2092829Y772171D01*
X2093772Y773584D01*
X2094104Y775250D01*
Y1031000D01*
X2093772Y1032666D01*
X2092829Y1034079D01*
X2054354Y1072553D01*
Y1090207D01*
X2054526Y1090278D01*
X2056214Y1091966D01*
X2057127Y1094171D01*
Y1096558D01*
X2056214Y1098764D01*
X2054526Y1100451D01*
X2052321Y1101365D01*
X2049934D01*
X2047728Y1100451D01*
X2046041Y1098764D01*
X2045127Y1096558D01*
Y1094171D01*
X2045646Y1092918D01*
Y1070750D01*
X2045978Y1069084D01*
X2046922Y1067672D01*
X2085396Y1029197D01*
Y1020596D01*
X2085148Y1020501D01*
X2084126Y1020384D01*
X2083329Y1021579D01*
X2036104Y1068803D01*
Y1118118D01*
X2037337Y1119351D01*
X2038250Y1121556D01*
Y1123943D01*
X2037337Y1126149D01*
X2035859Y1127626D01*
X2036091Y1128619D01*
X2036248Y1128896D01*
X2055396D01*
Y1110730D01*
X2055728Y1109064D01*
X2056671Y1107651D01*
X2058536Y1105786D01*
X2059949Y1104843D01*
X2061615Y1104511D01*
X2072496D01*
X2073228Y1103778D01*
X2075434Y1102865D01*
X2077821D01*
X2080026Y1103778D01*
X2081714Y1105466D01*
X2082627Y1107671D01*
Y1110058D01*
X2081714Y1112264D01*
X2080026Y1113951D01*
X2077821Y1114865D01*
X2075434D01*
X2073228Y1113951D01*
X2072496Y1113219D01*
X2064104D01*
Y1131762D01*
X2063772Y1133428D01*
X2062829Y1134841D01*
X2061341Y1136329D01*
X2059928Y1137272D01*
X2058262Y1137604D01*
D02*
G37*
G36*
X2072750Y1268348D02*
X1672843D01*
X1670892Y1267960D01*
X1669238Y1266855D01*
X1668133Y1265201D01*
X1667745Y1263250D01*
Y1261250D01*
X1659700D01*
Y1240250D01*
X1680700D01*
Y1258152D01*
X1686515D01*
X1687016Y1256882D01*
X1685816Y1254803D01*
X1685100Y1252132D01*
Y1249368D01*
X1685816Y1246697D01*
X1687198Y1244303D01*
X1689153Y1242348D01*
X1691246Y1241139D01*
Y1135630D01*
X1691578Y1133964D01*
X1692522Y1132551D01*
X1698651Y1126422D01*
X1700064Y1125478D01*
X1701730Y1125146D01*
X1947975D01*
X1949228Y1123894D01*
X1951434Y1122980D01*
X1953821D01*
X1956026Y1123894D01*
X1957714Y1125581D01*
X1958627Y1127786D01*
Y1130173D01*
X1958587Y1130270D01*
X1958698Y1130478D01*
X1960111Y1131422D01*
X1961689Y1133000D01*
X1963194D01*
X1965399Y1133913D01*
X1967087Y1135601D01*
X1967316Y1136156D01*
X1968812Y1136449D01*
X1969719Y1135843D01*
X1971385Y1135511D01*
X1982746D01*
X1983478Y1134778D01*
X1985684Y1133865D01*
X1988071D01*
X1990276Y1134778D01*
X1991964Y1136466D01*
X1992877Y1138671D01*
Y1138761D01*
X1999496D01*
X2000228Y1138028D01*
X2002434Y1137115D01*
X2004821D01*
X2007026Y1138028D01*
X2008714Y1139716D01*
X2009627Y1141921D01*
Y1144308D01*
X2008714Y1146514D01*
X2008639Y1146588D01*
X2009125Y1147761D01*
X2011996D01*
X2012728Y1147028D01*
X2014934Y1146115D01*
X2017321D01*
X2019526Y1147028D01*
X2021214Y1148716D01*
X2022127Y1150921D01*
Y1153308D01*
X2021214Y1155514D01*
X2019526Y1157201D01*
X2019125Y1157367D01*
X2019095Y1158051D01*
X2019251Y1158690D01*
X2021276Y1159528D01*
X2022964Y1161216D01*
X2023877Y1163421D01*
Y1165808D01*
X2022964Y1168014D01*
X2021276Y1169701D01*
X2019071Y1170615D01*
X2016684D01*
X2014478Y1169701D01*
X2013746Y1168969D01*
X2011184D01*
X2010658Y1170238D01*
X2013034Y1172615D01*
X2014071D01*
X2016276Y1173528D01*
X2017964Y1175216D01*
X2018877Y1177421D01*
Y1179808D01*
X2017964Y1182014D01*
X2016276Y1183701D01*
X2014071Y1184615D01*
X2011684D01*
X2009478Y1183701D01*
X2007791Y1182014D01*
X2006877Y1179808D01*
Y1178772D01*
X2004959Y1176854D01*
X1965805D01*
X1965553Y1178124D01*
X1965649Y1178164D01*
X1967337Y1179851D01*
X1968250Y1182057D01*
Y1184444D01*
X1967337Y1186649D01*
X1965649Y1188337D01*
X1963443Y1189250D01*
X1961057D01*
X1961011Y1189231D01*
X1960337Y1190859D01*
X1958649Y1192547D01*
X1956443Y1193460D01*
X1954057D01*
X1951851Y1192547D01*
X1951118Y1191814D01*
X1905604D01*
Y1237650D01*
X1905272Y1239316D01*
X1904328Y1240728D01*
X1902653Y1242403D01*
X1901241Y1243347D01*
X1899575Y1243679D01*
X1860878D01*
X1857524Y1247033D01*
X1858150Y1249368D01*
Y1252132D01*
X1857434Y1254803D01*
X1856234Y1256882D01*
X1856735Y1258152D01*
X1912850D01*
Y1240250D01*
X1933850D01*
Y1258152D01*
X1939665D01*
X1940166Y1256882D01*
X1938966Y1254803D01*
X1938250Y1252132D01*
Y1249368D01*
X1938966Y1246697D01*
X1940348Y1244303D01*
X1942303Y1242348D01*
X1944396Y1241139D01*
Y1230910D01*
X1940921Y1227436D01*
X1939978Y1226023D01*
X1939646Y1224357D01*
Y1217382D01*
X1938913Y1216649D01*
X1938000Y1214444D01*
Y1212057D01*
X1937607Y1211469D01*
X1931759D01*
X1931026Y1212201D01*
X1928821Y1213115D01*
X1926434D01*
X1924228Y1212201D01*
X1922541Y1210514D01*
X1921627Y1208308D01*
Y1205921D01*
X1922541Y1203716D01*
X1924228Y1202028D01*
X1926434Y1201115D01*
X1928821D01*
X1931026Y1202028D01*
X1931759Y1202761D01*
X1953615D01*
X1955281Y1203093D01*
X1956693Y1204036D01*
X1977229Y1224572D01*
X1978172Y1225984D01*
X1978504Y1227650D01*
Y1241139D01*
X1980597Y1242348D01*
X1982552Y1244303D01*
X1983934Y1246697D01*
X1984650Y1249368D01*
Y1252132D01*
X1983934Y1254803D01*
X1982734Y1256882D01*
X1983235Y1258152D01*
X2070638D01*
X2095029Y1233761D01*
Y1065736D01*
X2094127Y1063558D01*
Y1061171D01*
X2095041Y1058966D01*
X2096728Y1057278D01*
X2098934Y1056365D01*
X2101321D01*
X2103526Y1057278D01*
X2105214Y1058966D01*
X2106127Y1061171D01*
Y1063558D01*
X2105225Y1065736D01*
Y1235873D01*
X2104837Y1237824D01*
X2103732Y1239478D01*
X2076355Y1266855D01*
X2074701Y1267960D01*
X2072750Y1268348D01*
D02*
G37*
%LPD*%
G36*
X1813666Y1256882D02*
X1812466Y1254803D01*
X1811750Y1252132D01*
Y1249368D01*
X1812466Y1246697D01*
X1813848Y1244303D01*
X1815803Y1242348D01*
X1818197Y1240966D01*
X1820868Y1240250D01*
X1823632D01*
X1825967Y1240876D01*
X1835921Y1230921D01*
X1837334Y1229978D01*
X1839000Y1229646D01*
X1890697D01*
X1891646Y1228697D01*
Y1184738D01*
X1891978Y1183072D01*
X1892921Y1181659D01*
X1895719Y1178861D01*
X1896824Y1178124D01*
X1896467Y1176854D01*
X1817303D01*
X1814400Y1179756D01*
Y1180291D01*
X1813487Y1182497D01*
X1811799Y1184184D01*
X1809594Y1185098D01*
X1807207D01*
X1805002Y1184184D01*
X1803314Y1182497D01*
X1802401Y1180291D01*
Y1177904D01*
X1803314Y1175699D01*
X1805002Y1174011D01*
X1805414Y1173840D01*
X1805662Y1172595D01*
X1804814Y1171747D01*
X1803900Y1169541D01*
Y1167154D01*
X1804814Y1164949D01*
X1806502Y1163261D01*
X1807621Y1162797D01*
X1806750Y1160694D01*
Y1158307D01*
X1807663Y1156101D01*
X1809351Y1154414D01*
X1809821Y1154219D01*
X1809500Y1153444D01*
Y1151057D01*
X1810413Y1148851D01*
X1812101Y1147163D01*
X1812327Y1145940D01*
X1811500Y1143943D01*
Y1141556D01*
X1812094Y1140124D01*
X1811252Y1138854D01*
X1795500D01*
Y1230500D01*
X1774500D01*
Y1138854D01*
X1708803D01*
X1707104Y1140553D01*
Y1235146D01*
X1718707D01*
X1719334Y1234728D01*
X1721000Y1234396D01*
X1722666Y1234728D01*
X1724079Y1235671D01*
X1725022Y1237084D01*
X1725354Y1238750D01*
Y1241139D01*
X1727447Y1242348D01*
X1729402Y1244303D01*
X1730784Y1246697D01*
X1731500Y1249368D01*
Y1252132D01*
X1730784Y1254803D01*
X1729584Y1256882D01*
X1730085Y1258152D01*
X1786350D01*
Y1240250D01*
X1807350D01*
Y1258152D01*
X1813165D01*
X1813666Y1256882D01*
D02*
G37*
%LPC*%
G36*
X758262Y1137604D02*
X724750D01*
X723084Y1137272D01*
X721672Y1136329D01*
X719172Y1133829D01*
X718228Y1132416D01*
X717896Y1130750D01*
Y1004713D01*
X541069D01*
X540336Y1005446D01*
X538131Y1006360D01*
X535744D01*
X533539Y1005446D01*
X531851Y1003758D01*
X530938Y1001553D01*
Y999166D01*
X531851Y996961D01*
X533539Y995273D01*
X535744Y994360D01*
X538131D01*
X540336Y995273D01*
X541069Y996006D01*
X717896D01*
Y989219D01*
X573259D01*
X572526Y989951D01*
X570321Y990865D01*
X567934D01*
X565728Y989951D01*
X564041Y988264D01*
X563127Y986058D01*
Y983671D01*
X564041Y981466D01*
X565728Y979778D01*
X567934Y978865D01*
X570321D01*
X572526Y979778D01*
X573259Y980511D01*
X717896D01*
Y939718D01*
X682017D01*
X681149Y940587D01*
X678943Y941500D01*
X676556D01*
X674351Y940587D01*
X672663Y938899D01*
X671750Y936693D01*
Y934306D01*
X672663Y932101D01*
X674351Y930414D01*
X676556Y929500D01*
X678943D01*
X681149Y930414D01*
X681747Y931011D01*
X717896D01*
Y927468D01*
X462267D01*
X461399Y928336D01*
X459193Y929250D01*
X456806D01*
X454601Y928336D01*
X452913Y926649D01*
X452000Y924444D01*
Y922057D01*
X452913Y919851D01*
X454601Y918163D01*
X456806Y917250D01*
X459193D01*
X461399Y918163D01*
X461996Y918761D01*
X717896D01*
Y882104D01*
X676750D01*
X675084Y881772D01*
X673671Y880828D01*
X628811Y835968D01*
X307759D01*
X307026Y836702D01*
X304821Y837615D01*
X302434D01*
X300228Y836702D01*
X298541Y835014D01*
X297627Y832808D01*
Y830421D01*
X298541Y828216D01*
X300228Y826528D01*
X302434Y825615D01*
X304821D01*
X307026Y826528D01*
X307759Y827261D01*
X630615D01*
X632281Y827593D01*
X633693Y828536D01*
X678553Y873396D01*
X717896D01*
Y840553D01*
X712797Y835453D01*
X712796Y835453D01*
X696921Y819578D01*
X667796Y790453D01*
X611799Y734456D01*
X610855Y733043D01*
X610523Y731377D01*
Y695104D01*
X394238D01*
X392572Y694772D01*
X391159Y693829D01*
X389672Y692341D01*
X388728Y690928D01*
X388396Y689262D01*
Y679291D01*
X382470Y673365D01*
X381434D01*
X379228Y672451D01*
X377541Y670764D01*
X376627Y668558D01*
Y666171D01*
X377541Y663966D01*
X379228Y662278D01*
X381434Y661365D01*
X383821D01*
X386026Y662278D01*
X387714Y663966D01*
X388627Y666171D01*
Y667208D01*
X395829Y674409D01*
X396772Y675822D01*
X397104Y677488D01*
Y686396D01*
X610523D01*
Y663104D01*
X448382D01*
X447649Y663837D01*
X445443Y664750D01*
X443056D01*
X440851Y663837D01*
X439163Y662149D01*
X438250Y659943D01*
Y657557D01*
X439163Y655351D01*
X440851Y653663D01*
X443056Y652750D01*
X445443D01*
X447649Y653663D01*
X448382Y654396D01*
X613024D01*
X614690Y654728D01*
X616103Y655671D01*
X617956Y657524D01*
X618899Y658937D01*
X619231Y660603D01*
Y729574D01*
X670875Y781218D01*
X688807Y763286D01*
X690219Y762343D01*
X691885Y762011D01*
X698745D01*
X699478Y761278D01*
X701684Y760365D01*
X704071D01*
X706276Y761278D01*
X707964Y762966D01*
X708877Y765171D01*
Y767558D01*
X707964Y769764D01*
X706276Y771451D01*
X704071Y772365D01*
X701684D01*
X699478Y771451D01*
X698745Y770719D01*
X693688D01*
X677032Y787375D01*
X700000Y810343D01*
X736774Y773569D01*
Y731747D01*
X736041Y731014D01*
X735127Y728808D01*
Y726421D01*
X736041Y724216D01*
X737728Y722528D01*
X739934Y721615D01*
X742321D01*
X744526Y722528D01*
X746214Y724216D01*
X747127Y726421D01*
Y728808D01*
X746214Y731014D01*
X745481Y731747D01*
Y775373D01*
X745149Y777039D01*
X744206Y778451D01*
X706157Y816500D01*
X715875Y826218D01*
X744057Y798036D01*
X745469Y797093D01*
X747135Y796761D01*
X763745D01*
X764478Y796028D01*
X766684Y795115D01*
X769071D01*
X771276Y796028D01*
X772964Y797716D01*
X773877Y799921D01*
Y802308D01*
X772964Y804514D01*
X771276Y806201D01*
X769071Y807115D01*
X766684D01*
X764478Y806201D01*
X763745Y805469D01*
X748939D01*
X722032Y832375D01*
X725329Y835671D01*
X726272Y837084D01*
X726604Y838750D01*
Y1064904D01*
X726852Y1064999D01*
X727874Y1065116D01*
X728671Y1063922D01*
X775896Y1016697D01*
Y786053D01*
X768922Y779079D01*
X767978Y777666D01*
X767646Y776000D01*
Y571854D01*
X746500D01*
X745243Y571604D01*
X440488D01*
X438822Y571272D01*
X437409Y570328D01*
X435922Y568841D01*
X434978Y567428D01*
X434646Y565762D01*
Y506750D01*
X428250D01*
Y504354D01*
X304250D01*
Y506750D01*
X283250D01*
Y490750D01*
X304250D01*
Y495646D01*
X428250D01*
Y490750D01*
X449250D01*
Y506750D01*
X443354D01*
Y562896D01*
X746250D01*
X747507Y563146D01*
X770512D01*
X772178Y563478D01*
X773591Y564422D01*
X774376Y565207D01*
X775646Y564681D01*
Y506750D01*
X763250D01*
Y504354D01*
X639250D01*
Y506750D01*
X618250D01*
Y490750D01*
X639250D01*
Y495646D01*
X763250D01*
Y490750D01*
X784250D01*
Y502059D01*
X784334Y502480D01*
Y503867D01*
X784354Y503968D01*
Y763697D01*
X792829Y772171D01*
X793772Y773584D01*
X794104Y775250D01*
Y1031000D01*
X793772Y1032666D01*
X792829Y1034079D01*
X754354Y1072553D01*
Y1090207D01*
X754526Y1090278D01*
X756214Y1091966D01*
X757127Y1094171D01*
Y1096558D01*
X756214Y1098764D01*
X754526Y1100451D01*
X752321Y1101365D01*
X749934D01*
X747728Y1100451D01*
X746041Y1098764D01*
X745127Y1096558D01*
Y1094171D01*
X745646Y1092918D01*
Y1070750D01*
X745978Y1069084D01*
X746921Y1067672D01*
X785396Y1029197D01*
Y1020596D01*
X785148Y1020501D01*
X784126Y1020384D01*
X783328Y1021579D01*
X736104Y1068803D01*
Y1118118D01*
X737337Y1119351D01*
X738250Y1121556D01*
Y1123943D01*
X737337Y1126149D01*
X735859Y1127626D01*
X736091Y1128619D01*
X736248Y1128896D01*
X755396D01*
Y1110730D01*
X755728Y1109064D01*
X756672Y1107651D01*
X758536Y1105786D01*
X759949Y1104843D01*
X761615Y1104511D01*
X772495D01*
X773228Y1103778D01*
X775434Y1102865D01*
X777821D01*
X780026Y1103778D01*
X781714Y1105466D01*
X782627Y1107671D01*
Y1110058D01*
X781714Y1112264D01*
X780026Y1113951D01*
X777821Y1114865D01*
X775434D01*
X773228Y1113951D01*
X772495Y1113219D01*
X764104D01*
Y1131762D01*
X763772Y1133428D01*
X762829Y1134841D01*
X761341Y1136329D01*
X759928Y1137272D01*
X758262Y1137604D01*
D02*
G37*
G36*
X772750Y1268348D02*
X372843D01*
X370892Y1267960D01*
X369238Y1266855D01*
X368133Y1265201D01*
X367745Y1263250D01*
Y1261250D01*
X359700D01*
Y1240250D01*
X380700D01*
Y1258152D01*
X386515D01*
X387016Y1256882D01*
X385816Y1254803D01*
X385100Y1252132D01*
Y1249368D01*
X385816Y1246697D01*
X387198Y1244303D01*
X389153Y1242348D01*
X391246Y1241139D01*
Y1135630D01*
X391578Y1133964D01*
X392522Y1132551D01*
X398651Y1126422D01*
X400064Y1125478D01*
X401730Y1125146D01*
X647975D01*
X649228Y1123894D01*
X651434Y1122980D01*
X653821D01*
X656026Y1123894D01*
X657714Y1125581D01*
X658627Y1127786D01*
Y1130173D01*
X658587Y1130270D01*
X658698Y1130478D01*
X660111Y1131422D01*
X661689Y1133000D01*
X663194D01*
X665399Y1133913D01*
X667086Y1135601D01*
X667317Y1136156D01*
X668812Y1136449D01*
X669719Y1135843D01*
X671385Y1135511D01*
X682746D01*
X683478Y1134778D01*
X685684Y1133865D01*
X688071D01*
X690276Y1134778D01*
X691964Y1136466D01*
X692877Y1138671D01*
Y1138761D01*
X699495D01*
X700228Y1138028D01*
X702434Y1137115D01*
X704821D01*
X707026Y1138028D01*
X708714Y1139716D01*
X709627Y1141921D01*
Y1144308D01*
X708714Y1146514D01*
X708639Y1146588D01*
X709125Y1147761D01*
X711995D01*
X712728Y1147028D01*
X714934Y1146115D01*
X717321D01*
X719526Y1147028D01*
X721214Y1148716D01*
X722127Y1150921D01*
Y1153308D01*
X721214Y1155514D01*
X719526Y1157201D01*
X719125Y1157367D01*
X719095Y1158051D01*
X719251Y1158690D01*
X721276Y1159528D01*
X722964Y1161216D01*
X723877Y1163421D01*
Y1165808D01*
X722964Y1168014D01*
X721276Y1169701D01*
X719071Y1170615D01*
X716684D01*
X714478Y1169701D01*
X713745Y1168969D01*
X711184D01*
X710658Y1170238D01*
X713034Y1172615D01*
X714071D01*
X716276Y1173528D01*
X717964Y1175216D01*
X718877Y1177421D01*
Y1179808D01*
X717964Y1182014D01*
X716276Y1183701D01*
X714071Y1184615D01*
X711684D01*
X709478Y1183701D01*
X707791Y1182014D01*
X706877Y1179808D01*
Y1178772D01*
X704959Y1176854D01*
X665805D01*
X665553Y1178124D01*
X665649Y1178164D01*
X667337Y1179851D01*
X668250Y1182057D01*
Y1184444D01*
X667337Y1186649D01*
X665649Y1188337D01*
X663444Y1189250D01*
X661057D01*
X661011Y1189231D01*
X660337Y1190859D01*
X658649Y1192547D01*
X656443Y1193460D01*
X654056D01*
X651851Y1192547D01*
X651118Y1191814D01*
X605604D01*
Y1237650D01*
X605272Y1239316D01*
X604328Y1240728D01*
X602653Y1242403D01*
X601241Y1243347D01*
X599575Y1243679D01*
X560878D01*
X557524Y1247033D01*
X558150Y1249368D01*
Y1252132D01*
X557434Y1254803D01*
X556234Y1256882D01*
X556735Y1258152D01*
X612850D01*
Y1240250D01*
X633850D01*
Y1258152D01*
X639665D01*
X640166Y1256882D01*
X638965Y1254803D01*
X638250Y1252132D01*
Y1249368D01*
X638965Y1246697D01*
X640348Y1244303D01*
X642303Y1242348D01*
X644396Y1241139D01*
Y1230910D01*
X640921Y1227436D01*
X639978Y1226023D01*
X639646Y1224357D01*
Y1217382D01*
X638913Y1216649D01*
X638000Y1214444D01*
Y1212057D01*
X637607Y1211469D01*
X631759D01*
X631026Y1212201D01*
X628821Y1213115D01*
X626434D01*
X624228Y1212201D01*
X622541Y1210514D01*
X621627Y1208308D01*
Y1205921D01*
X622541Y1203716D01*
X624228Y1202028D01*
X626434Y1201115D01*
X628821D01*
X631026Y1202028D01*
X631759Y1202761D01*
X653615D01*
X655281Y1203093D01*
X656693Y1204036D01*
X677228Y1224572D01*
X678172Y1225984D01*
X678504Y1227650D01*
Y1241139D01*
X680597Y1242348D01*
X682552Y1244303D01*
X683934Y1246697D01*
X684650Y1249368D01*
Y1252132D01*
X683934Y1254803D01*
X682734Y1256882D01*
X683235Y1258152D01*
X770638D01*
X795029Y1233761D01*
Y1065736D01*
X794127Y1063558D01*
Y1061171D01*
X795041Y1058966D01*
X796728Y1057278D01*
X798934Y1056365D01*
X801321D01*
X803526Y1057278D01*
X805214Y1058966D01*
X806127Y1061171D01*
Y1063558D01*
X805225Y1065736D01*
Y1235873D01*
X804837Y1237824D01*
X803732Y1239478D01*
X776355Y1266855D01*
X774701Y1267960D01*
X772750Y1268348D01*
D02*
G37*
%LPD*%
G36*
X513666Y1256882D02*
X512466Y1254803D01*
X511750Y1252132D01*
Y1249368D01*
X512466Y1246697D01*
X513848Y1244303D01*
X515803Y1242348D01*
X518197Y1240966D01*
X520868Y1240250D01*
X523632D01*
X525967Y1240876D01*
X535922Y1230921D01*
X537334Y1229978D01*
X539000Y1229646D01*
X590697D01*
X591646Y1228697D01*
Y1184738D01*
X591978Y1183072D01*
X592921Y1181659D01*
X595719Y1178861D01*
X596824Y1178124D01*
X596467Y1176854D01*
X517303D01*
X514400Y1179756D01*
Y1180291D01*
X513487Y1182497D01*
X511799Y1184184D01*
X509594Y1185098D01*
X507207D01*
X505002Y1184184D01*
X503314Y1182497D01*
X502401Y1180291D01*
Y1177904D01*
X503314Y1175699D01*
X505002Y1174011D01*
X505414Y1173840D01*
X505662Y1172595D01*
X504814Y1171747D01*
X503900Y1169541D01*
Y1167154D01*
X504814Y1164949D01*
X506502Y1163261D01*
X507621Y1162797D01*
X506750Y1160694D01*
Y1158307D01*
X507663Y1156101D01*
X509351Y1154414D01*
X509821Y1154219D01*
X509500Y1153444D01*
Y1151057D01*
X510413Y1148851D01*
X512101Y1147163D01*
X512327Y1145940D01*
X511500Y1143943D01*
Y1141556D01*
X512094Y1140124D01*
X511252Y1138854D01*
X495500D01*
Y1230500D01*
X474500D01*
Y1138854D01*
X408803D01*
X407104Y1140553D01*
Y1235146D01*
X418707D01*
X419334Y1234728D01*
X421000Y1234396D01*
X422666Y1234728D01*
X424078Y1235671D01*
X425022Y1237084D01*
X425354Y1238750D01*
Y1241139D01*
X427447Y1242348D01*
X429402Y1244303D01*
X430784Y1246697D01*
X431500Y1249368D01*
Y1252132D01*
X430784Y1254803D01*
X429584Y1256882D01*
X430085Y1258152D01*
X486350D01*
Y1240250D01*
X507350D01*
Y1258152D01*
X513165D01*
X513666Y1256882D01*
D02*
G37*
%LPC*%
G36*
X1408262Y1137604D02*
X1374750D01*
X1373084Y1137272D01*
X1371671Y1136329D01*
X1369171Y1133829D01*
X1368228Y1132416D01*
X1367896Y1130750D01*
Y1004713D01*
X1191069D01*
X1190337Y1005446D01*
X1188131Y1006360D01*
X1185744D01*
X1183539Y1005446D01*
X1181851Y1003758D01*
X1180938Y1001553D01*
Y999166D01*
X1181851Y996961D01*
X1183539Y995273D01*
X1185744Y994360D01*
X1188131D01*
X1190337Y995273D01*
X1191069Y996006D01*
X1367896D01*
Y989219D01*
X1223259D01*
X1222526Y989951D01*
X1220321Y990865D01*
X1217934D01*
X1215728Y989951D01*
X1214041Y988264D01*
X1213127Y986058D01*
Y983671D01*
X1214041Y981466D01*
X1215728Y979778D01*
X1217934Y978865D01*
X1220321D01*
X1222526Y979778D01*
X1223259Y980511D01*
X1367896D01*
Y939718D01*
X1332017D01*
X1331149Y940586D01*
X1328943Y941500D01*
X1326557D01*
X1324351Y940586D01*
X1322663Y938899D01*
X1321750Y936693D01*
Y934306D01*
X1322663Y932101D01*
X1324351Y930413D01*
X1326557Y929500D01*
X1328943D01*
X1331149Y930413D01*
X1331747Y931011D01*
X1367896D01*
Y927468D01*
X1112267D01*
X1111399Y928336D01*
X1109193Y929250D01*
X1106806D01*
X1104601Y928336D01*
X1102913Y926649D01*
X1102000Y924443D01*
Y922057D01*
X1102913Y919851D01*
X1104601Y918163D01*
X1106806Y917250D01*
X1109193D01*
X1111399Y918163D01*
X1111997Y918761D01*
X1367896D01*
Y882104D01*
X1326750D01*
X1325084Y881772D01*
X1323672Y880828D01*
X1278811Y835968D01*
X957759D01*
X957026Y836701D01*
X954821Y837615D01*
X952434D01*
X950228Y836701D01*
X948541Y835014D01*
X947627Y832808D01*
Y830421D01*
X948541Y828216D01*
X950228Y826528D01*
X952434Y825615D01*
X954821D01*
X957026Y826528D01*
X957759Y827261D01*
X1280615D01*
X1282281Y827593D01*
X1283693Y828536D01*
X1328553Y873396D01*
X1367896D01*
Y840553D01*
X1362797Y835453D01*
X1362796Y835453D01*
X1346922Y819578D01*
X1317796Y790453D01*
X1261799Y734456D01*
X1260855Y733043D01*
X1260524Y731377D01*
Y695104D01*
X1044238D01*
X1042572Y694772D01*
X1041159Y693829D01*
X1039671Y692341D01*
X1038728Y690928D01*
X1038396Y689262D01*
Y679291D01*
X1032470Y673365D01*
X1031434D01*
X1029228Y672451D01*
X1027541Y670764D01*
X1026627Y668558D01*
Y666171D01*
X1027541Y663966D01*
X1029228Y662278D01*
X1031434Y661365D01*
X1033821D01*
X1036026Y662278D01*
X1037714Y663966D01*
X1038627Y666171D01*
Y667208D01*
X1045828Y674409D01*
X1046772Y675822D01*
X1047104Y677488D01*
Y686396D01*
X1260524D01*
Y663104D01*
X1098382D01*
X1097649Y663837D01*
X1095443Y664750D01*
X1093056D01*
X1090851Y663837D01*
X1089163Y662149D01*
X1088250Y659943D01*
Y657557D01*
X1089163Y655351D01*
X1090851Y653663D01*
X1093056Y652750D01*
X1095443D01*
X1097649Y653663D01*
X1098382Y654396D01*
X1263024D01*
X1264690Y654728D01*
X1266103Y655671D01*
X1267956Y657524D01*
X1268899Y658937D01*
X1269231Y660603D01*
Y729574D01*
X1320875Y781218D01*
X1338807Y763286D01*
X1340219Y762343D01*
X1341885Y762011D01*
X1348746D01*
X1349478Y761278D01*
X1351684Y760365D01*
X1354071D01*
X1356276Y761278D01*
X1357964Y762966D01*
X1358877Y765171D01*
Y767558D01*
X1357964Y769764D01*
X1356276Y771451D01*
X1354071Y772365D01*
X1351684D01*
X1349478Y771451D01*
X1348746Y770719D01*
X1343688D01*
X1327032Y787375D01*
X1350000Y810343D01*
X1386774Y773569D01*
Y731747D01*
X1386041Y731014D01*
X1385127Y728808D01*
Y726421D01*
X1386041Y724216D01*
X1387728Y722528D01*
X1389934Y721615D01*
X1392321D01*
X1394526Y722528D01*
X1396214Y724216D01*
X1397127Y726421D01*
Y728808D01*
X1396214Y731014D01*
X1395481Y731747D01*
Y775373D01*
X1395149Y777039D01*
X1394206Y778451D01*
X1356157Y816500D01*
X1365875Y826218D01*
X1394057Y798036D01*
X1395469Y797093D01*
X1397135Y796761D01*
X1413746D01*
X1414478Y796028D01*
X1416684Y795115D01*
X1419071D01*
X1421276Y796028D01*
X1422964Y797716D01*
X1423877Y799921D01*
Y802308D01*
X1422964Y804514D01*
X1421276Y806201D01*
X1419071Y807115D01*
X1416684D01*
X1414478Y806201D01*
X1413746Y805469D01*
X1398938D01*
X1372032Y832375D01*
X1375329Y835671D01*
X1376272Y837084D01*
X1376604Y838750D01*
Y1064904D01*
X1376852Y1064999D01*
X1377874Y1065116D01*
X1378672Y1063922D01*
X1425896Y1016697D01*
Y786053D01*
X1418922Y779079D01*
X1417978Y777666D01*
X1417646Y776000D01*
Y571854D01*
X1396500D01*
X1395243Y571604D01*
X1090488D01*
X1088822Y571272D01*
X1087409Y570328D01*
X1085921Y568840D01*
X1084978Y567428D01*
X1084646Y565762D01*
Y506750D01*
X1078250D01*
Y504354D01*
X954250D01*
Y506750D01*
X933250D01*
Y490750D01*
X954250D01*
Y495646D01*
X1078250D01*
Y490750D01*
X1099250D01*
Y506750D01*
X1093354D01*
Y562896D01*
X1396250D01*
X1397507Y563146D01*
X1420512D01*
X1422178Y563478D01*
X1423591Y564422D01*
X1424376Y565207D01*
X1425646Y564681D01*
Y506750D01*
X1413250D01*
Y504354D01*
X1289250D01*
Y506750D01*
X1268250D01*
Y490750D01*
X1289250D01*
Y495646D01*
X1413250D01*
Y490750D01*
X1434250D01*
Y502059D01*
X1434334Y502480D01*
Y503867D01*
X1434354Y503968D01*
Y763697D01*
X1442829Y772171D01*
X1443772Y773584D01*
X1444104Y775250D01*
Y1031000D01*
X1443772Y1032666D01*
X1442829Y1034079D01*
X1404354Y1072553D01*
Y1090207D01*
X1404526Y1090278D01*
X1406214Y1091966D01*
X1407127Y1094171D01*
Y1096558D01*
X1406214Y1098764D01*
X1404526Y1100451D01*
X1402321Y1101365D01*
X1399934D01*
X1397728Y1100451D01*
X1396041Y1098764D01*
X1395127Y1096558D01*
Y1094171D01*
X1395646Y1092918D01*
Y1070750D01*
X1395978Y1069084D01*
X1396922Y1067672D01*
X1435396Y1029197D01*
Y1020596D01*
X1435148Y1020501D01*
X1434126Y1020384D01*
X1433329Y1021579D01*
X1386104Y1068803D01*
Y1118118D01*
X1387336Y1119351D01*
X1388250Y1121556D01*
Y1123943D01*
X1387336Y1126149D01*
X1385859Y1127626D01*
X1386091Y1128619D01*
X1386248Y1128896D01*
X1405396D01*
Y1110730D01*
X1405728Y1109064D01*
X1406671Y1107651D01*
X1408536Y1105786D01*
X1409949Y1104843D01*
X1411615Y1104511D01*
X1422496D01*
X1423228Y1103778D01*
X1425434Y1102865D01*
X1427821D01*
X1430026Y1103778D01*
X1431714Y1105466D01*
X1432627Y1107671D01*
Y1110058D01*
X1431714Y1112264D01*
X1430026Y1113951D01*
X1427821Y1114865D01*
X1425434D01*
X1423228Y1113951D01*
X1422496Y1113219D01*
X1414104D01*
Y1131762D01*
X1413772Y1133428D01*
X1412829Y1134841D01*
X1411341Y1136329D01*
X1409928Y1137272D01*
X1408262Y1137604D01*
D02*
G37*
G36*
X1422750Y1268348D02*
X1022843D01*
X1020892Y1267960D01*
X1019238Y1266855D01*
X1018133Y1265201D01*
X1017745Y1263250D01*
Y1261250D01*
X1009700D01*
Y1240250D01*
X1030700D01*
Y1258152D01*
X1036515D01*
X1037016Y1256882D01*
X1035816Y1254803D01*
X1035100Y1252132D01*
Y1249368D01*
X1035816Y1246697D01*
X1037198Y1244303D01*
X1039153Y1242348D01*
X1041246Y1241139D01*
Y1135630D01*
X1041578Y1133964D01*
X1042522Y1132551D01*
X1048651Y1126422D01*
X1050064Y1125478D01*
X1051730Y1125146D01*
X1297975D01*
X1299228Y1123893D01*
X1301434Y1122980D01*
X1303821D01*
X1306026Y1123893D01*
X1307714Y1125581D01*
X1308627Y1127786D01*
Y1130173D01*
X1308587Y1130270D01*
X1308698Y1130478D01*
X1310111Y1131422D01*
X1311689Y1133000D01*
X1313194D01*
X1315399Y1133913D01*
X1317086Y1135601D01*
X1317316Y1136156D01*
X1318812Y1136449D01*
X1319719Y1135843D01*
X1321385Y1135511D01*
X1332746D01*
X1333478Y1134778D01*
X1335684Y1133865D01*
X1338071D01*
X1340276Y1134778D01*
X1341964Y1136466D01*
X1342877Y1138671D01*
Y1138761D01*
X1349496D01*
X1350228Y1138028D01*
X1352434Y1137115D01*
X1354821D01*
X1357026Y1138028D01*
X1358714Y1139716D01*
X1359627Y1141921D01*
Y1144308D01*
X1358714Y1146514D01*
X1358639Y1146588D01*
X1359125Y1147761D01*
X1361996D01*
X1362728Y1147028D01*
X1364934Y1146115D01*
X1367321D01*
X1369526Y1147028D01*
X1371214Y1148716D01*
X1372127Y1150921D01*
Y1153308D01*
X1371214Y1155514D01*
X1369526Y1157201D01*
X1369125Y1157367D01*
X1369095Y1158051D01*
X1369251Y1158690D01*
X1371276Y1159528D01*
X1372964Y1161216D01*
X1373877Y1163421D01*
Y1165808D01*
X1372964Y1168014D01*
X1371276Y1169701D01*
X1369071Y1170615D01*
X1366684D01*
X1364478Y1169701D01*
X1363746Y1168969D01*
X1361184D01*
X1360658Y1170238D01*
X1363034Y1172615D01*
X1364071D01*
X1366276Y1173528D01*
X1367964Y1175216D01*
X1368877Y1177421D01*
Y1179808D01*
X1367964Y1182014D01*
X1366276Y1183701D01*
X1364071Y1184615D01*
X1361684D01*
X1359478Y1183701D01*
X1357791Y1182014D01*
X1356877Y1179808D01*
Y1178772D01*
X1354959Y1176854D01*
X1315805D01*
X1315553Y1178124D01*
X1315649Y1178163D01*
X1317336Y1179851D01*
X1318250Y1182057D01*
Y1184444D01*
X1317336Y1186649D01*
X1315649Y1188336D01*
X1313443Y1189250D01*
X1311057D01*
X1311011Y1189231D01*
X1310336Y1190859D01*
X1308649Y1192547D01*
X1306443Y1193460D01*
X1304057D01*
X1301851Y1192547D01*
X1301118Y1191814D01*
X1255604D01*
Y1237650D01*
X1255272Y1239316D01*
X1254329Y1240728D01*
X1252653Y1242403D01*
X1251241Y1243347D01*
X1249575Y1243679D01*
X1210878D01*
X1207524Y1247033D01*
X1208150Y1249368D01*
Y1252132D01*
X1207434Y1254803D01*
X1206234Y1256882D01*
X1206735Y1258152D01*
X1262850D01*
Y1240250D01*
X1283850D01*
Y1258152D01*
X1289665D01*
X1290166Y1256882D01*
X1288965Y1254803D01*
X1288250Y1252132D01*
Y1249368D01*
X1288965Y1246697D01*
X1290348Y1244303D01*
X1292303Y1242348D01*
X1294396Y1241139D01*
Y1230910D01*
X1290921Y1227436D01*
X1289978Y1226023D01*
X1289646Y1224357D01*
Y1217382D01*
X1288913Y1216649D01*
X1288000Y1214443D01*
Y1212057D01*
X1287607Y1211469D01*
X1281759D01*
X1281026Y1212201D01*
X1278821Y1213115D01*
X1276434D01*
X1274228Y1212201D01*
X1272541Y1210514D01*
X1271627Y1208308D01*
Y1205921D01*
X1272541Y1203716D01*
X1274228Y1202028D01*
X1276434Y1201115D01*
X1278821D01*
X1281026Y1202028D01*
X1281759Y1202761D01*
X1303615D01*
X1305281Y1203093D01*
X1306693Y1204036D01*
X1327228Y1224571D01*
X1328172Y1225984D01*
X1328504Y1227650D01*
Y1241139D01*
X1330597Y1242348D01*
X1332552Y1244303D01*
X1333934Y1246697D01*
X1334650Y1249368D01*
Y1252132D01*
X1333934Y1254803D01*
X1332734Y1256882D01*
X1333235Y1258152D01*
X1420638D01*
X1445029Y1233761D01*
Y1065736D01*
X1444127Y1063558D01*
Y1061171D01*
X1445041Y1058966D01*
X1446728Y1057278D01*
X1448934Y1056365D01*
X1451321D01*
X1453526Y1057278D01*
X1455214Y1058966D01*
X1456127Y1061171D01*
Y1063558D01*
X1455225Y1065736D01*
Y1235873D01*
X1454837Y1237824D01*
X1453732Y1239478D01*
X1426355Y1266855D01*
X1424701Y1267960D01*
X1422750Y1268348D01*
D02*
G37*
%LPD*%
G36*
X1163666Y1256882D02*
X1162466Y1254803D01*
X1161750Y1252132D01*
Y1249368D01*
X1162466Y1246697D01*
X1163848Y1244303D01*
X1165803Y1242348D01*
X1168197Y1240966D01*
X1170868Y1240250D01*
X1173632D01*
X1175967Y1240876D01*
X1185921Y1230921D01*
X1187334Y1229978D01*
X1189000Y1229646D01*
X1240697D01*
X1241646Y1228697D01*
Y1184738D01*
X1241978Y1183072D01*
X1242922Y1181659D01*
X1245719Y1178861D01*
X1246824Y1178124D01*
X1246467Y1176854D01*
X1167303D01*
X1164400Y1179756D01*
Y1180291D01*
X1163487Y1182496D01*
X1161799Y1184184D01*
X1159594Y1185098D01*
X1157207D01*
X1155002Y1184184D01*
X1153314Y1182496D01*
X1152401Y1180291D01*
Y1177904D01*
X1153314Y1175699D01*
X1155002Y1174011D01*
X1155414Y1173840D01*
X1155662Y1172595D01*
X1154814Y1171747D01*
X1153901Y1169541D01*
Y1167154D01*
X1154814Y1164949D01*
X1156502Y1163261D01*
X1157622Y1162797D01*
X1156750Y1160694D01*
Y1158307D01*
X1157663Y1156101D01*
X1159351Y1154413D01*
X1159821Y1154219D01*
X1159500Y1153443D01*
Y1151057D01*
X1160413Y1148851D01*
X1162101Y1147163D01*
X1162327Y1145940D01*
X1161500Y1143943D01*
Y1141556D01*
X1162094Y1140124D01*
X1161252Y1138854D01*
X1145500D01*
Y1230500D01*
X1124500D01*
Y1138854D01*
X1058803D01*
X1057104Y1140553D01*
Y1235146D01*
X1068707D01*
X1069334Y1234728D01*
X1071000Y1234396D01*
X1072666Y1234728D01*
X1074078Y1235671D01*
X1075022Y1237084D01*
X1075354Y1238750D01*
Y1241139D01*
X1077447Y1242348D01*
X1079402Y1244303D01*
X1080784Y1246697D01*
X1081500Y1249368D01*
Y1252132D01*
X1080784Y1254803D01*
X1079584Y1256882D01*
X1080085Y1258152D01*
X1136350D01*
Y1240250D01*
X1157350D01*
Y1258152D01*
X1163165D01*
X1163666Y1256882D01*
D02*
G37*
D30*
X1839500Y519750D02*
D03*
X1824500D02*
D03*
X1834500D02*
D03*
X1829500D02*
D03*
X1809500D02*
D03*
X1844500D02*
D03*
X1854500D02*
D03*
X1849500D02*
D03*
X1859500D02*
D03*
X1864500D02*
D03*
X1814500D02*
D03*
X1819500D02*
D03*
X1189500Y519750D02*
D03*
X1174500D02*
D03*
X1184500D02*
D03*
X1179500D02*
D03*
X1159500D02*
D03*
X1194500D02*
D03*
X1204500D02*
D03*
X1199500D02*
D03*
X1209500D02*
D03*
X1214500D02*
D03*
X1164500D02*
D03*
X1169500D02*
D03*
X539500Y519750D02*
D03*
X524500D02*
D03*
X534500D02*
D03*
X529500D02*
D03*
X509500D02*
D03*
X544500D02*
D03*
X554500D02*
D03*
X549500D02*
D03*
X559500D02*
D03*
X564500D02*
D03*
X514500D02*
D03*
X519500D02*
D03*
D31*
X2100127Y1235873D02*
X2072750Y1263250D01*
X2100127Y1062365D02*
Y1235873D01*
X1847157Y505000D02*
X1837377D01*
X1837127Y505250D01*
Y505000D02*
X1826843D01*
X1847157D02*
X1849500Y507343D01*
X1824500D02*
Y519750D01*
X1849500Y507343D02*
Y519750D01*
X1826843Y505000D02*
X1824500Y507343D01*
Y519750D02*
X1824500Y519750D01*
X2072750Y1263250D02*
X1925693D01*
X1799193D02*
X1672843D01*
X1670200Y1250750D02*
X1672843Y1253393D01*
Y1263250D01*
X1925693D02*
X1799193D01*
X1796850Y1250750D02*
X1799193Y1253093D01*
Y1263250D01*
X1923350Y1250750D02*
X1925693Y1253093D01*
Y1263250D01*
X1450127Y1235873D02*
X1422750Y1263250D01*
X1450127Y1062365D02*
Y1235873D01*
X1197157Y505000D02*
X1187377D01*
X1187127Y505250D01*
Y505000D02*
X1176843D01*
X1197157D02*
X1199500Y507343D01*
X1174500D02*
Y519750D01*
X1199500Y507343D02*
Y519750D01*
X1176843Y505000D02*
X1174500Y507343D01*
Y519750D02*
X1174500Y519750D01*
X1422750Y1263250D02*
X1275693D01*
X1149193D02*
X1022843D01*
X1020200Y1250750D02*
X1022843Y1253393D01*
Y1263250D01*
X1275693D02*
X1149193D01*
X1146850Y1250750D02*
X1149193Y1253093D01*
Y1263250D01*
X1273350Y1250750D02*
X1275693Y1253093D01*
Y1263250D01*
X800127Y1235873D02*
X772750Y1263250D01*
X800127Y1062365D02*
Y1235873D01*
X547157Y505000D02*
X537377D01*
X537127Y505250D01*
Y505000D02*
X526843D01*
X547157D02*
X549500Y507343D01*
X524500D02*
Y519750D01*
X549500Y507343D02*
Y519750D01*
X526843Y505000D02*
X524500Y507343D01*
Y519750D02*
X524500Y519750D01*
X772750Y1263250D02*
X625693D01*
X499193D02*
X372843D01*
X370200Y1250750D02*
X372843Y1253393D01*
Y1263250D01*
X625693D02*
X499193D01*
X496850Y1250750D02*
X499193Y1253093D01*
Y1263250D01*
X623350Y1250750D02*
X625693Y1253093D01*
Y1263250D01*
D33*
X1958760Y1182676D02*
G03*
X1957929Y1182333I0J-1177D01*
G01*
X2080000Y765500D02*
X2089750Y775250D01*
X2076250Y498750D02*
X2079980Y502480D01*
Y503948D02*
X2080000Y503968D01*
X2079980Y502480D02*
Y503948D01*
X2080000Y503968D02*
Y765500D01*
X2076250Y498750D02*
X2073750D01*
X2067500Y500000D02*
X1928677D01*
X1739000D02*
X1594509D01*
X1739000D02*
Y565762D01*
X1913024Y658750D02*
X1744250D01*
X1913024D02*
X1914877Y660603D01*
X2021512Y923115D02*
X1758135D01*
X1758000Y923250D01*
X2080250Y784250D02*
Y1018500D01*
X2031750Y1067000D01*
X2072000Y776000D02*
X2080250Y784250D01*
X2022250Y877750D02*
Y923115D01*
Y935365D01*
X1977885D01*
X1977750Y935500D01*
X1914877Y660603D02*
Y690500D01*
X1815500Y1172500D02*
X1809000Y1179000D01*
X1895178Y1159500D02*
X1812750D01*
X1895178D02*
X1898968Y1163290D01*
X1980460D02*
X1898968D01*
X1991635Y1152115D02*
X1980460Y1163290D01*
X1896992Y1151750D02*
X1816000D01*
X1815500Y1152250D01*
X1896992Y1151750D02*
X1898992Y1153750D01*
X1885718Y1142750D02*
X1889468Y1146500D01*
X1885718Y1142750D02*
X1817500D01*
X1980798Y1153750D02*
X1898992D01*
X1991434Y1143115D02*
X1980798Y1153750D01*
X1964750Y1146500D02*
X1889468D01*
X1707000Y1134500D02*
X1702750Y1138750D01*
X1952107Y1129500D02*
X1701730D01*
X1952627Y1128980D02*
X1952107Y1129500D01*
X1957032Y1134500D02*
X1961532Y1139000D01*
X1957032Y1134500D02*
X1707000D01*
X1962000Y1139000D02*
X1961532D01*
X1702750Y1138750D02*
Y1238012D01*
X1701730Y1129500D02*
X1695600Y1135630D01*
X2001040Y1167710D02*
X1810500D01*
X2006762Y1172500D02*
X1815500D01*
X2006762D02*
X2012877Y1178615D01*
X2004135Y1164615D02*
X2001040Y1167710D01*
X1961676Y1182676D02*
X1958760D01*
X1957536Y1181940D02*
X1957929Y1182333D01*
X1898798Y1181940D02*
X1896000Y1184738D01*
X1961676Y1182676D02*
X1962250Y1183250D01*
X1957536Y1181940D02*
X1898798D01*
X1971385Y1139865D02*
X1964750Y1146500D01*
X1896000Y1184738D02*
Y1230500D01*
X1902738Y1187460D02*
X1901250Y1188948D01*
Y1237650D01*
X1955250Y1187460D02*
X1902738D01*
X2017877Y1164615D02*
X2004135D01*
X2016127Y1152115D02*
X1991635D01*
X2003627Y1143115D02*
X1991434D01*
X1986877Y1139865D02*
X1971385D01*
X1721000Y1238750D02*
Y1250750D01*
X1702750Y1238012D02*
X1704238Y1239500D01*
X1720250D02*
X1704238D01*
X1721000Y1238750D02*
X1720250Y1239500D01*
X1974150Y1227650D02*
Y1250750D01*
X1953615Y1207115D02*
X1927627D01*
X1953615D02*
X1974150Y1227650D01*
X1944000Y1213250D02*
Y1224357D01*
X1948750Y1229107D01*
Y1250750D01*
X1839000Y1234000D02*
X1822250Y1250750D01*
X1896000Y1230500D02*
X1892500Y1234000D01*
X1839000D01*
X1859075Y1239325D02*
X1847650Y1250750D01*
X1901250Y1237650D02*
X1899575Y1239325D01*
X1859075D01*
X1695600Y1135630D02*
Y1250750D01*
X2022250Y838750D02*
Y877750D01*
X1976750D01*
X1930615Y831615D02*
X1603627D01*
X1930615D02*
X1976750Y877750D01*
X1914877Y690500D02*
Y731377D01*
X1692750Y677488D02*
Y689262D01*
X1694238Y690750D01*
X1914627D02*
X1694238D01*
X1914877Y690500D02*
X1914627Y690750D01*
X1682627Y667365D02*
X1692750Y677488D01*
X2015875Y832375D02*
X2022250Y838750D01*
X2000000Y816500D02*
X2015875Y832375D01*
X2067877Y801115D02*
X2047135D01*
X2015875Y832375D01*
X1970875Y787375D02*
X2000000Y816500D01*
X2041127Y727615D02*
Y775373D01*
X2000000Y816500D01*
X1914877Y731377D02*
X1970875Y787375D01*
X2002877Y766365D02*
X1991885D01*
X1970875Y787375D01*
X2022250Y935365D02*
Y985000D01*
Y1000250D02*
Y1130750D01*
Y985000D02*
Y1000250D01*
X2022140Y1000360D02*
X1836938D01*
X2022250Y1000250D02*
X2022140Y1000360D01*
X2022115Y984865D02*
X1869127D01*
X2022115D02*
X2022250Y985000D01*
X2059750Y1110730D02*
Y1131762D01*
X2058262Y1133250D01*
X2024750D01*
X2022250Y1130750D02*
X2024750Y1133250D01*
X2061615Y1108865D02*
X2059750Y1110730D01*
X2076627Y1108865D02*
X2061615D01*
X2050000Y1070750D02*
Y1094250D01*
X2051000Y1095250D01*
X2089750Y1031000D02*
X2050000Y1070750D01*
X2089750Y775250D02*
Y1031000D01*
X2031750Y1067000D02*
Y1122250D01*
X2032250Y1122750D01*
X2070512Y567500D02*
X2046500D01*
X2070512D02*
X2072000Y568988D01*
Y776000D01*
X2046250Y567250D02*
X2046500Y567500D01*
X2046250Y567250D02*
X1740488D01*
X1739000Y565762D02*
X1740488Y567250D01*
X1757750Y526250D02*
Y543512D01*
X1843012Y545000D02*
X1759238D01*
X1757750Y543512D02*
X1759238Y545000D01*
X1844500Y519750D02*
Y543512D01*
X1843012Y545000D01*
X1828012Y534250D02*
X1773988D01*
X1772500Y532762D02*
X1773988Y534250D01*
X1772500Y526750D02*
Y532762D01*
X1829500Y519750D02*
Y532762D01*
X1828012Y534250D01*
X1308760Y1182676D02*
G03*
X1307929Y1182333I0J-1177D01*
G01*
X1430000Y765500D02*
X1439750Y775250D01*
X1426250Y498750D02*
X1429980Y502480D01*
Y503948D02*
X1430000Y503968D01*
X1429980Y502480D02*
Y503948D01*
X1430000Y503968D02*
Y765500D01*
X1426250Y498750D02*
X1423750D01*
X1417500Y500000D02*
X1278677D01*
X1089000D02*
X944509D01*
X1089000D02*
Y565762D01*
X1263024Y658750D02*
X1094250D01*
X1263024D02*
X1264877Y660603D01*
X1371512Y923115D02*
X1108135D01*
X1108000Y923250D01*
X1430250Y784250D02*
Y1018500D01*
X1381750Y1067000D01*
X1422000Y776000D02*
X1430250Y784250D01*
X1372250Y877750D02*
Y923115D01*
Y935365D01*
X1327885D01*
X1327750Y935500D01*
X1264877Y660603D02*
Y690500D01*
X1165500Y1172500D02*
X1159000Y1179000D01*
X1245178Y1159500D02*
X1162750D01*
X1245178D02*
X1248968Y1163290D01*
X1330460D02*
X1248968D01*
X1341635Y1152115D02*
X1330460Y1163290D01*
X1246992Y1151750D02*
X1166000D01*
X1165500Y1152250D01*
X1246992Y1151750D02*
X1248992Y1153750D01*
X1235718Y1142750D02*
X1239468Y1146500D01*
X1235718Y1142750D02*
X1167500D01*
X1330798Y1153750D02*
X1248992D01*
X1341434Y1143115D02*
X1330798Y1153750D01*
X1314750Y1146500D02*
X1239468D01*
X1057000Y1134500D02*
X1052750Y1138750D01*
X1302107Y1129500D02*
X1051730D01*
X1302627Y1128980D02*
X1302107Y1129500D01*
X1307032Y1134500D02*
X1311532Y1139000D01*
X1307032Y1134500D02*
X1057000D01*
X1312000Y1139000D02*
X1311532D01*
X1052750Y1138750D02*
Y1238012D01*
X1051730Y1129500D02*
X1045600Y1135630D01*
X1351040Y1167710D02*
X1160500D01*
X1356762Y1172500D02*
X1165500D01*
X1356762D02*
X1362877Y1178615D01*
X1354135Y1164615D02*
X1351040Y1167710D01*
X1311676Y1182676D02*
X1308760D01*
X1307536Y1181940D02*
X1307929Y1182333D01*
X1248798Y1181940D02*
X1246000Y1184738D01*
X1311676Y1182676D02*
X1312250Y1183250D01*
X1307536Y1181940D02*
X1248798D01*
X1321385Y1139865D02*
X1314750Y1146500D01*
X1246000Y1184738D02*
Y1230500D01*
X1252738Y1187460D02*
X1251250Y1188948D01*
Y1237650D01*
X1305250Y1187460D02*
X1252738D01*
X1367877Y1164615D02*
X1354135D01*
X1366127Y1152115D02*
X1341635D01*
X1353627Y1143115D02*
X1341434D01*
X1336877Y1139865D02*
X1321385D01*
X1071000Y1238750D02*
Y1250750D01*
X1052750Y1238012D02*
X1054238Y1239500D01*
X1070250D02*
X1054238D01*
X1071000Y1238750D02*
X1070250Y1239500D01*
X1324150Y1227650D02*
Y1250750D01*
X1303615Y1207115D02*
X1277627D01*
X1303615D02*
X1324150Y1227650D01*
X1294000Y1213250D02*
Y1224357D01*
X1298750Y1229107D01*
Y1250750D01*
X1189000Y1234000D02*
X1172250Y1250750D01*
X1246000Y1230500D02*
X1242500Y1234000D01*
X1189000D01*
X1209075Y1239325D02*
X1197650Y1250750D01*
X1251250Y1237650D02*
X1249575Y1239325D01*
X1209075D01*
X1045600Y1135630D02*
Y1250750D01*
X1372250Y838750D02*
Y877750D01*
X1326750D01*
X1280615Y831615D02*
X953627D01*
X1280615D02*
X1326750Y877750D01*
X1264877Y690500D02*
Y731377D01*
X1042750Y677488D02*
Y689262D01*
X1044238Y690750D01*
X1264627D02*
X1044238D01*
X1264877Y690500D02*
X1264627Y690750D01*
X1032627Y667365D02*
X1042750Y677488D01*
X1365875Y832375D02*
X1372250Y838750D01*
X1350000Y816500D02*
X1365875Y832375D01*
X1417877Y801115D02*
X1397135D01*
X1365875Y832375D01*
X1320875Y787375D02*
X1350000Y816500D01*
X1391127Y727615D02*
Y775373D01*
X1350000Y816500D01*
X1264877Y731377D02*
X1320875Y787375D01*
X1352877Y766365D02*
X1341885D01*
X1320875Y787375D01*
X1372250Y935365D02*
Y985000D01*
Y1000250D02*
Y1130750D01*
Y985000D02*
Y1000250D01*
X1372140Y1000360D02*
X1186938D01*
X1372250Y1000250D02*
X1372140Y1000360D01*
X1372115Y984865D02*
X1219127D01*
X1372115D02*
X1372250Y985000D01*
X1409750Y1110730D02*
Y1131762D01*
X1408262Y1133250D01*
X1374750D01*
X1372250Y1130750D02*
X1374750Y1133250D01*
X1411615Y1108865D02*
X1409750Y1110730D01*
X1426627Y1108865D02*
X1411615D01*
X1400000Y1070750D02*
Y1094250D01*
X1401000Y1095250D01*
X1439750Y1031000D02*
X1400000Y1070750D01*
X1439750Y775250D02*
Y1031000D01*
X1381750Y1067000D02*
Y1122250D01*
X1382250Y1122750D01*
X1420512Y567500D02*
X1396500D01*
X1420512D02*
X1422000Y568988D01*
Y776000D01*
X1396250Y567250D02*
X1396500Y567500D01*
X1396250Y567250D02*
X1090488D01*
X1089000Y565762D02*
X1090488Y567250D01*
X1107750Y526250D02*
Y543512D01*
X1193012Y545000D02*
X1109238D01*
X1107750Y543512D02*
X1109238Y545000D01*
X1194500Y519750D02*
Y543512D01*
X1193012Y545000D01*
X1178012Y534250D02*
X1123988D01*
X1122500Y532762D02*
X1123988Y534250D01*
X1122500Y526750D02*
Y532762D01*
X1179500Y519750D02*
Y532762D01*
X1178012Y534250D01*
X658760Y1182676D02*
G03*
X657929Y1182333I0J-1177D01*
G01*
X780000Y765500D02*
X789750Y775250D01*
X776250Y498750D02*
X779980Y502480D01*
Y503948D02*
X780000Y503968D01*
X779980Y502480D02*
Y503948D01*
X780000Y503968D02*
Y765500D01*
X776250Y498750D02*
X773750D01*
X767500Y500000D02*
X628677D01*
X439000D02*
X294509D01*
X439000D02*
Y565762D01*
X613024Y658750D02*
X444250D01*
X613024D02*
X614877Y660603D01*
X721512Y923115D02*
X458135D01*
X458000Y923250D01*
X780250Y784250D02*
Y1018500D01*
X731750Y1067000D01*
X772000Y776000D02*
X780250Y784250D01*
X722250Y877750D02*
Y923115D01*
Y935365D01*
X677885D01*
X677750Y935500D01*
X614877Y660603D02*
Y690500D01*
X515500Y1172500D02*
X509000Y1179000D01*
X595178Y1159500D02*
X512750D01*
X595178D02*
X598968Y1163290D01*
X680460D02*
X598968D01*
X691635Y1152115D02*
X680460Y1163290D01*
X596992Y1151750D02*
X516000D01*
X515500Y1152250D01*
X596992Y1151750D02*
X598992Y1153750D01*
X585718Y1142750D02*
X589468Y1146500D01*
X585718Y1142750D02*
X517500D01*
X680798Y1153750D02*
X598992D01*
X691434Y1143115D02*
X680798Y1153750D01*
X664750Y1146500D02*
X589468D01*
X407000Y1134500D02*
X402750Y1138750D01*
X652107Y1129500D02*
X401730D01*
X652627Y1128980D02*
X652107Y1129500D01*
X657032Y1134500D02*
X661532Y1139000D01*
X657032Y1134500D02*
X407000D01*
X662000Y1139000D02*
X661532D01*
X402750Y1138750D02*
Y1238012D01*
X401730Y1129500D02*
X395600Y1135630D01*
X701040Y1167710D02*
X510500D01*
X706762Y1172500D02*
X515500D01*
X706762D02*
X712877Y1178615D01*
X704135Y1164615D02*
X701040Y1167710D01*
X661676Y1182676D02*
X658760D01*
X657536Y1181940D02*
X657929Y1182333D01*
X598798Y1181940D02*
X596000Y1184738D01*
X661676Y1182676D02*
X662250Y1183250D01*
X657536Y1181940D02*
X598798D01*
X671385Y1139865D02*
X664750Y1146500D01*
X596000Y1184738D02*
Y1230500D01*
X602738Y1187460D02*
X601250Y1188948D01*
Y1237650D01*
X655250Y1187460D02*
X602738D01*
X717877Y1164615D02*
X704135D01*
X716127Y1152115D02*
X691635D01*
X703627Y1143115D02*
X691434D01*
X686877Y1139865D02*
X671385D01*
X421000Y1238750D02*
Y1250750D01*
X402750Y1238012D02*
X404238Y1239500D01*
X420250D02*
X404238D01*
X421000Y1238750D02*
X420250Y1239500D01*
X674150Y1227650D02*
Y1250750D01*
X653615Y1207115D02*
X627627D01*
X653615D02*
X674150Y1227650D01*
X644000Y1213250D02*
Y1224357D01*
X648750Y1229107D01*
Y1250750D01*
X539000Y1234000D02*
X522250Y1250750D01*
X596000Y1230500D02*
X592500Y1234000D01*
X539000D01*
X559075Y1239325D02*
X547650Y1250750D01*
X601250Y1237650D02*
X599575Y1239325D01*
X559075D01*
X395600Y1135630D02*
Y1250750D01*
X722250Y838750D02*
Y877750D01*
X676750D01*
X630615Y831615D02*
X303627D01*
X630615D02*
X676750Y877750D01*
X614877Y690500D02*
Y731377D01*
X392750Y677488D02*
Y689262D01*
X394238Y690750D01*
X614627D02*
X394238D01*
X614877Y690500D02*
X614627Y690750D01*
X382627Y667365D02*
X392750Y677488D01*
X715875Y832375D02*
X722250Y838750D01*
X700000Y816500D02*
X715875Y832375D01*
X767877Y801115D02*
X747135D01*
X715875Y832375D01*
X670875Y787375D02*
X700000Y816500D01*
X741127Y727615D02*
Y775373D01*
X700000Y816500D01*
X614877Y731377D02*
X670875Y787375D01*
X702877Y766365D02*
X691885D01*
X670875Y787375D01*
X722250Y935365D02*
Y985000D01*
Y1000250D02*
Y1130750D01*
Y985000D02*
Y1000250D01*
X722140Y1000360D02*
X536938D01*
X722250Y1000250D02*
X722140Y1000360D01*
X722115Y984865D02*
X569127D01*
X722115D02*
X722250Y985000D01*
X759750Y1110730D02*
Y1131762D01*
X758262Y1133250D01*
X724750D01*
X722250Y1130750D02*
X724750Y1133250D01*
X761615Y1108865D02*
X759750Y1110730D01*
X776627Y1108865D02*
X761615D01*
X750000Y1070750D02*
Y1094250D01*
X751000Y1095250D01*
X789750Y1031000D02*
X750000Y1070750D01*
X789750Y775250D02*
Y1031000D01*
X731750Y1067000D02*
Y1122250D01*
X732250Y1122750D01*
X770512Y567500D02*
X746500D01*
X770512D02*
X772000Y568988D01*
Y776000D01*
X746250Y567250D02*
X746500Y567500D01*
X746250Y567250D02*
X440488D01*
X439000Y565762D02*
X440488Y567250D01*
X457750Y526250D02*
Y543512D01*
X543012Y545000D02*
X459238D01*
X457750Y543512D02*
X459238Y545000D01*
X544500Y519750D02*
Y543512D01*
X543012Y545000D01*
X528012Y534250D02*
X473988D01*
X472500Y532762D02*
X473988Y534250D01*
X472500Y526750D02*
Y532762D01*
X529500Y519750D02*
Y532762D01*
X528012Y534250D01*
D35*
X2070250Y426250D02*
D03*
X1916750D02*
D03*
X1751500D02*
D03*
X1600500D02*
D03*
X1420250Y426250D02*
D03*
X1266750D02*
D03*
X1101500D02*
D03*
X950500D02*
D03*
X770250Y426250D02*
D03*
X616750D02*
D03*
X451500D02*
D03*
X300500D02*
D03*
D36*
X1785000Y1182500D02*
D03*
X1135000Y1182500D02*
D03*
X485000Y1182500D02*
D03*
D37*
X1862000Y399250D02*
D03*
X1807000D02*
D03*
X1212000Y399250D02*
D03*
X1157000D02*
D03*
X562000Y399250D02*
D03*
X507000D02*
D03*
D38*
X1837000Y412000D02*
D03*
X1697000Y406000D02*
D03*
X1853000D02*
D03*
X2015000D02*
D03*
X1972000D02*
D03*
X1656000D02*
D03*
X1816000D02*
D03*
X1187000Y412000D02*
D03*
X1047000Y406000D02*
D03*
X1203000D02*
D03*
X1365000D02*
D03*
X1322000D02*
D03*
X1006000D02*
D03*
X1166000D02*
D03*
X537000Y412000D02*
D03*
X397000Y406000D02*
D03*
X553000D02*
D03*
X715000D02*
D03*
X672000D02*
D03*
X356000D02*
D03*
X516000D02*
D03*
D39*
X2055000Y416000D02*
D03*
X1615000D02*
D03*
X2085000D02*
D03*
X1585000D02*
D03*
X1737000D02*
D03*
X1932000D02*
D03*
X1902000D02*
D03*
X1767000D02*
D03*
X1405000Y416000D02*
D03*
X965000D02*
D03*
X1435000D02*
D03*
X935000D02*
D03*
X1087000D02*
D03*
X1282000D02*
D03*
X1252000D02*
D03*
X1117000D02*
D03*
X755000Y416000D02*
D03*
X315000D02*
D03*
X785000D02*
D03*
X285000D02*
D03*
X437000D02*
D03*
X632000D02*
D03*
X602000D02*
D03*
X467000D02*
D03*
D40*
X1871500Y454000D02*
D03*
X1877000Y453750D02*
D03*
X1866500Y455000D02*
D03*
X1862500Y454500D02*
D03*
X1854250Y453250D02*
D03*
X1847750Y454500D02*
D03*
X1839500Y455250D02*
D03*
X1836000Y455000D02*
D03*
X1828250Y454750D02*
D03*
X1819250Y455000D02*
D03*
X1810750D02*
D03*
X1803750Y455750D02*
D03*
X1797000D02*
D03*
X1221500Y454000D02*
D03*
X1227000Y453750D02*
D03*
X1216500Y455000D02*
D03*
X1212500Y454500D02*
D03*
X1204250Y453250D02*
D03*
X1197750Y454500D02*
D03*
X1189500Y455250D02*
D03*
X1186000Y455000D02*
D03*
X1178250Y454750D02*
D03*
X1169250Y455000D02*
D03*
X1160750D02*
D03*
X1153750Y455750D02*
D03*
X1147000D02*
D03*
X571500Y454000D02*
D03*
X577000Y453750D02*
D03*
X566500Y455000D02*
D03*
X562500Y454500D02*
D03*
X554250Y453250D02*
D03*
X547750Y454500D02*
D03*
X539500Y455250D02*
D03*
X536000Y455000D02*
D03*
X528250Y454750D02*
D03*
X519250Y455000D02*
D03*
X510750D02*
D03*
X503750Y455750D02*
D03*
X497000D02*
D03*
D41*
X1948750Y1250750D02*
D03*
X1695600D02*
D03*
X1721000D02*
D03*
X1746400D02*
D03*
X1999550D02*
D03*
X1974150D02*
D03*
X1873050D02*
D03*
X1847650D02*
D03*
X1822250D02*
D03*
X1298750Y1250750D02*
D03*
X1045600D02*
D03*
X1071000D02*
D03*
X1096400D02*
D03*
X1349550D02*
D03*
X1324150D02*
D03*
X1223050D02*
D03*
X1197650D02*
D03*
X1172250D02*
D03*
X648750Y1250750D02*
D03*
X395600D02*
D03*
X421000D02*
D03*
X446400D02*
D03*
X699550D02*
D03*
X674150D02*
D03*
X573050D02*
D03*
X547650D02*
D03*
X522250D02*
D03*
D42*
X1670200D02*
D03*
X1923350D02*
D03*
X1796850D02*
D03*
X1020200Y1250750D02*
D03*
X1273350D02*
D03*
X1146850D02*
D03*
X370200Y1250750D02*
D03*
X623350D02*
D03*
X496850D02*
D03*
D43*
X1837000Y496000D02*
D03*
X1187000Y496000D02*
D03*
X537000Y496000D02*
D03*
D44*
X1793850Y513750D02*
D03*
X1880150D02*
D03*
X1143850Y513750D02*
D03*
X1230150D02*
D03*
X493850Y513750D02*
D03*
X580150D02*
D03*
D45*
X1837000Y455750D02*
D03*
X1187000Y455750D02*
D03*
X537000Y455750D02*
D03*
D46*
X1744250Y658750D02*
D03*
X1758000Y923250D02*
D03*
X2074500Y793250D02*
D03*
X1977750Y935500D02*
D03*
X1720000Y1185000D02*
D03*
X1880000Y1195000D02*
D03*
X1808401Y1179098D02*
D03*
X1809901Y1168348D02*
D03*
X1812750Y1159500D02*
D03*
X1815500Y1152250D02*
D03*
X1817500Y1142750D02*
D03*
X1952627Y1128980D02*
D03*
X1955250Y1187460D02*
D03*
X1962250Y1183250D02*
D03*
X1837127Y505250D02*
D03*
X2012877Y1178615D02*
D03*
X2017877Y1164615D02*
D03*
X1962000Y1139000D02*
D03*
X2016127Y1152115D02*
D03*
X2003627Y1143115D02*
D03*
X1986877Y1139865D02*
D03*
X1927627Y1207115D02*
D03*
X1944000Y1213250D02*
D03*
X2100127Y1062365D02*
D03*
X2010377Y760115D02*
D03*
X2002877Y766365D02*
D03*
X2067877Y801115D02*
D03*
X2048627Y722115D02*
D03*
X2041127Y727615D02*
D03*
X1741627Y649615D02*
D03*
X1676377Y672615D02*
D03*
X1682627Y667365D02*
D03*
X1598127Y825615D02*
D03*
X1603627Y831615D02*
D03*
X1755627Y930615D02*
D03*
X1828627Y999865D02*
D03*
X1836938Y1000360D02*
D03*
X1860627Y984115D02*
D03*
X1869127Y984865D02*
D03*
X1970877Y940115D02*
D03*
X2076627Y1108865D02*
D03*
X2051127Y1095365D02*
D03*
X2032250Y1122750D02*
D03*
X1757877Y526365D02*
D03*
X1772500Y526750D02*
D03*
X1094250Y658750D02*
D03*
X1108000Y923250D02*
D03*
X1424500Y793250D02*
D03*
X1327750Y935500D02*
D03*
X1070000Y1185000D02*
D03*
X1230000Y1195000D02*
D03*
X1158400Y1179098D02*
D03*
X1159901Y1168348D02*
D03*
X1162750Y1159500D02*
D03*
X1165500Y1152250D02*
D03*
X1167500Y1142750D02*
D03*
X1302627Y1128980D02*
D03*
X1305250Y1187460D02*
D03*
X1312250Y1183250D02*
D03*
X1187127Y505250D02*
D03*
X1362877Y1178615D02*
D03*
X1367877Y1164615D02*
D03*
X1312000Y1139000D02*
D03*
X1366127Y1152115D02*
D03*
X1353627Y1143115D02*
D03*
X1336877Y1139865D02*
D03*
X1277627Y1207115D02*
D03*
X1294000Y1213250D02*
D03*
X1450127Y1062365D02*
D03*
X1360377Y760115D02*
D03*
X1352877Y766365D02*
D03*
X1417877Y801115D02*
D03*
X1398627Y722115D02*
D03*
X1391127Y727615D02*
D03*
X1091627Y649615D02*
D03*
X1026377Y672615D02*
D03*
X1032627Y667365D02*
D03*
X948127Y825615D02*
D03*
X953627Y831615D02*
D03*
X1105627Y930615D02*
D03*
X1178627Y999865D02*
D03*
X1186938Y1000360D02*
D03*
X1210627Y984115D02*
D03*
X1219127Y984865D02*
D03*
X1320877Y940115D02*
D03*
X1426627Y1108865D02*
D03*
X1401127Y1095365D02*
D03*
X1382250Y1122750D02*
D03*
X1107877Y526365D02*
D03*
X1122500Y526750D02*
D03*
X444250Y658750D02*
D03*
X458000Y923250D02*
D03*
X774500Y793250D02*
D03*
X677750Y935500D02*
D03*
X420000Y1185000D02*
D03*
X580000Y1195000D02*
D03*
X508400Y1179098D02*
D03*
X509901Y1168348D02*
D03*
X512750Y1159500D02*
D03*
X515500Y1152250D02*
D03*
X517500Y1142750D02*
D03*
X652627Y1128980D02*
D03*
X655250Y1187460D02*
D03*
X662250Y1183250D02*
D03*
X537127Y505250D02*
D03*
X712877Y1178615D02*
D03*
X717877Y1164615D02*
D03*
X662000Y1139000D02*
D03*
X716127Y1152115D02*
D03*
X703627Y1143115D02*
D03*
X686877Y1139865D02*
D03*
X627627Y1207115D02*
D03*
X644000Y1213250D02*
D03*
X800127Y1062365D02*
D03*
X710377Y760115D02*
D03*
X702877Y766365D02*
D03*
X767877Y801115D02*
D03*
X748627Y722115D02*
D03*
X741127Y727615D02*
D03*
X441627Y649615D02*
D03*
X376377Y672615D02*
D03*
X382627Y667365D02*
D03*
X298127Y825615D02*
D03*
X303627Y831615D02*
D03*
X455627Y930615D02*
D03*
X528627Y999865D02*
D03*
X536938Y1000360D02*
D03*
X560627Y984115D02*
D03*
X569127Y984865D02*
D03*
X670877Y940115D02*
D03*
X776627Y1108865D02*
D03*
X751127Y1095365D02*
D03*
X732250Y1122750D02*
D03*
X457877Y526365D02*
D03*
X472500Y526750D02*
D03*
D47*
X1593750Y448750D02*
D03*
Y498750D02*
D03*
X1738750D02*
D03*
Y448750D02*
D03*
X2073750D02*
D03*
Y498750D02*
D03*
X1928750D02*
D03*
Y448750D02*
D03*
X943750Y448750D02*
D03*
Y498750D02*
D03*
X1088750D02*
D03*
Y448750D02*
D03*
X1423750D02*
D03*
Y498750D02*
D03*
X1278750D02*
D03*
Y448750D02*
D03*
X293750Y448750D02*
D03*
Y498750D02*
D03*
X438750D02*
D03*
Y448750D02*
D03*
X773750D02*
D03*
Y498750D02*
D03*
X628750D02*
D03*
Y448750D02*
D03*
M02*
