M48
;Layer_Color=9474304
;FILE_FORMAT=4:4
METRIC
;TYPE=PLATED
T4F00S00C1.0000
T5F00S00C1.5000
T6F00S00C2.0000
%
G90
G05
T04
G00X02055000Y00406000
M15
G01X01975000
M16
G00X02055000Y00426000
M15
G01Y00406000
M16
G00X02085000Y00426000
M15
G01Y00406000
M16
G00X02012000Y00406000
M15
G01X01932000
M16
G00X01932000Y00426000
M15
G01Y00406000
M16
G00X01902000Y00426000
M15
G01Y00406000
M16
G00X01813000Y00406000
M15
G01X01893000
M16
G00X01877000Y00412000
M15
G01X01797000
M16
G00X01856000Y00406000
M15
G01X01776000
M16
G00X01819250Y00495000
M15
G01Y00415000
M16
G00X01810750Y00495000
M15
G01Y00415000
M16
G00X01803750Y00495750
M15
G01Y00415750
M16
G00X01797000Y00495750
M15
G01Y00415750
M16
G00X01828250Y00494750
M15
G01Y00414750
M16
G00X01836000Y00495000
M15
G01Y00415000
M16
G00X01839500Y00495250
M15
G01Y00415250
M16
G00X01847750Y00494500
M15
G01Y00414500
M16
G00X01854250Y00493250
M15
G01Y00413250
M16
G00X01862500Y00494500
M15
G01Y00414500
M16
G00X01866500Y00495000
M15
G01Y00415000
M16
G00X01871500Y00494000
M15
G01Y00414000
M16
G00X01877000Y00493750
M15
G01Y00413750
M16
G00X01877000Y00496000
M15
G01X01797000
M16
G00X01767000Y00426000
M15
G01Y00406000
M16
G00X01737000Y00426000
M15
G01Y00406000
M16
G00X01737000Y00406000
M15
G01X01657000
M16
G00X01696000Y00406000
M15
G01X01616000
M16
G00X01615000Y00426000
M15
G01Y00406000
M16
G00X01585000Y00426000
M15
G01Y00406000
M16
G00X01435000Y00426000
M15
G01Y00406000
M16
G00X01405000Y00426000
M15
G01Y00406000
M16
G00X01405000Y00406000
M15
G01X01325000
M16
G00X01362000Y00406000
M15
G01X01282000
M16
G00X01282000Y00426000
M15
G01Y00406000
M16
G00X01252000Y00426000
M15
G01Y00406000
M16
G00X01163000Y00406000
M15
G01X01243000
M16
G00X01204250Y00493250
M15
G01Y00413250
M16
G00X01197750Y00494500
M15
G01Y00414500
M16
G00X01212500Y00494500
M15
G01Y00414500
M16
G00X01216500Y00495000
M15
G01Y00415000
M16
G00X01221500Y00494000
M15
G01Y00414000
M16
G00X01227000Y00493750
M15
G01Y00413750
M16
G00X01227000Y00412000
M15
G01X01147000
M16
G00X01206000Y00406000
M15
G01X01126000
M16
G00X01169250Y00495000
M15
G01Y00415000
M16
G00X01160750Y00495000
M15
G01Y00415000
M16
G00X01153750Y00495750
M15
G01Y00415750
M16
G00X01147000Y00495750
M15
G01Y00415750
M16
G00X01178250Y00494750
M15
G01Y00414750
M16
G00X01186000Y00495000
M15
G01Y00415000
M16
G00X01189500Y00495250
M15
G01Y00415250
M16
G00X01227000Y00496000
M15
G01X01147000
M16
G00X01117000Y00426000
M15
G01Y00406000
M16
G00X01087000Y00426000
M15
G01Y00406000
M16
G00X01087000Y00406000
M15
G01X01007000
M16
G00X01046000Y00406000
M15
G01X00966000
M16
G00X00965000Y00426000
M15
G01Y00406000
M16
G00X00935000Y00426000
M15
G01Y00406000
M16
G00X00785000Y00426000
M15
G01Y00406000
M16
G00X00755000Y00426000
M15
G01Y00406000
M16
G00X00755000Y00406000
M15
G01X00675000
M16
G00X00712000Y00406000
M15
G01X00632000
M16
G00X00632000Y00426000
M15
G01Y00406000
M16
G00X00602000Y00426000
M15
G01Y00406000
M16
G00X00513000Y00406000
M15
G01X00593000
M16
G00X00577000Y00412000
M15
G01X00497000
M16
G00X00556000Y00406000
M15
G01X00476000
M16
G00X00519250Y00495000
M15
G01Y00415000
M16
G00X00510750Y00495000
M15
G01Y00415000
M16
G00X00503750Y00495750
M15
G01Y00415750
M16
G00X00497000Y00495750
M15
G01Y00415750
M16
G00X00528250Y00494750
M15
G01Y00414750
M16
G00X00536000Y00495000
M15
G01Y00415000
M16
G00X00539500Y00495250
M15
G01Y00415250
M16
G00X00547750Y00494500
M15
G01Y00414500
M16
G00X00554250Y00493250
M15
G01Y00413250
M16
G00X00562500Y00494500
M15
G01Y00414500
M16
G00X00566500Y00495000
M15
G01Y00415000
M16
G00X00571500Y00494000
M15
G01Y00414000
M16
G00X00577000Y00493750
M15
G01Y00413750
M16
G00X00577000Y00496000
M15
G01X00497000
M16
G00X00467000Y00426000
M15
G01Y00406000
M16
G00X00437000Y00426000
M15
G01Y00406000
M16
G00X00437000Y00406000
M15
G01X00357000
M16
G00X00396000Y00406000
M15
G01X00316000
M16
G00X00315000Y00426000
M15
G01Y00406000
M16
G00X00285000Y00426000
M15
G01Y00406000
M16
T05
G00X00485000Y01220000
M15
G01Y01145000
M16
G00X01135000Y01220000
M15
G01Y01145000
M16
G00X01785000Y01220000
M15
G01Y01145000
M16
T06
G00X01842000Y00399250
M15
G01X01772000
M16
G00X01897000Y00399250
M15
G01X01827000
M16
G00X01247000Y00399250
M15
G01X01177000
M16
G00X01192000Y00399250
M15
G01X01122000
M16
G00X00597000Y00399250
M15
G01X00527000
M16
G00X00542000Y00399250
M15
G01X00472000
M16
M30
