G04*
G04 #@! TF.GenerationSoftware,Altium Limited,Altium Designer,23.6.0 (18)*
G04*
G04 Layer_Color=128*
%FSLAX44Y44*%
%MOMM*%
G71*
G04*
G04 #@! TF.SameCoordinates,59697A40-66F3-49E2-9A90-2B25EFB93BE2*
G04*
G04*
G04 #@! TF.FilePolarity,Positive*
G04*
G01*
G75*
%ADD30R,0.2000X1.7000*%
%ADD47R,1.5000X1.0000*%
D30*
X1839500Y519750D02*
D03*
X1824500D02*
D03*
X1834500D02*
D03*
X1829500D02*
D03*
X1809500D02*
D03*
X1844500D02*
D03*
X1854500D02*
D03*
X1849500D02*
D03*
X1859500D02*
D03*
X1864500D02*
D03*
X1814500D02*
D03*
X1819500D02*
D03*
X1189500Y519750D02*
D03*
X1174500D02*
D03*
X1184500D02*
D03*
X1179500D02*
D03*
X1159500D02*
D03*
X1194500D02*
D03*
X1204500D02*
D03*
X1199500D02*
D03*
X1209500D02*
D03*
X1214500D02*
D03*
X1164500D02*
D03*
X1169500D02*
D03*
X539500Y519750D02*
D03*
X524500D02*
D03*
X534500D02*
D03*
X529500D02*
D03*
X509500D02*
D03*
X544500D02*
D03*
X554500D02*
D03*
X549500D02*
D03*
X559500D02*
D03*
X564500D02*
D03*
X514500D02*
D03*
X519500D02*
D03*
D47*
X1593750Y448750D02*
D03*
Y498750D02*
D03*
X1738750D02*
D03*
Y448750D02*
D03*
X2073750D02*
D03*
Y498750D02*
D03*
X1928750D02*
D03*
Y448750D02*
D03*
X943750Y448750D02*
D03*
Y498750D02*
D03*
X1088750D02*
D03*
Y448750D02*
D03*
X1423750D02*
D03*
Y498750D02*
D03*
X1278750D02*
D03*
Y448750D02*
D03*
X293750Y448750D02*
D03*
Y498750D02*
D03*
X438750D02*
D03*
Y448750D02*
D03*
X773750D02*
D03*
Y498750D02*
D03*
X628750D02*
D03*
Y448750D02*
D03*
M02*
