M48
;Layer_Color=9474304
;FILE_FORMAT=4:4
METRIC
;TYPE=PLATED
T1F00S00C0.4000
T2F00S00C0.9000
T3F00S00C1.0000
%
T01
X02041127Y00727615
X02048627Y00722115
X02010377Y00760115
X02002877Y00766365
X02074500Y00793250
X01744250Y00658750
X01741627Y00649615
X01682627Y00667365
X01676377Y00672615
X01757877Y00526365
X01772500Y00526750
X01837127Y00505250
X01398627Y00722115
X01391127Y00727615
X01360377Y00760115
X01352877Y00766365
X01424500Y00793250
X01094250Y00658750
X01091627Y00649615
X01032627Y00667365
X01026377Y00672615
X01107877Y00526365
X01122500Y00526750
X01187127Y00505250
X00537127Y00505250
X00472500Y00526750
X00457877Y00526365
X00441627Y00649615
X00444250Y00658750
X00741127Y00727615
X00748627Y00722115
X00710377Y00760115
X00702877Y00766365
X00774500Y00793250
X00382627Y00667365
X00376377Y00672615
X00298127Y00825615
X00303627Y00831615
X00458000Y00923250
X00455627Y00930615
X00528627Y00999865
X00536938Y01000360
X00560627Y00984115
X00569127Y00984865
X00670877Y00940115
X00677750Y00935500
X00686877Y01139865
X00703627Y01143115
X00716127Y01152115
X00717877Y01164615
X00712877Y01178615
X00662250Y01183250
X00655250Y01187460
X00662000Y01139000
X00652627Y01128980
X00732250Y01122750
X00751127Y01095365
X00776627Y01108865
X00517500Y01142750
X00515500Y01152250
X00512750Y01159500
X00509901Y01168348
X00508400Y01179098
X00420000Y01185000
X00767877Y00801115
X00948127Y00825615
X00953627Y00831615
X01108000Y00923250
X01105627Y00930615
X01178627Y00999865
X01186938Y01000360
X01167500Y01142750
X01165500Y01152250
X01162750Y01159500
X01159901Y01168348
X01158400Y01179098
X01070000Y01185000
X00800127Y01062365
X01210627Y00984115
X01219127Y00984865
X01320877Y00940115
X01327750Y00935500
X01336877Y01139865
X01353627Y01143115
X01366127Y01152115
X01367877Y01164615
X01362877Y01178615
X01312250Y01183250
X01305250Y01187460
X01312000Y01139000
X01302627Y01128980
X01382250Y01122750
X01401127Y01095365
X01426627Y01108865
X01450127Y01062365
X01417877Y00801115
X01598127Y00825615
X01603627Y00831615
X01758000Y00923250
X01755627Y00930615
X01828627Y00999865
X01836938Y01000360
X01860627Y00984115
X01869127Y00984865
X01970877Y00940115
X01977750Y00935500
X01952627Y01128980
X01962000Y01139000
X01962250Y01183250
X01955250Y01187460
X01808401Y01179098
X01809901Y01168348
X01812750Y01159500
X01815500Y01152250
X01817500Y01142750
X01720000Y01185000
X02012877Y01178615
X02017877Y01164615
X02016127Y01152115
X02003627Y01143115
X01986877Y01139865
X02032250Y01122750
X02051127Y01095365
X02076627Y01108865
X02100127Y01062365
X02067877Y00801115
X01944000Y01213250
X01927627Y01207115
X01880000Y01195000
X01294000Y01213250
X01277627Y01207115
X01230000Y01195000
X00644000Y01213250
X00627627Y01207115
X00580000Y01195000
T02
X01999550Y01250750
X01974150
X01948750
X01923350
X01873050
X01847650
X01822250
X01796850
X01746400
X01721000
X01695600
X01670200
X01349550Y01250750
X01324150
X01298750
X01273350
X01223050
X01197650
X01172250
X01146850
X01096400
X01071000
X01045600
X01020200
X00699550Y01250750
X00674150
X00648750
X00623350
X00573050
X00547650
X00522250
X00496850
X00446400
X00421000
X00395600
X00370200
T03
X02070250Y00426250
X01916750
X01751500
X01600500
X01420250Y00426250
X01266750
X01101500
X00950500
X00770250Y00426250
X00616750
X00451500
X00300500
M30
